<?xml version="1.0" encoding="UTF-8" standalone="no"?>
<svg
   xmlns:dc="http://purl.org/dc/elements/1.1/"
   xmlns:cc="http://creativecommons.org/ns#"
   xmlns:rdf="http://www.w3.org/1999/02/22-rdf-syntax-ns#"
   xmlns:svg="http://www.w3.org/2000/svg"
   xmlns="http://www.w3.org/2000/svg"
   xmlns:sodipodi="http://sodipodi.sourceforge.net/DTD/sodipodi-0.dtd"
   xmlns:inkscape="http://www.inkscape.org/namespaces/inkscape"
   inkscape:version="1.0 (4035a4fb49, 2020-05-01)"
   sodipodi:docname="capstone_icon_karsten_yan_bg.svg"
   id="svg12"
   version="1.1"
   width="1280pt"
   viewBox="0 0 1280 720"
   height="720pt"
   inkscape:export-filename="C:\Users\neomo\Documents\GitHub\ky-nf-capstone\capstone_icon_karsten_yan_bg.png"
   inkscape:export-xdpi="300"
   inkscape:export-ydpi="300">
  <metadata
     id="metadata18">
    <rdf:RDF>
      <cc:Work
         rdf:about="">
        <dc:format>image/svg+xml</dc:format>
        <dc:type
           rdf:resource="http://purl.org/dc/dcmitype/StillImage" />
        <dc:title />
      </cc:Work>
    </rdf:RDF>
  </metadata>
  <defs
     id="defs16" />
  <sodipodi:namedview
     inkscape:current-layer="svg12"
     inkscape:window-maximized="0"
     inkscape:window-y="-32000"
     inkscape:window-x="-30080"
     inkscape:cy="283.69056"
     inkscape:cx="1365.5473"
     inkscape:zoom="0.44021541"
     showgrid="false"
     id="namedview14"
     inkscape:window-height="1017"
     inkscape:window-width="1920"
     inkscape:pageshadow="2"
     inkscape:pageopacity="1"
     guidetolerance="10"
     gridtolerance="10"
     objecttolerance="10"
     borderopacity="1"
     bordercolor="#666666"
     pagecolor="#000000"
     inkscape:document-rotation="0" />
  <g
     id="g839"
     transform="matrix(0.43945397,0,0,0.43945397,71.849459,50.441493)"
     inkscape:export-xdpi="300"
     inkscape:export-ydpi="300"
     style="stroke:#000000;stroke-opacity:1;fill:#ffffff">
    <path
       d="m 14.875,266.72266 c 5.519531,0 10,-4.51954 10,-10.04297 0.07031,-5.51953 -4.34375,-10.0586 -9.867188,-10.13282 -0.04297,0 -0.08984,0 -0.136718,0 -5.460938,0 -9.921875,4.39063 -9.996094,9.86719 v 0.35156 c 0,5.52344 4.476562,9.95704 10,9.95704 z m 0,0"
       id="path2"
       style="stroke:#000000;stroke-opacity:1;fill:#ffffff" />
    <path
       d="m 221.83594,309.03516 c 25.35937,-0.17969 46.49218,-18.42969 51.15234,-42.48829 h 19.88281 c 5.52344,0 10,-4.47656 10,-10 0,-5.52343 -4.47656,-10 -10,-10 h -19.88281 c -4.68359,-24.17968 -26.0039,-42.5 -51.53125,-42.5 -0.11328,0 -0.22265,0.008 -0.33594,0.0117 -6.15625,-13.26953 -14.65625,-25.48828 -25.29687,-36.125 l -31.83594,-31.83593 31.83594,-31.83203 C 218.62891,81.460938 232.79688,45.339844 232.79688,10 c 0,-5.523438 -4.47657,-10 -10,-10 -5.52344,0 -10,4.476562 -10,10 0,30.230469 -11.92188,60.933594 -31.11719,80.125 l -31.83203,31.83203 -16.8711,-16.87109 31.83203,-31.832034 C 182.63281,55.429688 188.95703,28.039062 188.95703,10 c 0,-5.523438 -4.47656,-10 -10,-10 -5.51953,0 -10,4.476562 -10,10 0,11.46875 -3.16406,26.179688 -10.03906,38.152344 H 76.796875 C 68.402344,37.277344 63.839844,24 63.839844,10 c 0,-5.523438 -4.476563,-10 -10,-10 -5.523438,0 -10,4.476562 -10,10 0,22.074219 8.574218,42.808594 24.148437,58.382812 L 181.67969,182.07422 c 7.8125,7.8125 14.25,16.63672 19.20703,26.17578 -7.58594,3.24219 -14.25391,8.22656 -19.51172,14.44141 -3.96484,-8.60547 -9.48437,-16.66407 -16.56641,-23.7461 L 51.117188,85.253906 C 31.050781,65.1875 20,38.464844 20,10 20,4.476562 15.523438,0 10,0 4.476562,0 0,4.476562 0,10 0,43.804688 13.132812,75.554688 36.972656,99.394531 L 73.679688,136.10156 41.847656,167.93359 C 27.640625,182.13672 17.296875,198.98437 11.101562,218 c -1.707031,5.25 1.160157,10.89453 6.414063,12.60547 1.027344,0.33203 2.070313,0.49219 3.097656,0.49219 4.214844,0 8.132813,-2.6836 9.507813,-6.90625 5.207031,-15.99219 13.910156,-30.16016 25.867187,-42.11719 l 31.832031,-31.83203 16.871098,16.87109 -31.832035,31.83203 C 57.289062,214.51562 48.714844,235.25 48.714844,257.32422 c 0,22.07812 8.574218,42.8125 24.144531,58.38281 L 142.77734,385.625 c 0.21094,0.21094 0.4336,0.40234 0.65625,0.58984 0.37891,0.58985 0.82032,1.15235 1.33985,1.66797 l 33.99219,33.99219 c 19.19531,19.19141 31.11718,49.89453 31.11718,80.125 0,5.52344 4.47657,10 10,10 5.51953,0 10,-4.47656 10,-10 0,-35.33984 -14.16797,-71.46094 -36.97656,-94.26563 l -29.04687,-29.05078 31.96484,-31.96093 c 11.05469,-11.0586 19.80078,-23.81641 26.01172,-37.6875 z M 96.042969,68.152344 H 141.625 L 118.83594,90.941406 Z M 253.95703,256.54687 c 0,15.3086 -10.64062,28.16797 -24.91016,31.59766 2.47657,-9.95703 3.75,-20.28906 3.75,-30.82031 0,-11.11719 -1.42968,-22.00781 -4.18359,-32.47266 14.48828,3.26953 25.34375,16.23438 25.34375,31.69531 z m -45.57031,-29.74609 c 2.90234,9.77344 4.41015,20.03125 4.41015,30.52344 0,10.0039 -1.37109,19.78906 -4.01171,29.14844 -11.64063,-4.94922 -19.82422,-16.5 -19.82422,-29.92579 -0.004,-13.27343 8,-24.70312 19.42578,-29.74609 z M 94.484375,309.04687 h 48.699215 l -24.34765,24.35157 z m -16.207031,-85 h 81.124996 c 4.32032,6.85547 7.23828,14.47266 8.6211,22.5 H 69.652344 c 1.367187,-7.87109 4.242187,-15.52343 8.625,-22.5 z m 90.011716,42.5 c -1.17187,7.99219 -3.86328,15.60547 -7.92578,22.5 H 77.308594 c -4.125,-7.01562 -6.761719,-14.66796 -7.917969,-22.5 z m -26.66015,-62.5 H 96.042969 l 22.792971,-22.78906 z m 8.21875,160.36329 -16.8711,-16.8711 31.83203,-31.83203 c 7.36719,-7.36328 13.02344,-15.79297 17.01953,-24.78516 5.34375,6.14844 12.08204,11.05079 19.72657,14.19532 -5.04297,10.03515 -11.71094,19.29687 -19.875,27.46093 z m 0,0"
       id="path4"
       style="stroke:#000000;stroke-opacity:1;fill:#ffffff" />
    <path
       d="m 127.17969,404.03125 c -0.35547,-0.51953 -0.75391,-1.01563 -1.21485,-1.47656 L 55.988281,332.57812 C 43.859375,320.44922 35.085938,306.05469 29.90625,289.79687 c -1.675781,-5.26562 -7.304688,-8.16796 -12.5625,-6.49218 -5.265625,1.67578 -8.171875,7.30078 -6.496094,12.5625 6.070313,19.0625 16.789063,36.64453 30.996094,50.85547 l 31.894531,31.89062 -29.121093,29.12109 C 21.8125,430.53906 7.644531,466.66016 7.644531,502 c 0,5.52344 4.476563,10 10,10 5.519531,0 10,-4.47656 10,-10 0,-30.23047 11.921875,-60.93359 31.117188,-80.125 L 87.882812,392.75391 104.75391,409.625 75.632812,438.74609 C 57.808594,456.57031 51.484375,483.96094 51.484375,502 c 0,5.52344 4.476563,10 10,10 5.519531,0 10,-4.47656 10,-10 0,-11.21875 3.039063,-25.51953 9.601563,-37.34375 h 74.859372 c 0.16406,0 0.32031,-0.0195 0.48047,-0.0234 6.57422,11.82813 9.61719,26.14453 9.61719,37.36719 0,5.52344 4.47656,10 10,10 5.51953,0 10,-4.47656 10,-10 0,-18.03906 -6.32422,-45.42969 -24.14844,-63.25391 z m -8.41797,19.86719 20.75781,20.75781 H 98.007812 Z m 0,0"
       id="path6"
       style="stroke:#000000;stroke-opacity:1;fill:#ffffff" />
    <path
       d="m 483.86328,256.58984 26.79688,-46.41406 c 1.78515,-3.09375 1.78515,-6.90625 0,-10 l -29.6836,-51.41406 c -1.78906,-3.09375 -5.08984,-5 -8.66015,-5 h -54.9336 L 390.58594,97.347656 c -1.78907,-3.09375 -5.08985,-5 -8.66016,-5 h -59.37109 c -3.57032,0 -6.8711,1.90625 -8.66016,5 L 287.09766,143.76172 H 236.1875 c -5.52344,0 -10,4.47656 -10,10 0,5.51953 4.47656,10 10,10 h 50.91016 l 26.79687,46.41406 c 1.78906,3.09375 5.08984,5 8.66016,5 h 53.8164 l 24.46875,42.38281 -23.35156,40.44922 h -54.93359 c -3.57032,0 -6.875,1.90235 -8.66016,5 l -29.68359,51.41407 c -1.78516,3.09375 -1.78516,6.90625 0,10 l 29.68359,51.41406 c 1.78516,3.09375 5.08984,5 8.66016,5 h 59.36718 c 3.57422,0 6.875,-1.90625 8.66016,-5 l 26.80078,-46.41406 h 54.92969 c 3.57422,0 6.875,-1.90625 8.66016,-5 l 29.6875,-51.41407 c 1.78515,-3.09765 1.78515,-6.90625 0,-10 z m 6.58984,-51.41406 -23.91015,41.41406 h -48.9375 l -24.02344,-41.60546 23.80078,-41.22266 h 49.15625 z m -186.03515,-51.41406 23.91015,-41.41406 h 47.82422 l 23.91016,41.41406 -23.91016,41.41406 h -47.82422 z m 71.73437,247.07422 h -47.82422 l -23.91015,-41.41406 23.91015,-41.41407 h 47.82422 l 23.91016,41.41407 z m 90.39063,-51.41406 h -47.82031 l -23.91407,-41.41407 23.91407,-41.41797 h 47.82031 l 23.91015,41.41797 z m 0,0"
       id="path8"
       style="stroke:#000000;stroke-opacity:1;fill:#ffffff" />
    <path
       d="m 330.32812,266.55078 c 2.64063,0 5.21094,-1.07031 7.07032,-2.92969 1.87109,-1.85937 2.92968,-4.4414 2.92968,-7.07031 0,-2.64062 -1.05859,-5.21094 -2.92968,-7.07031 -1.85938,-1.8711 -4.4375,-2.92969 -7.07032,-2.92969 -2.6289,0 -5.20703,1.05859 -7.0664,2.92969 -1.86328,1.85937 -2.9336,4.42969 -2.9336,7.07031 0,2.62891 1.07032,5.21094 2.9336,7.07031 1.85937,1.85938 4.4375,2.92969 7.0664,2.92969 z m 0,0"
       id="path10"
       style="stroke:#000000;stroke-opacity:1;fill:#ffffff" />
  </g>
  <text
     xml:space="preserve"
     style="font-style:normal;font-variant:normal;font-weight:normal;font-stretch:normal;font-size:72px;line-height:1.25;font-family:Impact;-inkscape-font-specification:Impact;letter-spacing:0px;word-spacing:0px;fill:#ffffff;fill-opacity:1;stroke:#000000;stroke-width:0.559587;stroke-opacity:1"
     x="377.31555"
     y="101.62719"
     id="text843"
     inkscape:export-xdpi="300"
     inkscape:export-ydpi="300"><tspan
       sodipodi:role="line"
       x="377.31555"
       y="101.62719"
       style="font-size:72px;fill:#ffffff;stroke:#000000;stroke-width:0.559587;stroke-opacity:1"
       id="tspan845">13  E - Py - Genetics</tspan></text>
  <g
     inkscape:export-ydpi="300"
     inkscape:export-xdpi="300"
     transform="matrix(0.43945397,0,0,0.43945397,1019.9278,42.126647)"
     id="g859"
     style="stroke:#000000;stroke-opacity:1;fill:#ffffff">
    <path
       id="path849"
       d="m 14.875,266.72266 c 5.519531,0 10,-4.51954 10,-10.04297 0.07031,-5.51953 -4.34375,-10.0586 -9.867188,-10.13282 -0.04297,0 -0.08984,0 -0.136718,0 -5.460938,0 -9.921875,4.39063 -9.996094,9.86719 v 0.35156 c 0,5.52344 4.476562,9.95704 10,9.95704 z m 0,0"
       style="stroke:#000000;stroke-opacity:1;fill:#ffffff" />
    <path
       id="path851"
       d="m 221.83594,309.03516 c 25.35937,-0.17969 46.49218,-18.42969 51.15234,-42.48829 h 19.88281 c 5.52344,0 10,-4.47656 10,-10 0,-5.52343 -4.47656,-10 -10,-10 h -19.88281 c -4.68359,-24.17968 -26.0039,-42.5 -51.53125,-42.5 -0.11328,0 -0.22265,0.008 -0.33594,0.0117 -6.15625,-13.26953 -14.65625,-25.48828 -25.29687,-36.125 l -31.83594,-31.83593 31.83594,-31.83203 C 218.62891,81.460938 232.79688,45.339844 232.79688,10 c 0,-5.523438 -4.47657,-10 -10,-10 -5.52344,0 -10,4.476562 -10,10 0,30.230469 -11.92188,60.933594 -31.11719,80.125 l -31.83203,31.83203 -16.8711,-16.87109 31.83203,-31.832034 C 182.63281,55.429688 188.95703,28.039062 188.95703,10 c 0,-5.523438 -4.47656,-10 -10,-10 -5.51953,0 -10,4.476562 -10,10 0,11.46875 -3.16406,26.179688 -10.03906,38.152344 H 76.796875 C 68.402344,37.277344 63.839844,24 63.839844,10 c 0,-5.523438 -4.476563,-10 -10,-10 -5.523438,0 -10,4.476562 -10,10 0,22.074219 8.574218,42.808594 24.148437,58.382812 L 181.67969,182.07422 c 7.8125,7.8125 14.25,16.63672 19.20703,26.17578 -7.58594,3.24219 -14.25391,8.22656 -19.51172,14.44141 -3.96484,-8.60547 -9.48437,-16.66407 -16.56641,-23.7461 L 51.117188,85.253906 C 31.050781,65.1875 20,38.464844 20,10 20,4.476562 15.523438,0 10,0 4.476562,0 0,4.476562 0,10 0,43.804688 13.132812,75.554688 36.972656,99.394531 L 73.679688,136.10156 41.847656,167.93359 C 27.640625,182.13672 17.296875,198.98437 11.101562,218 c -1.707031,5.25 1.160157,10.89453 6.414063,12.60547 1.027344,0.33203 2.070313,0.49219 3.097656,0.49219 4.214844,0 8.132813,-2.6836 9.507813,-6.90625 5.207031,-15.99219 13.910156,-30.16016 25.867187,-42.11719 l 31.832031,-31.83203 16.871098,16.87109 -31.832035,31.83203 C 57.289062,214.51562 48.714844,235.25 48.714844,257.32422 c 0,22.07812 8.574218,42.8125 24.144531,58.38281 L 142.77734,385.625 c 0.21094,0.21094 0.4336,0.40234 0.65625,0.58984 0.37891,0.58985 0.82032,1.15235 1.33985,1.66797 l 33.99219,33.99219 c 19.19531,19.19141 31.11718,49.89453 31.11718,80.125 0,5.52344 4.47657,10 10,10 5.51953,0 10,-4.47656 10,-10 0,-35.33984 -14.16797,-71.46094 -36.97656,-94.26563 l -29.04687,-29.05078 31.96484,-31.96093 c 11.05469,-11.0586 19.80078,-23.81641 26.01172,-37.6875 z M 96.042969,68.152344 H 141.625 L 118.83594,90.941406 Z M 253.95703,256.54687 c 0,15.3086 -10.64062,28.16797 -24.91016,31.59766 2.47657,-9.95703 3.75,-20.28906 3.75,-30.82031 0,-11.11719 -1.42968,-22.00781 -4.18359,-32.47266 14.48828,3.26953 25.34375,16.23438 25.34375,31.69531 z m -45.57031,-29.74609 c 2.90234,9.77344 4.41015,20.03125 4.41015,30.52344 0,10.0039 -1.37109,19.78906 -4.01171,29.14844 -11.64063,-4.94922 -19.82422,-16.5 -19.82422,-29.92579 -0.004,-13.27343 8,-24.70312 19.42578,-29.74609 z M 94.484375,309.04687 h 48.699215 l -24.34765,24.35157 z m -16.207031,-85 h 81.124996 c 4.32032,6.85547 7.23828,14.47266 8.6211,22.5 H 69.652344 c 1.367187,-7.87109 4.242187,-15.52343 8.625,-22.5 z m 90.011716,42.5 c -1.17187,7.99219 -3.86328,15.60547 -7.92578,22.5 H 77.308594 c -4.125,-7.01562 -6.761719,-14.66796 -7.917969,-22.5 z m -26.66015,-62.5 H 96.042969 l 22.792971,-22.78906 z m 8.21875,160.36329 -16.8711,-16.8711 31.83203,-31.83203 c 7.36719,-7.36328 13.02344,-15.79297 17.01953,-24.78516 5.34375,6.14844 12.08204,11.05079 19.72657,14.19532 -5.04297,10.03515 -11.71094,19.29687 -19.875,27.46093 z m 0,0"
       style="stroke:#000000;stroke-opacity:1;fill:#ffffff" />
    <path
       id="path853"
       d="m 127.17969,404.03125 c -0.35547,-0.51953 -0.75391,-1.01563 -1.21485,-1.47656 L 55.988281,332.57812 C 43.859375,320.44922 35.085938,306.05469 29.90625,289.79687 c -1.675781,-5.26562 -7.304688,-8.16796 -12.5625,-6.49218 -5.265625,1.67578 -8.171875,7.30078 -6.496094,12.5625 6.070313,19.0625 16.789063,36.64453 30.996094,50.85547 l 31.894531,31.89062 -29.121093,29.12109 C 21.8125,430.53906 7.644531,466.66016 7.644531,502 c 0,5.52344 4.476563,10 10,10 5.519531,0 10,-4.47656 10,-10 0,-30.23047 11.921875,-60.93359 31.117188,-80.125 L 87.882812,392.75391 104.75391,409.625 75.632812,438.74609 C 57.808594,456.57031 51.484375,483.96094 51.484375,502 c 0,5.52344 4.476563,10 10,10 5.519531,0 10,-4.47656 10,-10 0,-11.21875 3.039063,-25.51953 9.601563,-37.34375 h 74.859372 c 0.16406,0 0.32031,-0.0195 0.48047,-0.0234 6.57422,11.82813 9.61719,26.14453 9.61719,37.36719 0,5.52344 4.47656,10 10,10 5.51953,0 10,-4.47656 10,-10 0,-18.03906 -6.32422,-45.42969 -24.14844,-63.25391 z m -8.41797,19.86719 20.75781,20.75781 H 98.007812 Z m 0,0"
       style="stroke:#000000;stroke-opacity:1;fill:#ffffff" />
    <path
       id="path855"
       d="m 483.86328,256.58984 26.79688,-46.41406 c 1.78515,-3.09375 1.78515,-6.90625 0,-10 l -29.6836,-51.41406 c -1.78906,-3.09375 -5.08984,-5 -8.66015,-5 h -54.9336 L 390.58594,97.347656 c -1.78907,-3.09375 -5.08985,-5 -8.66016,-5 h -59.37109 c -3.57032,0 -6.8711,1.90625 -8.66016,5 L 287.09766,143.76172 H 236.1875 c -5.52344,0 -10,4.47656 -10,10 0,5.51953 4.47656,10 10,10 h 50.91016 l 26.79687,46.41406 c 1.78906,3.09375 5.08984,5 8.66016,5 h 53.8164 l 24.46875,42.38281 -23.35156,40.44922 h -54.93359 c -3.57032,0 -6.875,1.90235 -8.66016,5 l -29.68359,51.41407 c -1.78516,3.09375 -1.78516,6.90625 0,10 l 29.68359,51.41406 c 1.78516,3.09375 5.08984,5 8.66016,5 h 59.36718 c 3.57422,0 6.875,-1.90625 8.66016,-5 l 26.80078,-46.41406 h 54.92969 c 3.57422,0 6.875,-1.90625 8.66016,-5 l 29.6875,-51.41407 c 1.78515,-3.09765 1.78515,-6.90625 0,-10 z m 6.58984,-51.41406 -23.91015,41.41406 h -48.9375 l -24.02344,-41.60546 23.80078,-41.22266 h 49.15625 z m -186.03515,-51.41406 23.91015,-41.41406 h 47.82422 l 23.91016,41.41406 -23.91016,41.41406 h -47.82422 z m 71.73437,247.07422 h -47.82422 l -23.91015,-41.41406 23.91015,-41.41407 h 47.82422 l 23.91016,41.41407 z m 90.39063,-51.41406 h -47.82031 l -23.91407,-41.41407 23.91407,-41.41797 h 47.82031 l 23.91015,41.41797 z m 0,0"
       style="stroke:#000000;stroke-opacity:1;fill:#ffffff" />
    <path
       id="path857"
       d="m 330.32812,266.55078 c 2.64063,0 5.21094,-1.07031 7.07032,-2.92969 1.87109,-1.85937 2.92968,-4.4414 2.92968,-7.07031 0,-2.64062 -1.05859,-5.21094 -2.92968,-7.07031 -1.85938,-1.8711 -4.4375,-2.92969 -7.07032,-2.92969 -2.6289,0 -5.20703,1.05859 -7.0664,2.92969 -1.86328,1.85937 -2.9336,4.42969 -2.9336,7.07031 0,2.62891 1.07032,5.21094 2.9336,7.07031 1.85937,1.85938 4.4375,2.92969 7.0664,2.92969 z m 0,0"
       style="stroke:#000000;stroke-opacity:1;fill:#ffffff" />
  </g>
</svg>
