<svg height="512pt" viewBox="0 0 512 512" width="512pt" xmlns="http://www.w3.org/2000/svg"><path d="m14.875 266.722656c5.519531 0 10-4.519531 10-10.042968.070312-5.519532-4.34375-10.058594-9.867188-10.132813-.042968 0-.089843 0-.136718 0-5.460938 0-9.921875 4.390625-9.996094 9.867187v.351563c0 5.523437 4.476562 9.957031 10 9.957031zm0 0"/><path d="m221.835938 309.035156c25.359374-.179687 46.492187-18.429687 51.152343-42.488281h19.882813c5.523437 0 10-4.476563 10-10s-4.476563-10-10-10h-19.882813c-4.683593-24.179687-26.003906-42.5-51.53125-42.5-.113281 0-.222656.007813-.335937.011719-6.15625-13.269532-14.65625-25.488282-25.296875-36.125l-31.835938-31.835938 31.835938-31.832031c22.804687-22.804687 36.972656-58.925781 36.972656-94.265625 0-5.523438-4.476563-10-10-10s-10 4.476562-10 10c0 30.230469-11.921875 60.933594-31.117187 80.125l-31.832032 31.832031-16.871094-16.871093 31.832032-31.832032c17.824218-17.824218 24.148437-45.214844 24.148437-63.253906 0-5.523438-4.476562-10-10-10-5.519531 0-10 4.476562-10 10 0 11.46875-3.164062 26.179688-10.039062 38.152344h-82.121094c-8.394531-10.875-12.957031-24.152344-12.957031-38.152344 0-5.523438-4.476563-10-10-10-5.523438 0-10 4.476562-10 10 0 22.074219 8.574218 42.808594 24.148437 58.382812l113.691407 113.691407c7.8125 7.8125 14.25 16.636719 19.207031 26.175781-7.585938 3.242188-14.253907 8.226562-19.511719 14.441406-3.964844-8.605468-9.484375-16.664062-16.566406-23.746094l-113.691406-113.691406c-20.066407-20.066406-31.117188-46.789062-31.117188-75.253906 0-5.523438-4.476562-10-10-10s-10 4.476562-10 10c0 33.804688 13.132812 65.554688 36.972656 89.394531l36.707032 36.707031-31.832032 31.832032c-14.207031 14.203125-24.550781 31.050781-30.746094 50.066406-1.707031 5.25 1.160157 10.894531 6.414063 12.605469 1.027344.332031 2.070313.492187 3.097656.492187 4.214844 0 8.132813-2.683594 9.507813-6.90625 5.207031-15.992187 13.910156-30.160156 25.867187-42.117187l31.832031-31.832031 16.871094 16.871093-31.832031 31.832031c-15.570313 15.570313-24.144531 36.304688-24.144531 58.378907 0 22.078125 8.574218 42.8125 24.144531 58.382812l69.917969 69.917969c.210937.210938.433594.402344.65625.589844.378906.589844.820312 1.152344 1.339844 1.667968l33.992187 33.992188c19.195313 19.191406 31.117187 49.894531 31.117187 80.125 0 5.523438 4.476563 10 10 10 5.519532 0 10-4.476562 10-10 0-35.339844-14.167968-71.460938-36.976562-94.265625l-29.046875-29.050781 31.964844-31.960938c11.054687-11.058594 19.800781-23.816406 26.011719-37.6875zm-125.792969-240.882812h45.582031l-22.789062 22.789062zm157.914062 188.394531c0 15.308594-10.640625 28.167969-24.910156 31.597656 2.476563-9.957031 3.75-20.289062 3.75-30.820312 0-11.117188-1.429687-22.007813-4.183594-32.472657 14.488281 3.269532 25.34375 16.234376 25.34375 31.695313zm-45.570312-29.746094c2.902343 9.773438 4.410156 20.03125 4.410156 30.523438 0 10.003906-1.371094 19.789062-4.011719 29.148437-11.640625-4.949218-19.824218-16.5-19.824218-29.925781-.003907-13.273437 8-24.703125 19.425781-29.746094zm-113.902344 82.246094h48.699219l-24.347656 24.351563zm-16.207031-85h81.125c4.320312 6.855469 7.238281 14.472656 8.621094 22.5h-98.371094c1.367187-7.871094 4.242187-15.523437 8.625-22.5zm90.011718 42.5c-1.171874 7.992187-3.863281 15.605469-7.925781 22.5h-83.054687c-4.125-7.015625-6.761719-14.667969-7.917969-22.5zm-26.660156-62.5h-45.585937l22.792969-22.789063zm8.21875 160.363281-16.871094-16.871094 31.832032-31.832031c7.367187-7.363281 13.023437-15.792969 17.019531-24.785156 5.34375 6.148437 12.082031 11.050781 19.726563 14.195313-5.042969 10.035156-11.710938 19.296874-19.875 27.460937zm0 0"/><path d="m127.179688 404.03125c-.355469-.519531-.753907-1.015625-1.214844-1.476562l-69.976563-69.976563c-12.128906-12.128906-20.902343-26.523437-26.082031-42.78125-1.675781-5.265625-7.304688-8.167969-12.5625-6.492187-5.265625 1.675781-8.171875 7.300781-6.496094 12.5625 6.070313 19.0625 16.789063 36.644531 30.996094 50.855468l31.894531 31.890625-29.121093 29.121094c-22.804688 22.804687-36.972657 58.925781-36.972657 94.265625 0 5.523438 4.476563 10 10 10 5.519531 0 10-4.476562 10-10 0-30.230469 11.921875-60.933594 31.117188-80.125l29.121093-29.121094 16.871094 16.871094-29.121094 29.121094c-17.824218 17.824218-24.148437 45.214844-24.148437 63.253906 0 5.523438 4.476563 10 10 10 5.519531 0 10-4.476562 10-10 0-11.21875 3.039063-25.519531 9.601563-37.34375h74.859374c.164063 0 .320313-.019531.480469-.023438 6.574219 11.828126 9.617188 26.144532 9.617188 37.367188 0 5.523438 4.476562 10 10 10 5.519531 0 10-4.476562 10-10 0-18.039062-6.324219-45.429688-24.148438-63.253906zm-8.417969 19.867188 20.757812 20.757812h-41.511719zm0 0"/><path d="m483.863281 256.589844 26.796875-46.414063c1.785156-3.09375 1.785156-6.90625 0-10l-29.683594-51.414062c-1.789062-3.09375-5.089843-5-8.660156-5h-54.933594l-26.796874-46.414063c-1.789063-3.09375-5.089844-5-8.660157-5h-59.371093c-3.570313 0-6.871094 1.90625-8.660157 5l-26.796875 46.414063h-50.910156c-5.523438 0-10 4.476562-10 10 0 5.519531 4.476562 10 10 10h50.910156l26.796875 46.414062c1.789063 3.09375 5.089844 5 8.660157 5h53.816406l24.46875 42.382813-23.351563 40.449218h-54.933593c-3.570313 0-6.875 1.902344-8.660157 5l-29.683593 51.414063c-1.785157 3.09375-1.785157 6.90625 0 10l29.683593 51.414063c1.785157 3.09375 5.089844 5 8.660157 5h59.367187c3.574219 0 6.875-1.90625 8.660156-5l26.800781-46.414063h54.929688c3.574219 0 6.875-1.90625 8.660156-5l29.6875-51.414063c1.785156-3.097656 1.785156-6.90625 0-10zm6.589844-51.414063-23.910156 41.414063h-48.9375l-24.023438-41.605469 23.800781-41.222656h49.15625zm-186.035156-51.414062 23.910156-41.414063h47.824219l23.910156 41.414063-23.910156 41.414062h-47.824219zm71.734375 247.074219h-47.824219l-23.910156-41.414063 23.910156-41.414063h47.824219l23.910156 41.414063zm90.390625-51.414063h-47.820313l-23.914062-41.414063 23.914062-41.417968h47.820313l23.910156 41.417968zm0 0"/><path d="m330.328125 266.550781c2.640625 0 5.210937-1.070312 7.070313-2.929687 1.871093-1.859375 2.929687-4.441406 2.929687-7.070313 0-2.640625-1.058594-5.210937-2.929687-7.070312-1.859376-1.871094-4.4375-2.929688-7.070313-2.929688-2.628906 0-5.207031 1.058594-7.066406 2.929688-1.863281 1.859375-2.933594 4.429687-2.933594 7.070312 0 2.628907 1.070313 5.210938 2.933594 7.070313 1.859375 1.859375 4.4375 2.929687 7.066406 2.929687zm0 0"/></svg>