<?xml version="1.0" encoding="utf-8" standalone="no"?>
<!DOCTYPE svg PUBLIC "-//W3C//DTD SVG 1.1//EN"
  "http://www.w3.org/Graphics/SVG/1.1/DTD/svg11.dtd">
<!-- Created with matplotlib (https://matplotlib.org/) -->
<svg height="493.201719pt" version="1.1" viewBox="0 0 847.176797 493.201719" width="847.176797pt" xmlns="http://www.w3.org/2000/svg" xmlns:xlink="http://www.w3.org/1999/xlink">
 <defs>
  <style type="text/css">
*{stroke-linecap:butt;stroke-linejoin:round;}
  </style>
 </defs>
 <g id="figure_1">
  <g id="patch_1">
   <path d="M 0 493.201719 
L 847.176797 493.201719 
L 847.176797 0 
L 0 0 
z
" style="fill:none;"/>
  </g>
  <g id="axes_1">
   <g id="patch_2">
    <path d="M 64.662891 461.0175 
L 734.262891 461.0175 
L 734.262891 26.1375 
L 64.662891 26.1375 
z
" style="fill:none;"/>
   </g>
   <g id="matplotlib.axis_1">
    <g id="xtick_1">
     <g id="text_1">
      <!-- Modified -->
      <defs>
       <path d="M 7.078125 0 
L 7.078125 71.578125 
L 28.71875 71.578125 
L 41.703125 22.75 
L 54.546875 71.578125 
L 76.21875 71.578125 
L 76.21875 0 
L 62.796875 0 
L 62.796875 56.34375 
L 48.578125 0 
L 34.671875 0 
L 20.515625 56.34375 
L 20.515625 0 
z
" id="Arial-BoldMT-77"/>
       <path d="M 4 26.65625 
Q 4 33.5 7.375 39.890625 
Q 10.75 46.296875 16.921875 49.65625 
Q 23.09375 53.03125 30.71875 53.03125 
Q 42.484375 53.03125 50 45.390625 
Q 57.515625 37.75 57.515625 26.078125 
Q 57.515625 14.3125 49.921875 6.5625 
Q 42.328125 -1.171875 30.8125 -1.171875 
Q 23.6875 -1.171875 17.21875 2.046875 
Q 10.75 5.28125 7.375 11.5 
Q 4 17.71875 4 26.65625 
z
M 18.0625 25.921875 
Q 18.0625 18.21875 21.71875 14.109375 
Q 25.390625 10.015625 30.765625 10.015625 
Q 36.140625 10.015625 39.765625 14.109375 
Q 43.40625 18.21875 43.40625 26.03125 
Q 43.40625 33.640625 39.765625 37.734375 
Q 36.140625 41.84375 30.765625 41.84375 
Q 25.390625 41.84375 21.71875 37.734375 
Q 18.0625 33.640625 18.0625 25.921875 
z
" id="Arial-BoldMT-111"/>
       <path d="M 54.734375 0 
L 42 0 
L 42 7.625 
Q 38.8125 3.171875 34.484375 1 
Q 30.171875 -1.171875 25.78125 -1.171875 
Q 16.84375 -1.171875 10.46875 6.03125 
Q 4.109375 13.234375 4.109375 26.125 
Q 4.109375 39.3125 10.296875 46.171875 
Q 16.5 53.03125 25.984375 53.03125 
Q 34.671875 53.03125 41.015625 45.796875 
L 41.015625 71.578125 
L 54.734375 71.578125 
z
M 18.109375 27.046875 
Q 18.109375 18.75 20.40625 15.046875 
Q 23.734375 9.671875 29.6875 9.671875 
Q 34.421875 9.671875 37.734375 13.6875 
Q 41.0625 17.71875 41.0625 25.734375 
Q 41.0625 34.671875 37.84375 38.59375 
Q 34.625 42.53125 29.59375 42.53125 
Q 24.703125 42.53125 21.40625 38.640625 
Q 18.109375 34.765625 18.109375 27.046875 
z
" id="Arial-BoldMT-100"/>
       <path d="M 7.171875 58.890625 
L 7.171875 71.578125 
L 20.90625 71.578125 
L 20.90625 58.890625 
z
M 7.171875 0 
L 7.171875 51.859375 
L 20.90625 51.859375 
L 20.90625 0 
z
" id="Arial-BoldMT-105"/>
       <path d="M 1.171875 51.859375 
L 8.796875 51.859375 
L 8.796875 55.765625 
Q 8.796875 62.3125 10.1875 65.53125 
Q 11.578125 68.75 15.3125 70.765625 
Q 19.046875 72.796875 24.75 72.796875 
Q 30.609375 72.796875 36.234375 71.046875 
L 34.375 61.46875 
Q 31.109375 62.25 28.078125 62.25 
Q 25.09375 62.25 23.796875 60.859375 
Q 22.515625 59.46875 22.515625 55.515625 
L 22.515625 51.859375 
L 32.765625 51.859375 
L 32.765625 41.0625 
L 22.515625 41.0625 
L 22.515625 0 
L 8.796875 0 
L 8.796875 41.0625 
L 1.171875 41.0625 
z
" id="Arial-BoldMT-102"/>
       <path d="M 37.203125 16.5 
L 50.875 14.203125 
Q 48.25 6.6875 42.546875 2.75 
Q 36.859375 -1.171875 28.328125 -1.171875 
Q 14.796875 -1.171875 8.296875 7.671875 
Q 3.171875 14.75 3.171875 25.53125 
Q 3.171875 38.421875 9.90625 45.71875 
Q 16.65625 53.03125 26.953125 53.03125 
Q 38.53125 53.03125 45.21875 45.390625 
Q 51.90625 37.75 51.609375 21.96875 
L 17.234375 21.96875 
Q 17.390625 15.875 20.5625 12.46875 
Q 23.734375 9.078125 28.46875 9.078125 
Q 31.6875 9.078125 33.875 10.828125 
Q 36.078125 12.59375 37.203125 16.5 
z
M 37.984375 30.375 
Q 37.84375 36.328125 34.90625 39.421875 
Q 31.984375 42.53125 27.78125 42.53125 
Q 23.296875 42.53125 20.359375 39.265625 
Q 17.4375 35.984375 17.484375 30.375 
z
" id="Arial-BoldMT-101"/>
      </defs>
      <g style="fill:#262626;" transform="translate(142.355391 482.327891)scale(0.165 -0.165)">
       <use xlink:href="#Arial-BoldMT-77"/>
       <use x="83.300781" xlink:href="#Arial-BoldMT-111"/>
       <use x="144.384766" xlink:href="#Arial-BoldMT-100"/>
       <use x="205.46875" xlink:href="#Arial-BoldMT-105"/>
       <use x="233.251953" xlink:href="#Arial-BoldMT-102"/>
       <use x="266.552734" xlink:href="#Arial-BoldMT-105"/>
       <use x="294.335938" xlink:href="#Arial-BoldMT-101"/>
       <use x="349.951172" xlink:href="#Arial-BoldMT-100"/>
      </g>
     </g>
    </g>
    <g id="xtick_2">
     <g id="text_2">
      <!-- Modified Neighbour -->
      <defs>
       <path id="Arial-BoldMT-32"/>
       <path d="M 7.421875 0 
L 7.421875 71.578125 
L 21.484375 71.578125 
L 50.78125 23.78125 
L 50.78125 71.578125 
L 64.203125 71.578125 
L 64.203125 0 
L 49.703125 0 
L 20.84375 46.6875 
L 20.84375 0 
z
" id="Arial-BoldMT-78"/>
       <path d="M 5.90625 -3.421875 
L 21.578125 -5.328125 
Q 21.96875 -8.0625 23.390625 -9.078125 
Q 25.34375 -10.546875 29.546875 -10.546875 
Q 34.90625 -10.546875 37.59375 -8.9375 
Q 39.40625 -7.859375 40.328125 -5.46875 
Q 40.96875 -3.765625 40.96875 0.828125 
L 40.96875 8.40625 
Q 34.8125 0 25.4375 0 
Q 14.984375 0 8.890625 8.84375 
Q 4.109375 15.828125 4.109375 26.21875 
Q 4.109375 39.265625 10.375 46.140625 
Q 16.65625 53.03125 25.984375 53.03125 
Q 35.59375 53.03125 41.84375 44.578125 
L 41.84375 51.859375 
L 54.6875 51.859375 
L 54.6875 5.328125 
Q 54.6875 -3.859375 53.171875 -8.390625 
Q 51.65625 -12.9375 48.921875 -15.515625 
Q 46.1875 -18.109375 41.625 -19.578125 
Q 37.0625 -21.046875 30.078125 -21.046875 
Q 16.890625 -21.046875 11.375 -16.53125 
Q 5.859375 -12.015625 5.859375 -5.078125 
Q 5.859375 -4.390625 5.90625 -3.421875 
z
M 18.171875 27 
Q 18.171875 18.75 21.359375 14.90625 
Q 24.5625 11.078125 29.25 11.078125 
Q 34.28125 11.078125 37.75 15.015625 
Q 41.21875 18.953125 41.21875 26.65625 
Q 41.21875 34.71875 37.890625 38.625 
Q 34.578125 42.53125 29.5 42.53125 
Q 24.5625 42.53125 21.359375 38.6875 
Q 18.171875 34.859375 18.171875 27 
z
" id="Arial-BoldMT-103"/>
       <path d="M 20.84375 71.578125 
L 20.84375 45.265625 
Q 27.484375 53.03125 36.71875 53.03125 
Q 41.453125 53.03125 45.265625 51.265625 
Q 49.078125 49.515625 51 46.78125 
Q 52.9375 44.046875 53.640625 40.71875 
Q 54.34375 37.40625 54.34375 30.421875 
L 54.34375 0 
L 40.625 0 
L 40.625 27.390625 
Q 40.625 35.546875 39.84375 37.734375 
Q 39.0625 39.9375 37.078125 41.234375 
Q 35.109375 42.53125 32.125 42.53125 
Q 28.71875 42.53125 26.03125 40.859375 
Q 23.34375 39.203125 22.09375 35.859375 
Q 20.84375 32.515625 20.84375 25.984375 
L 20.84375 0 
L 7.125 0 
L 7.125 71.578125 
z
" id="Arial-BoldMT-104"/>
       <path d="M 6.59375 0 
L 6.59375 71.578125 
L 20.3125 71.578125 
L 20.3125 45.796875 
Q 26.65625 53.03125 35.359375 53.03125 
Q 44.828125 53.03125 51.03125 46.171875 
Q 57.234375 39.3125 57.234375 26.46875 
Q 57.234375 13.1875 50.90625 6 
Q 44.578125 -1.171875 35.546875 -1.171875 
Q 31.109375 -1.171875 26.78125 1.046875 
Q 22.46875 3.265625 19.34375 7.625 
L 19.34375 0 
z
M 20.21875 27.046875 
Q 20.21875 19 22.75 15.140625 
Q 26.3125 9.671875 32.234375 9.671875 
Q 36.765625 9.671875 39.96875 13.546875 
Q 43.171875 17.4375 43.171875 25.78125 
Q 43.171875 34.671875 39.9375 38.59375 
Q 36.71875 42.53125 31.6875 42.53125 
Q 26.765625 42.53125 23.484375 38.6875 
Q 20.21875 34.859375 20.21875 27.046875 
z
" id="Arial-BoldMT-98"/>
       <path d="M 41.3125 0 
L 41.3125 7.765625 
Q 38.484375 3.609375 33.859375 1.21875 
Q 29.25 -1.171875 24.125 -1.171875 
Q 18.890625 -1.171875 14.734375 1.125 
Q 10.59375 3.421875 8.734375 7.5625 
Q 6.890625 11.71875 6.890625 19.046875 
L 6.890625 51.859375 
L 20.609375 51.859375 
L 20.609375 28.03125 
Q 20.609375 17.09375 21.359375 14.625 
Q 22.125 12.15625 24.125 10.71875 
Q 26.125 9.28125 29.203125 9.28125 
Q 32.71875 9.28125 35.5 11.203125 
Q 38.28125 13.140625 39.296875 15.984375 
Q 40.328125 18.84375 40.328125 29.984375 
L 40.328125 51.859375 
L 54.046875 51.859375 
L 54.046875 0 
z
" id="Arial-BoldMT-117"/>
       <path d="M 20.3125 0 
L 6.59375 0 
L 6.59375 51.859375 
L 19.34375 51.859375 
L 19.34375 44.484375 
Q 22.609375 49.703125 25.21875 51.359375 
Q 27.828125 53.03125 31.15625 53.03125 
Q 35.84375 53.03125 40.1875 50.4375 
L 35.9375 38.484375 
Q 32.46875 40.71875 29.5 40.71875 
Q 26.609375 40.71875 24.609375 39.125 
Q 22.609375 37.546875 21.453125 33.390625 
Q 20.3125 29.25 20.3125 16.015625 
z
" id="Arial-BoldMT-114"/>
      </defs>
      <g style="fill:#262626;" transform="translate(322.019883 482.528984)scale(0.165 -0.165)">
       <use xlink:href="#Arial-BoldMT-77"/>
       <use x="83.300781" xlink:href="#Arial-BoldMT-111"/>
       <use x="144.384766" xlink:href="#Arial-BoldMT-100"/>
       <use x="205.46875" xlink:href="#Arial-BoldMT-105"/>
       <use x="233.251953" xlink:href="#Arial-BoldMT-102"/>
       <use x="266.552734" xlink:href="#Arial-BoldMT-105"/>
       <use x="294.335938" xlink:href="#Arial-BoldMT-101"/>
       <use x="349.951172" xlink:href="#Arial-BoldMT-100"/>
       <use x="411.035156" xlink:href="#Arial-BoldMT-32"/>
       <use x="438.818359" xlink:href="#Arial-BoldMT-78"/>
       <use x="511.035156" xlink:href="#Arial-BoldMT-101"/>
       <use x="566.650391" xlink:href="#Arial-BoldMT-105"/>
       <use x="594.433594" xlink:href="#Arial-BoldMT-103"/>
       <use x="655.517578" xlink:href="#Arial-BoldMT-104"/>
       <use x="716.601562" xlink:href="#Arial-BoldMT-98"/>
       <use x="777.685547" xlink:href="#Arial-BoldMT-111"/>
       <use x="838.769531" xlink:href="#Arial-BoldMT-117"/>
       <use x="899.853516" xlink:href="#Arial-BoldMT-114"/>
      </g>
     </g>
    </g>
    <g id="xtick_3">
     <g id="text_3">
      <!-- Unmodified -->
      <defs>
       <path d="M 7.171875 71.578125 
L 21.625 71.578125 
L 21.625 32.8125 
Q 21.625 23.578125 22.171875 20.84375 
Q 23.09375 16.453125 26.578125 13.796875 
Q 30.078125 11.140625 36.140625 11.140625 
Q 42.28125 11.140625 45.40625 13.640625 
Q 48.53125 16.15625 49.171875 19.8125 
Q 49.8125 23.484375 49.8125 31.984375 
L 49.8125 71.578125 
L 64.265625 71.578125 
L 64.265625 33.984375 
Q 64.265625 21.09375 63.09375 15.765625 
Q 61.921875 10.453125 58.765625 6.78125 
Q 55.609375 3.125 50.328125 0.953125 
Q 45.0625 -1.21875 36.578125 -1.21875 
Q 26.3125 -1.21875 21.015625 1.140625 
Q 15.71875 3.515625 12.640625 7.296875 
Q 9.578125 11.078125 8.59375 15.234375 
Q 7.171875 21.390625 7.171875 33.40625 
z
" id="Arial-BoldMT-85"/>
       <path d="M 54.34375 0 
L 40.625 0 
L 40.625 26.46875 
Q 40.625 34.859375 39.75 37.328125 
Q 38.875 39.796875 36.890625 41.15625 
Q 34.90625 42.53125 32.125 42.53125 
Q 28.5625 42.53125 25.734375 40.578125 
Q 22.90625 38.625 21.84375 35.390625 
Q 20.796875 32.171875 20.796875 23.484375 
L 20.796875 0 
L 7.078125 0 
L 7.078125 51.859375 
L 19.828125 51.859375 
L 19.828125 44.234375 
Q 26.609375 53.03125 36.921875 53.03125 
Q 41.453125 53.03125 45.203125 51.390625 
Q 48.96875 49.75 50.890625 47.203125 
Q 52.828125 44.671875 53.578125 41.453125 
Q 54.34375 38.234375 54.34375 32.234375 
z
" id="Arial-BoldMT-110"/>
       <path d="M 6.15625 51.859375 
L 18.796875 51.859375 
L 18.796875 44.78125 
Q 25.59375 53.03125 34.96875 53.03125 
Q 39.9375 53.03125 43.59375 50.96875 
Q 47.265625 48.921875 49.609375 44.78125 
Q 53.03125 48.921875 56.984375 50.96875 
Q 60.9375 53.03125 65.4375 53.03125 
Q 71.140625 53.03125 75.09375 50.703125 
Q 79.046875 48.390625 81 43.890625 
Q 82.421875 40.578125 82.421875 33.15625 
L 82.421875 0 
L 68.703125 0 
L 68.703125 29.640625 
Q 68.703125 37.359375 67.28125 39.59375 
Q 65.375 42.53125 61.421875 42.53125 
Q 58.546875 42.53125 56 40.765625 
Q 53.46875 39.015625 52.34375 35.625 
Q 51.21875 32.234375 51.21875 24.90625 
L 51.21875 0 
L 37.5 0 
L 37.5 28.421875 
Q 37.5 35.984375 36.765625 38.171875 
Q 36.03125 40.375 34.484375 41.453125 
Q 32.953125 42.53125 30.328125 42.53125 
Q 27.15625 42.53125 24.609375 40.8125 
Q 22.078125 39.109375 20.96875 35.890625 
Q 19.875 32.671875 19.875 25.203125 
L 19.875 0 
L 6.15625 0 
z
" id="Arial-BoldMT-109"/>
      </defs>
      <g style="fill:#262626;" transform="translate(577.294336 482.327891)scale(0.165 -0.165)">
       <use xlink:href="#Arial-BoldMT-85"/>
       <use x="72.216797" xlink:href="#Arial-BoldMT-110"/>
       <use x="133.300781" xlink:href="#Arial-BoldMT-109"/>
       <use x="222.216797" xlink:href="#Arial-BoldMT-111"/>
       <use x="283.300781" xlink:href="#Arial-BoldMT-100"/>
       <use x="344.384766" xlink:href="#Arial-BoldMT-105"/>
       <use x="372.167969" xlink:href="#Arial-BoldMT-102"/>
       <use x="405.46875" xlink:href="#Arial-BoldMT-105"/>
       <use x="433.251953" xlink:href="#Arial-BoldMT-101"/>
       <use x="488.867188" xlink:href="#Arial-BoldMT-100"/>
      </g>
     </g>
    </g>
   </g>
   <g id="matplotlib.axis_2">
    <g id="ytick_1">
     <g id="text_4">
      <!-- 60 -->
      <defs>
       <path d="M 50.734375 54.046875 
L 37.453125 52.59375 
Q 36.96875 56.6875 34.90625 58.640625 
Q 32.859375 60.59375 29.59375 60.59375 
Q 25.25 60.59375 22.234375 56.6875 
Q 19.234375 52.78125 18.453125 40.4375 
Q 23.578125 46.484375 31.203125 46.484375 
Q 39.796875 46.484375 45.921875 39.9375 
Q 52.046875 33.40625 52.046875 23.046875 
Q 52.046875 12.0625 45.59375 5.421875 
Q 39.15625 -1.21875 29.046875 -1.21875 
Q 18.21875 -1.21875 11.234375 7.203125 
Q 4.25 15.625 4.25 34.8125 
Q 4.25 54.5 11.515625 63.1875 
Q 18.796875 71.875 30.421875 71.875 
Q 38.578125 71.875 43.921875 67.3125 
Q 49.265625 62.75 50.734375 54.046875 
z
M 19.625 24.125 
Q 19.625 17.4375 22.703125 13.796875 
Q 25.78125 10.15625 29.734375 10.15625 
Q 33.546875 10.15625 36.078125 13.125 
Q 38.625 16.109375 38.625 22.90625 
Q 38.625 29.890625 35.890625 33.125 
Q 33.15625 36.375 29.046875 36.375 
Q 25.09375 36.375 22.359375 33.265625 
Q 19.625 30.171875 19.625 24.125 
z
" id="Arial-BoldMT-54"/>
       <path d="M 27.4375 71.875 
Q 37.84375 71.875 43.703125 64.453125 
Q 50.6875 55.671875 50.6875 35.296875 
Q 50.6875 14.984375 43.65625 6.109375 
Q 37.84375 -1.21875 27.4375 -1.21875 
Q 17 -1.21875 10.59375 6.8125 
Q 4.203125 14.84375 4.203125 35.453125 
Q 4.203125 55.671875 11.234375 64.546875 
Q 17.046875 71.875 27.4375 71.875 
z
M 27.4375 60.5 
Q 24.953125 60.5 23 58.90625 
Q 21.046875 57.328125 19.96875 53.21875 
Q 18.5625 47.90625 18.5625 35.296875 
Q 18.5625 22.703125 19.828125 17.984375 
Q 21.09375 13.28125 23.015625 11.71875 
Q 24.953125 10.15625 27.4375 10.15625 
Q 29.9375 10.15625 31.890625 11.734375 
Q 33.84375 13.328125 34.90625 17.4375 
Q 36.328125 22.703125 36.328125 35.296875 
Q 36.328125 47.90625 35.0625 52.609375 
Q 33.796875 57.328125 31.859375 58.90625 
Q 29.9375 60.5 27.4375 60.5 
z
" id="Arial-BoldMT-48"/>
      </defs>
      <g style="fill:#262626;" transform="translate(36.811797 464.432627)scale(0.165 -0.165)">
       <use xlink:href="#Arial-BoldMT-54"/>
       <use x="55.615234" xlink:href="#Arial-BoldMT-48"/>
      </g>
     </g>
    </g>
    <g id="ytick_2">
     <g id="text_5">
      <!-- 80 -->
      <defs>
       <path d="M 16.015625 38.625 
Q 10.6875 40.875 8.265625 44.796875 
Q 5.859375 48.734375 5.859375 53.421875 
Q 5.859375 61.421875 11.453125 66.640625 
Q 17.046875 71.875 27.34375 71.875 
Q 37.546875 71.875 43.1875 66.640625 
Q 48.828125 61.421875 48.828125 53.421875 
Q 48.828125 48.4375 46.234375 44.546875 
Q 43.65625 40.671875 38.96875 38.625 
Q 44.921875 36.234375 48.015625 31.640625 
Q 51.125 27.046875 51.125 21.046875 
Q 51.125 11.140625 44.796875 4.9375 
Q 38.484375 -1.265625 27.984375 -1.265625 
Q 18.21875 -1.265625 11.71875 3.859375 
Q 4.046875 9.90625 4.046875 20.453125 
Q 4.046875 26.265625 6.921875 31.125 
Q 9.8125 35.984375 16.015625 38.625 
z
M 18.84375 52.4375 
Q 18.84375 48.34375 21.15625 46.046875 
Q 23.484375 43.75 27.34375 43.75 
Q 31.25 43.75 33.59375 46.0625 
Q 35.9375 48.390625 35.9375 52.484375 
Q 35.9375 56.34375 33.609375 58.65625 
Q 31.296875 60.984375 27.484375 60.984375 
Q 23.53125 60.984375 21.1875 58.640625 
Q 18.84375 56.296875 18.84375 52.4375 
z
M 17.578125 21.78125 
Q 17.578125 16.109375 20.484375 12.9375 
Q 23.390625 9.765625 27.734375 9.765625 
Q 31.984375 9.765625 34.765625 12.8125 
Q 37.546875 15.875 37.546875 21.625 
Q 37.546875 26.65625 34.71875 29.703125 
Q 31.890625 32.765625 27.546875 32.765625 
Q 22.515625 32.765625 20.046875 29.296875 
Q 17.578125 25.828125 17.578125 21.78125 
z
" id="Arial-BoldMT-56"/>
      </defs>
      <g style="fill:#262626;" transform="translate(36.811797 376.974199)scale(0.165 -0.165)">
       <use xlink:href="#Arial-BoldMT-56"/>
       <use x="55.615234" xlink:href="#Arial-BoldMT-48"/>
      </g>
     </g>
    </g>
    <g id="ytick_3">
     <g id="text_6">
      <!-- 100 -->
      <defs>
       <path d="M 39.359375 0 
L 25.640625 0 
L 25.640625 51.703125 
Q 18.109375 44.671875 7.90625 41.3125 
L 7.90625 53.765625 
Q 13.28125 55.515625 19.578125 60.421875 
Q 25.875 65.328125 28.21875 71.875 
L 39.359375 71.875 
z
" id="Arial-BoldMT-49"/>
      </defs>
      <g style="fill:#262626;" transform="translate(27.63625 289.51577)scale(0.165 -0.165)">
       <use xlink:href="#Arial-BoldMT-49"/>
       <use x="55.615234" xlink:href="#Arial-BoldMT-48"/>
       <use x="111.230469" xlink:href="#Arial-BoldMT-48"/>
      </g>
     </g>
    </g>
    <g id="ytick_4">
     <g id="text_7">
      <!-- 120 -->
      <defs>
       <path d="M 50.59375 12.75 
L 50.59375 0 
L 2.484375 0 
Q 3.265625 7.234375 7.171875 13.703125 
Q 11.078125 20.171875 22.609375 30.859375 
Q 31.890625 39.5 33.984375 42.578125 
Q 36.8125 46.828125 36.8125 50.984375 
Q 36.8125 55.5625 34.34375 58.03125 
Q 31.890625 60.5 27.546875 60.5 
Q 23.25 60.5 20.703125 57.90625 
Q 18.171875 55.328125 17.78125 49.3125 
L 4.109375 50.6875 
Q 5.328125 62.015625 11.765625 66.9375 
Q 18.21875 71.875 27.875 71.875 
Q 38.484375 71.875 44.53125 66.15625 
Q 50.59375 60.453125 50.59375 51.953125 
Q 50.59375 47.125 48.859375 42.75 
Q 47.125 38.375 43.359375 33.59375 
Q 40.875 30.421875 34.375 24.453125 
Q 27.875 18.5 26.140625 16.546875 
Q 24.421875 14.59375 23.34375 12.75 
z
" id="Arial-BoldMT-50"/>
      </defs>
      <g style="fill:#262626;" transform="translate(27.63625 202.057341)scale(0.165 -0.165)">
       <use xlink:href="#Arial-BoldMT-49"/>
       <use x="55.615234" xlink:href="#Arial-BoldMT-50"/>
       <use x="111.230469" xlink:href="#Arial-BoldMT-48"/>
      </g>
     </g>
    </g>
    <g id="ytick_5">
     <g id="text_8">
      <!-- 140 -->
      <defs>
       <path d="M 31.15625 0 
L 31.15625 14.40625 
L 1.859375 14.40625 
L 1.859375 26.421875 
L 32.90625 71.875 
L 44.4375 71.875 
L 44.4375 26.46875 
L 53.328125 26.46875 
L 53.328125 14.40625 
L 44.4375 14.40625 
L 44.4375 0 
z
M 31.15625 26.46875 
L 31.15625 50.921875 
L 14.703125 26.46875 
z
" id="Arial-BoldMT-52"/>
      </defs>
      <g style="fill:#262626;" transform="translate(27.63625 114.598913)scale(0.165 -0.165)">
       <use xlink:href="#Arial-BoldMT-49"/>
       <use x="55.615234" xlink:href="#Arial-BoldMT-52"/>
       <use x="111.230469" xlink:href="#Arial-BoldMT-48"/>
      </g>
     </g>
    </g>
    <g id="text_9">
     <!-- Median value median -->
     <defs>
      <path d="M 17.4375 36.03125 
L 4.984375 38.28125 
Q 7.078125 45.796875 12.203125 49.40625 
Q 17.328125 53.03125 27.4375 53.03125 
Q 36.625 53.03125 41.109375 50.859375 
Q 45.609375 48.6875 47.4375 45.34375 
Q 49.265625 42 49.265625 33.0625 
L 49.125 17.046875 
Q 49.125 10.203125 49.78125 6.953125 
Q 50.4375 3.71875 52.25 0 
L 38.671875 0 
Q 38.140625 1.375 37.359375 4.046875 
Q 37.015625 5.28125 36.859375 5.671875 
Q 33.34375 2.25 29.34375 0.53125 
Q 25.34375 -1.171875 20.796875 -1.171875 
Q 12.796875 -1.171875 8.171875 3.171875 
Q 3.5625 7.515625 3.5625 14.15625 
Q 3.5625 18.5625 5.65625 22 
Q 7.765625 25.4375 11.546875 27.265625 
Q 15.328125 29.109375 22.46875 30.46875 
Q 32.078125 32.28125 35.796875 33.84375 
L 35.796875 35.203125 
Q 35.796875 39.15625 33.84375 40.84375 
Q 31.890625 42.53125 26.46875 42.53125 
Q 22.796875 42.53125 20.75 41.09375 
Q 18.703125 39.65625 17.4375 36.03125 
z
M 35.796875 24.90625 
Q 33.15625 24.03125 27.4375 22.796875 
Q 21.734375 21.578125 19.96875 20.40625 
Q 17.28125 18.5 17.28125 15.578125 
Q 17.28125 12.703125 19.421875 10.59375 
Q 21.578125 8.5 24.90625 8.5 
Q 28.609375 8.5 31.984375 10.9375 
Q 34.46875 12.796875 35.25 15.484375 
Q 35.796875 17.234375 35.796875 22.171875 
z
" id="Arial-BoldMT-97"/>
      <path d="M 21.4375 0 
L 0.53125 51.859375 
L 14.9375 51.859375 
L 24.703125 25.390625 
L 27.546875 16.546875 
Q 28.65625 19.921875 28.953125 21 
Q 29.640625 23.1875 30.421875 25.390625 
L 40.28125 51.859375 
L 54.390625 51.859375 
L 33.796875 0 
z
" id="Arial-BoldMT-118"/>
      <path d="M 7.171875 0 
L 7.171875 71.578125 
L 20.90625 71.578125 
L 20.90625 0 
z
" id="Arial-BoldMT-108"/>
     </defs>
     <g style="fill:#262626;" transform="translate(20.084062 334.097812)rotate(-90)scale(0.18 -0.18)">
      <use xlink:href="#Arial-BoldMT-77"/>
      <use x="83.300781" xlink:href="#Arial-BoldMT-101"/>
      <use x="138.916016" xlink:href="#Arial-BoldMT-100"/>
      <use x="200" xlink:href="#Arial-BoldMT-105"/>
      <use x="227.783203" xlink:href="#Arial-BoldMT-97"/>
      <use x="283.398438" xlink:href="#Arial-BoldMT-110"/>
      <use x="344.482422" xlink:href="#Arial-BoldMT-32"/>
      <use x="372.265625" xlink:href="#Arial-BoldMT-118"/>
      <use x="427.880859" xlink:href="#Arial-BoldMT-97"/>
      <use x="483.496094" xlink:href="#Arial-BoldMT-108"/>
      <use x="511.279297" xlink:href="#Arial-BoldMT-117"/>
      <use x="572.363281" xlink:href="#Arial-BoldMT-101"/>
      <use x="627.978516" xlink:href="#Arial-BoldMT-32"/>
      <use x="655.761719" xlink:href="#Arial-BoldMT-109"/>
      <use x="744.677734" xlink:href="#Arial-BoldMT-101"/>
      <use x="800.292969" xlink:href="#Arial-BoldMT-100"/>
      <use x="861.376953" xlink:href="#Arial-BoldMT-105"/>
      <use x="889.160156" xlink:href="#Arial-BoldMT-97"/>
      <use x="944.775391" xlink:href="#Arial-BoldMT-110"/>
     </g>
    </g>
   </g>
   <g id="patch_3">
    <path clip-path="url(#p61b0204171)" d="M 87.429291 280.341888 
L 131.176491 280.341888 
L 131.176491 183.080758 
L 87.429291 183.080758 
L 87.429291 280.341888 
z
" style="fill:#abc9ea;stroke:#6f6f6f;stroke-linejoin:miter;stroke-width:2.5;"/>
   </g>
   <g id="patch_4">
    <path clip-path="url(#p61b0204171)" d="M 132.069291 167.098641 
L 175.816491 167.098641 
L 175.816491 97.561648 
L 132.069291 97.561648 
L 132.069291 167.098641 
z
" style="fill:#efb792;stroke:#6f6f6f;stroke-linejoin:miter;stroke-width:2.5;"/>
   </g>
   <g id="patch_5">
    <path clip-path="url(#p61b0204171)" d="M 176.709291 331.127665 
L 220.456491 331.127665 
L 220.456491 306.834233 
L 176.709291 306.834233 
L 176.709291 331.127665 
z
" style="fill:#98daa7;stroke:#6f6f6f;stroke-linejoin:miter;stroke-width:2.5;"/>
   </g>
   <g id="patch_6">
    <path clip-path="url(#p61b0204171)" d="M 221.349291 350.419478 
L 265.096491 350.419478 
L 265.096491 289.981387 
L 221.349291 289.981387 
L 221.349291 350.419478 
z
" style="fill:#f2aba8;stroke:#6f6f6f;stroke-linejoin:miter;stroke-width:2.5;"/>
   </g>
   <g id="patch_7">
    <path clip-path="url(#p61b0204171)" d="M 310.629291 301.907873 
L 354.376491 301.907873 
L 354.376491 222.394192 
L 310.629291 222.394192 
L 310.629291 301.907873 
z
" style="fill:#abc9ea;stroke:#6f6f6f;stroke-linejoin:miter;stroke-width:2.5;"/>
   </g>
   <g id="patch_8">
    <path clip-path="url(#p61b0204171)" d="M 355.269291 217.463197 
L 399.016491 217.463197 
L 399.016491 144.897752 
L 355.269291 144.897752 
L 355.269291 217.463197 
z
" style="fill:#efb792;stroke:#6f6f6f;stroke-linejoin:miter;stroke-width:2.5;"/>
   </g>
   <g id="patch_9">
    <path clip-path="url(#p61b0204171)" d="M 399.909291 360.334481 
L 443.656491 360.334481 
L 443.656491 303.719086 
L 399.909291 303.719086 
L 399.909291 360.334481 
z
" style="fill:#98daa7;stroke:#6f6f6f;stroke-linejoin:miter;stroke-width:2.5;"/>
   </g>
   <g id="patch_10">
    <path clip-path="url(#p61b0204171)" d="M 444.549291 364.152394 
L 488.296491 364.152394 
L 488.296491 289.813191 
L 444.549291 289.813191 
L 444.549291 364.152394 
z
" style="fill:#f2aba8;stroke:#6f6f6f;stroke-linejoin:miter;stroke-width:2.5;"/>
   </g>
   <g id="patch_11">
    <path clip-path="url(#p61b0204171)" d="M 533.829291 351.652279 
L 577.576491 351.652279 
L 577.576491 243.281608 
L 533.829291 243.281608 
L 533.829291 351.652279 
z
" style="fill:#abc9ea;stroke:#6f6f6f;stroke-linejoin:miter;stroke-width:2.5;"/>
   </g>
   <g id="patch_12">
    <path clip-path="url(#p61b0204171)" d="M 578.469291 263.845876 
L 622.216491 263.845876 
L 622.216491 196.42243 
L 578.469291 196.42243 
L 578.469291 263.845876 
z
" style="fill:#efb792;stroke:#6f6f6f;stroke-linejoin:miter;stroke-width:2.5;"/>
   </g>
   <g id="patch_13">
    <path clip-path="url(#p61b0204171)" d="M 623.109291 395.427164 
L 666.856491 395.427164 
L 666.856491 338.499401 
L 623.109291 338.499401 
L 623.109291 395.427164 
z
" style="fill:#98daa7;stroke:#6f6f6f;stroke-linejoin:miter;stroke-width:2.5;"/>
   </g>
   <g id="patch_14">
    <path clip-path="url(#p61b0204171)" d="M 667.749291 374.254314 
L 711.496491 374.254314 
L 711.496491 311.926475 
L 667.749291 311.926475 
L 667.749291 374.254314 
z
" style="fill:#f2aba8;stroke:#6f6f6f;stroke-linejoin:miter;stroke-width:2.5;"/>
   </g>
   <g id="patch_15">
    <path clip-path="url(#p61b0204171)" d="M 176.262891 720.902718 
L 176.262891 720.902718 
L 176.262891 720.902718 
L 176.262891 720.902718 
z
" style="fill:#abc9ea;stroke:#6f6f6f;stroke-linejoin:miter;stroke-width:1.25;"/>
   </g>
   <g id="patch_16">
    <path clip-path="url(#p61b0204171)" d="M 176.262891 720.902718 
L 176.262891 720.902718 
L 176.262891 720.902718 
L 176.262891 720.902718 
z
" style="fill:#efb792;stroke:#6f6f6f;stroke-linejoin:miter;stroke-width:1.25;"/>
   </g>
   <g id="patch_17">
    <path clip-path="url(#p61b0204171)" d="M 176.262891 720.902718 
L 176.262891 720.902718 
L 176.262891 720.902718 
L 176.262891 720.902718 
z
" style="fill:#98daa7;stroke:#6f6f6f;stroke-linejoin:miter;stroke-width:1.25;"/>
   </g>
   <g id="patch_18">
    <path clip-path="url(#p61b0204171)" d="M 176.262891 720.902718 
L 176.262891 720.902718 
L 176.262891 720.902718 
L 176.262891 720.902718 
z
" style="fill:#f2aba8;stroke:#6f6f6f;stroke-linejoin:miter;stroke-width:1.25;"/>
   </g>
   <g id="line2d_1">
    <path clip-path="url(#p61b0204171)" d="M 109.302891 280.341888 
L 109.302891 311.306651 
" style="fill:none;stroke:#6f6f6f;stroke-linecap:round;stroke-width:2.5;"/>
   </g>
   <g id="line2d_2">
    <path clip-path="url(#p61b0204171)" d="M 109.302891 183.080758 
L 109.302891 105.61379 
" style="fill:none;stroke:#6f6f6f;stroke-linecap:round;stroke-width:2.5;"/>
   </g>
   <g id="line2d_3">
    <path clip-path="url(#p61b0204171)" d="M 98.366091 311.306651 
L 120.239691 311.306651 
" style="fill:none;stroke:#6f6f6f;stroke-linecap:round;stroke-width:2.5;"/>
   </g>
   <g id="line2d_4">
    <path clip-path="url(#p61b0204171)" d="M 98.366091 105.61379 
L 120.239691 105.61379 
" style="fill:none;stroke:#6f6f6f;stroke-linecap:round;stroke-width:2.5;"/>
   </g>
   <g id="line2d_5"/>
   <g id="line2d_6">
    <path clip-path="url(#p61b0204171)" d="M 153.942891 167.098641 
L 153.942891 199.885786 
" style="fill:none;stroke:#6f6f6f;stroke-linecap:round;stroke-width:2.5;"/>
   </g>
   <g id="line2d_7">
    <path clip-path="url(#p61b0204171)" d="M 153.942891 97.561648 
L 153.942891 45.904773 
" style="fill:none;stroke:#6f6f6f;stroke-linecap:round;stroke-width:2.5;"/>
   </g>
   <g id="line2d_8">
    <path clip-path="url(#p61b0204171)" d="M 143.006091 199.885786 
L 164.879691 199.885786 
" style="fill:none;stroke:#6f6f6f;stroke-linecap:round;stroke-width:2.5;"/>
   </g>
   <g id="line2d_9">
    <path clip-path="url(#p61b0204171)" d="M 143.006091 45.904773 
L 164.879691 45.904773 
" style="fill:none;stroke:#6f6f6f;stroke-linecap:round;stroke-width:2.5;"/>
   </g>
   <g id="line2d_10"/>
   <g id="line2d_11">
    <path clip-path="url(#p61b0204171)" d="M 198.582891 331.127665 
L 198.582891 347.490273 
" style="fill:none;stroke:#6f6f6f;stroke-linecap:round;stroke-width:2.5;"/>
   </g>
   <g id="line2d_12">
    <path clip-path="url(#p61b0204171)" d="M 198.582891 306.834233 
L 198.582891 274.667086 
" style="fill:none;stroke:#6f6f6f;stroke-linecap:round;stroke-width:2.5;"/>
   </g>
   <g id="line2d_13">
    <path clip-path="url(#p61b0204171)" d="M 187.646091 347.490273 
L 209.519691 347.490273 
" style="fill:none;stroke:#6f6f6f;stroke-linecap:round;stroke-width:2.5;"/>
   </g>
   <g id="line2d_14">
    <path clip-path="url(#p61b0204171)" d="M 187.646091 274.667086 
L 209.519691 274.667086 
" style="fill:none;stroke:#6f6f6f;stroke-linecap:round;stroke-width:2.5;"/>
   </g>
   <g id="line2d_15">
    <defs>
     <path d="M 0 3.535534 
L 2.12132 0 
L 0 -3.535534 
L -2.12132 0 
z
" id="m5e716ad185" style="stroke:#6f6f6f;stroke-linejoin:miter;"/>
    </defs>
    <g clip-path="url(#p61b0204171)">
     <use style="fill:#6f6f6f;stroke:#6f6f6f;stroke-linejoin:miter;" x="198.582891" xlink:href="#m5e716ad185" y="367.620635"/>
     <use style="fill:#6f6f6f;stroke:#6f6f6f;stroke-linejoin:miter;" x="198.582891" xlink:href="#m5e716ad185" y="385.823257"/>
     <use style="fill:#6f6f6f;stroke:#6f6f6f;stroke-linejoin:miter;" x="198.582891" xlink:href="#m5e716ad185" y="370.6609"/>
     <use style="fill:#6f6f6f;stroke:#6f6f6f;stroke-linejoin:miter;" x="198.582891" xlink:href="#m5e716ad185" y="386.122238"/>
     <use style="fill:#6f6f6f;stroke:#6f6f6f;stroke-linejoin:miter;" x="198.582891" xlink:href="#m5e716ad185" y="269.0405"/>
    </g>
   </g>
   <g id="line2d_16">
    <path clip-path="url(#p61b0204171)" d="M 243.222891 350.419478 
L 243.222891 372.630644 
" style="fill:none;stroke:#6f6f6f;stroke-linecap:round;stroke-width:2.5;"/>
   </g>
   <g id="line2d_17">
    <path clip-path="url(#p61b0204171)" d="M 243.222891 289.981387 
L 243.222891 212.997979 
" style="fill:none;stroke:#6f6f6f;stroke-linecap:round;stroke-width:2.5;"/>
   </g>
   <g id="line2d_18">
    <path clip-path="url(#p61b0204171)" d="M 232.286091 372.630644 
L 254.159691 372.630644 
" style="fill:none;stroke:#6f6f6f;stroke-linecap:round;stroke-width:2.5;"/>
   </g>
   <g id="line2d_19">
    <path clip-path="url(#p61b0204171)" d="M 232.286091 212.997979 
L 254.159691 212.997979 
" style="fill:none;stroke:#6f6f6f;stroke-linecap:round;stroke-width:2.5;"/>
   </g>
   <g id="line2d_20">
    <g clip-path="url(#p61b0204171)">
     <use style="fill:#6f6f6f;stroke:#6f6f6f;stroke-linejoin:miter;" x="243.222891" xlink:href="#m5e716ad185" y="198.989735"/>
     <use style="fill:#6f6f6f;stroke:#6f6f6f;stroke-linejoin:miter;" x="243.222891" xlink:href="#m5e716ad185" y="199.021862"/>
    </g>
   </g>
   <g id="line2d_21">
    <path clip-path="url(#p61b0204171)" d="M 332.502891 301.907873 
L 332.502891 385.926512 
" style="fill:none;stroke:#6f6f6f;stroke-linecap:round;stroke-width:2.5;"/>
   </g>
   <g id="line2d_22">
    <path clip-path="url(#p61b0204171)" d="M 332.502891 222.394192 
L 332.502891 130.578896 
" style="fill:none;stroke:#6f6f6f;stroke-linecap:round;stroke-width:2.5;"/>
   </g>
   <g id="line2d_23">
    <path clip-path="url(#p61b0204171)" d="M 321.566091 385.926512 
L 343.439691 385.926512 
" style="fill:none;stroke:#6f6f6f;stroke-linecap:round;stroke-width:2.5;"/>
   </g>
   <g id="line2d_24">
    <path clip-path="url(#p61b0204171)" d="M 321.566091 130.578896 
L 343.439691 130.578896 
" style="fill:none;stroke:#6f6f6f;stroke-linecap:round;stroke-width:2.5;"/>
   </g>
   <g id="line2d_25"/>
   <g id="line2d_26">
    <path clip-path="url(#p61b0204171)" d="M 377.142891 217.463197 
L 377.142891 291.192225 
" style="fill:none;stroke:#6f6f6f;stroke-linecap:round;stroke-width:2.5;"/>
   </g>
   <g id="line2d_27">
    <path clip-path="url(#p61b0204171)" d="M 377.142891 144.897752 
L 377.142891 118.201952 
" style="fill:none;stroke:#6f6f6f;stroke-linecap:round;stroke-width:2.5;"/>
   </g>
   <g id="line2d_28">
    <path clip-path="url(#p61b0204171)" d="M 366.206091 291.192225 
L 388.079691 291.192225 
" style="fill:none;stroke:#6f6f6f;stroke-linecap:round;stroke-width:2.5;"/>
   </g>
   <g id="line2d_29">
    <path clip-path="url(#p61b0204171)" d="M 366.206091 118.201952 
L 388.079691 118.201952 
" style="fill:none;stroke:#6f6f6f;stroke-linecap:round;stroke-width:2.5;"/>
   </g>
   <g id="line2d_30"/>
   <g id="line2d_31">
    <path clip-path="url(#p61b0204171)" d="M 421.782891 360.334481 
L 421.782891 396.738639 
" style="fill:none;stroke:#6f6f6f;stroke-linecap:round;stroke-width:2.5;"/>
   </g>
   <g id="line2d_32">
    <path clip-path="url(#p61b0204171)" d="M 421.782891 303.719086 
L 421.782891 250.139487 
" style="fill:none;stroke:#6f6f6f;stroke-linecap:round;stroke-width:2.5;"/>
   </g>
   <g id="line2d_33">
    <path clip-path="url(#p61b0204171)" d="M 410.846091 396.738639 
L 432.719691 396.738639 
" style="fill:none;stroke:#6f6f6f;stroke-linecap:round;stroke-width:2.5;"/>
   </g>
   <g id="line2d_34">
    <path clip-path="url(#p61b0204171)" d="M 410.846091 250.139487 
L 432.719691 250.139487 
" style="fill:none;stroke:#6f6f6f;stroke-linecap:round;stroke-width:2.5;"/>
   </g>
   <g id="line2d_35"/>
   <g id="line2d_36">
    <path clip-path="url(#p61b0204171)" d="M 466.422891 364.152394 
L 466.422891 412.03291 
" style="fill:none;stroke:#6f6f6f;stroke-linecap:round;stroke-width:2.5;"/>
   </g>
   <g id="line2d_37">
    <path clip-path="url(#p61b0204171)" d="M 466.422891 289.813191 
L 466.422891 208.552442 
" style="fill:none;stroke:#6f6f6f;stroke-linecap:round;stroke-width:2.5;"/>
   </g>
   <g id="line2d_38">
    <path clip-path="url(#p61b0204171)" d="M 455.486091 412.03291 
L 477.359691 412.03291 
" style="fill:none;stroke:#6f6f6f;stroke-linecap:round;stroke-width:2.5;"/>
   </g>
   <g id="line2d_39">
    <path clip-path="url(#p61b0204171)" d="M 455.486091 208.552442 
L 477.359691 208.552442 
" style="fill:none;stroke:#6f6f6f;stroke-linecap:round;stroke-width:2.5;"/>
   </g>
   <g id="line2d_40"/>
   <g id="line2d_41">
    <path clip-path="url(#p61b0204171)" d="M 555.702891 351.652279 
L 555.702891 407.520011 
" style="fill:none;stroke:#6f6f6f;stroke-linecap:round;stroke-width:2.5;"/>
   </g>
   <g id="line2d_42">
    <path clip-path="url(#p61b0204171)" d="M 555.702891 243.281608 
L 555.702891 169.31307 
" style="fill:none;stroke:#6f6f6f;stroke-linecap:round;stroke-width:2.5;"/>
   </g>
   <g id="line2d_43">
    <path clip-path="url(#p61b0204171)" d="M 544.766091 407.520011 
L 566.639691 407.520011 
" style="fill:none;stroke:#6f6f6f;stroke-linecap:round;stroke-width:2.5;"/>
   </g>
   <g id="line2d_44">
    <path clip-path="url(#p61b0204171)" d="M 544.766091 169.31307 
L 566.639691 169.31307 
" style="fill:none;stroke:#6f6f6f;stroke-linecap:round;stroke-width:2.5;"/>
   </g>
   <g id="line2d_45"/>
   <g id="line2d_46">
    <path clip-path="url(#p61b0204171)" d="M 600.342891 263.845876 
L 600.342891 341.85061 
" style="fill:none;stroke:#6f6f6f;stroke-linecap:round;stroke-width:2.5;"/>
   </g>
   <g id="line2d_47">
    <path clip-path="url(#p61b0204171)" d="M 600.342891 196.42243 
L 600.342891 120.823938 
" style="fill:none;stroke:#6f6f6f;stroke-linecap:round;stroke-width:2.5;"/>
   </g>
   <g id="line2d_48">
    <path clip-path="url(#p61b0204171)" d="M 589.406091 341.85061 
L 611.279691 341.85061 
" style="fill:none;stroke:#6f6f6f;stroke-linecap:round;stroke-width:2.5;"/>
   </g>
   <g id="line2d_49">
    <path clip-path="url(#p61b0204171)" d="M 589.406091 120.823938 
L 611.279691 120.823938 
" style="fill:none;stroke:#6f6f6f;stroke-linecap:round;stroke-width:2.5;"/>
   </g>
   <g id="line2d_50"/>
   <g id="line2d_51">
    <path clip-path="url(#p61b0204171)" d="M 644.982891 395.427164 
L 644.982891 441.250227 
" style="fill:none;stroke:#6f6f6f;stroke-linecap:round;stroke-width:2.5;"/>
   </g>
   <g id="line2d_52">
    <path clip-path="url(#p61b0204171)" d="M 644.982891 338.499401 
L 644.982891 254.071754 
" style="fill:none;stroke:#6f6f6f;stroke-linecap:round;stroke-width:2.5;"/>
   </g>
   <g id="line2d_53">
    <path clip-path="url(#p61b0204171)" d="M 634.046091 441.250227 
L 655.919691 441.250227 
" style="fill:none;stroke:#6f6f6f;stroke-linecap:round;stroke-width:2.5;"/>
   </g>
   <g id="line2d_54">
    <path clip-path="url(#p61b0204171)" d="M 634.046091 254.071754 
L 655.919691 254.071754 
" style="fill:none;stroke:#6f6f6f;stroke-linecap:round;stroke-width:2.5;"/>
   </g>
   <g id="line2d_55">
    <g clip-path="url(#p61b0204171)">
     <use style="fill:#6f6f6f;stroke:#6f6f6f;stroke-linejoin:miter;" x="644.982891" xlink:href="#m5e716ad185" y="249.549523"/>
    </g>
   </g>
   <g id="line2d_56">
    <path clip-path="url(#p61b0204171)" d="M 689.622891 374.254314 
L 689.622891 427.002863 
" style="fill:none;stroke:#6f6f6f;stroke-linecap:round;stroke-width:2.5;"/>
   </g>
   <g id="line2d_57">
    <path clip-path="url(#p61b0204171)" d="M 689.622891 311.926475 
L 689.622891 221.302995 
" style="fill:none;stroke:#6f6f6f;stroke-linecap:round;stroke-width:2.5;"/>
   </g>
   <g id="line2d_58">
    <path clip-path="url(#p61b0204171)" d="M 678.686091 427.002863 
L 700.559691 427.002863 
" style="fill:none;stroke:#6f6f6f;stroke-linecap:round;stroke-width:2.5;"/>
   </g>
   <g id="line2d_59">
    <path clip-path="url(#p61b0204171)" d="M 678.686091 221.302995 
L 700.559691 221.302995 
" style="fill:none;stroke:#6f6f6f;stroke-linecap:round;stroke-width:2.5;"/>
   </g>
   <g id="line2d_60"/>
   <g id="line2d_61">
    <path clip-path="url(#p61b0204171)" d="M 87.429291 202.057357 
L 131.176491 202.057357 
" style="fill:none;stroke:#6f6f6f;stroke-linecap:round;stroke-width:2.5;"/>
   </g>
   <g id="line2d_62">
    <path clip-path="url(#p61b0204171)" d="M 132.069291 149.340255 
L 175.816491 149.340255 
" style="fill:none;stroke:#6f6f6f;stroke-linecap:round;stroke-width:2.5;"/>
   </g>
   <g id="line2d_63">
    <path clip-path="url(#p61b0204171)" d="M 176.709291 309.790639 
L 220.456491 309.790639 
" style="fill:none;stroke:#6f6f6f;stroke-linecap:round;stroke-width:2.5;"/>
   </g>
   <g id="line2d_64">
    <path clip-path="url(#p61b0204171)" d="M 221.349291 324.842395 
L 265.096491 324.842395 
" style="fill:none;stroke:#6f6f6f;stroke-linecap:round;stroke-width:2.5;"/>
   </g>
   <g id="line2d_65">
    <path clip-path="url(#p61b0204171)" d="M 310.629291 249.482501 
L 354.376491 249.482501 
" style="fill:none;stroke:#6f6f6f;stroke-linecap:round;stroke-width:2.5;"/>
   </g>
   <g id="line2d_66">
    <path clip-path="url(#p61b0204171)" d="M 355.269291 191.582961 
L 399.016491 191.582961 
" style="fill:none;stroke:#6f6f6f;stroke-linecap:round;stroke-width:2.5;"/>
   </g>
   <g id="line2d_67">
    <path clip-path="url(#p61b0204171)" d="M 399.909291 342.390904 
L 443.656491 342.390904 
" style="fill:none;stroke:#6f6f6f;stroke-linecap:round;stroke-width:2.5;"/>
   </g>
   <g id="line2d_68">
    <path clip-path="url(#p61b0204171)" d="M 444.549291 337.110568 
L 488.296491 337.110568 
" style="fill:none;stroke:#6f6f6f;stroke-linecap:round;stroke-width:2.5;"/>
   </g>
   <g id="line2d_69">
    <path clip-path="url(#p61b0204171)" d="M 533.829291 297.918288 
L 577.576491 297.918288 
" style="fill:none;stroke:#6f6f6f;stroke-linecap:round;stroke-width:2.5;"/>
   </g>
   <g id="line2d_70">
    <path clip-path="url(#p61b0204171)" d="M 578.469291 227.646525 
L 622.216491 227.646525 
" style="fill:none;stroke:#6f6f6f;stroke-linecap:round;stroke-width:2.5;"/>
   </g>
   <g id="line2d_71">
    <path clip-path="url(#p61b0204171)" d="M 623.109291 368.506135 
L 666.856491 368.506135 
" style="fill:none;stroke:#6f6f6f;stroke-linecap:round;stroke-width:2.5;"/>
   </g>
   <g id="line2d_72">
    <path clip-path="url(#p61b0204171)" d="M 667.749291 350.7259 
L 711.496491 350.7259 
" style="fill:none;stroke:#6f6f6f;stroke-linecap:round;stroke-width:2.5;"/>
   </g>
   <g id="patch_19">
    <path d="M 64.662891 461.0175 
L 64.662891 26.1375 
" style="fill:none;stroke:#808080;stroke-linecap:square;stroke-linejoin:miter;stroke-width:2.5;"/>
   </g>
   <g id="patch_20">
    <path d="M 734.262891 461.0175 
L 734.262891 26.1375 
" style="fill:none;stroke:#808080;stroke-linecap:square;stroke-linejoin:miter;stroke-width:2.5;"/>
   </g>
   <g id="patch_21">
    <path d="M 64.662891 461.0175 
L 734.262891 461.0175 
" style="fill:none;stroke:#808080;stroke-linecap:square;stroke-linejoin:miter;stroke-width:2.5;"/>
   </g>
   <g id="patch_22">
    <path d="M 64.662891 26.1375 
L 734.262891 26.1375 
" style="fill:none;stroke:#808080;stroke-linecap:square;stroke-linejoin:miter;stroke-width:2.5;"/>
   </g>
   <g id="text_10">
    <!-- Median Value and Base 2 Identity -->
    <defs>
     <path d="M 25.53125 0 
L -0.046875 71.578125 
L 15.625 71.578125 
L 33.734375 18.609375 
L 51.265625 71.578125 
L 66.609375 71.578125 
L 40.96875 0 
z
" id="Arial-BoldMT-86"/>
     <path d="M 7.328125 71.578125 
L 35.9375 71.578125 
Q 44.4375 71.578125 48.609375 70.875 
Q 52.78125 70.171875 56.078125 67.921875 
Q 59.375 65.671875 61.5625 61.9375 
Q 63.765625 58.203125 63.765625 53.5625 
Q 63.765625 48.53125 61.046875 44.328125 
Q 58.34375 40.140625 53.71875 38.03125 
Q 60.25 36.140625 63.765625 31.546875 
Q 67.28125 26.953125 67.28125 20.75 
Q 67.28125 15.875 65.015625 11.25 
Q 62.75 6.640625 58.8125 3.875 
Q 54.890625 1.125 49.125 0.484375 
Q 45.515625 0.09375 31.6875 0 
L 7.328125 0 
z
M 21.78125 59.671875 
L 21.78125 43.109375 
L 31.25 43.109375 
Q 39.703125 43.109375 41.75 43.359375 
Q 45.453125 43.796875 47.578125 45.921875 
Q 49.703125 48.046875 49.703125 51.515625 
Q 49.703125 54.828125 47.875 56.90625 
Q 46.046875 58.984375 42.4375 59.421875 
Q 40.28125 59.671875 30.078125 59.671875 
z
M 21.78125 31.203125 
L 21.78125 12.0625 
L 35.15625 12.0625 
Q 42.96875 12.0625 45.0625 12.5 
Q 48.296875 13.09375 50.3125 15.359375 
Q 52.34375 17.625 52.34375 21.4375 
Q 52.34375 24.65625 50.78125 26.90625 
Q 49.21875 29.15625 46.265625 30.171875 
Q 43.3125 31.203125 33.453125 31.203125 
z
" id="Arial-BoldMT-66"/>
     <path d="M 2.34375 14.796875 
L 16.109375 16.890625 
Q 17 12.890625 19.671875 10.8125 
Q 22.359375 8.734375 27.203125 8.734375 
Q 32.515625 8.734375 35.203125 10.6875 
Q 37.015625 12.0625 37.015625 14.359375 
Q 37.015625 15.921875 36.03125 16.9375 
Q 35.015625 17.921875 31.453125 18.75 
Q 14.84375 22.40625 10.40625 25.4375 
Q 4.25 29.640625 4.25 37.109375 
Q 4.25 43.84375 9.5625 48.4375 
Q 14.890625 53.03125 26.078125 53.03125 
Q 36.71875 53.03125 41.890625 49.5625 
Q 47.078125 46.09375 49.03125 39.3125 
L 36.078125 36.921875 
Q 35.25 39.9375 32.921875 41.546875 
Q 30.609375 43.171875 26.3125 43.171875 
Q 20.90625 43.171875 18.5625 41.65625 
Q 17 40.578125 17 38.875 
Q 17 37.40625 18.359375 36.375 
Q 20.21875 35.015625 31.171875 32.515625 
Q 42.140625 30.03125 46.484375 26.421875 
Q 50.78125 22.75 50.78125 16.21875 
Q 50.78125 9.078125 44.828125 3.953125 
Q 38.875 -1.171875 27.203125 -1.171875 
Q 16.609375 -1.171875 10.421875 3.125 
Q 4.25 7.421875 2.34375 14.796875 
z
" id="Arial-BoldMT-115"/>
     <path d="M 6.84375 0 
L 6.84375 71.578125 
L 21.296875 71.578125 
L 21.296875 0 
z
" id="Arial-BoldMT-73"/>
     <path d="M 30.953125 51.859375 
L 30.953125 40.921875 
L 21.578125 40.921875 
L 21.578125 20.015625 
Q 21.578125 13.671875 21.84375 12.625 
Q 22.125 11.578125 23.078125 10.890625 
Q 24.03125 10.203125 25.390625 10.203125 
Q 27.296875 10.203125 30.90625 11.53125 
L 32.078125 0.875 
Q 27.296875 -1.171875 21.234375 -1.171875 
Q 17.53125 -1.171875 14.546875 0.0625 
Q 11.578125 1.3125 10.1875 3.296875 
Q 8.796875 5.28125 8.25 8.640625 
Q 7.8125 11.03125 7.8125 18.3125 
L 7.8125 40.921875 
L 1.515625 40.921875 
L 1.515625 51.859375 
L 7.8125 51.859375 
L 7.8125 62.15625 
L 21.578125 70.171875 
L 21.578125 51.859375 
z
" id="Arial-BoldMT-116"/>
     <path d="M 0.6875 51.859375 
L 15.28125 51.859375 
L 27.6875 15.046875 
L 39.796875 51.859375 
L 54 51.859375 
L 35.6875 1.953125 
L 32.421875 -7.078125 
Q 30.609375 -11.625 28.96875 -14.015625 
Q 27.34375 -16.40625 25.21875 -17.890625 
Q 23.09375 -19.390625 19.984375 -20.21875 
Q 16.890625 -21.046875 12.984375 -21.046875 
Q 9.03125 -21.046875 5.21875 -20.21875 
L 4 -9.46875 
Q 7.234375 -10.109375 9.8125 -10.109375 
Q 14.59375 -10.109375 16.890625 -7.296875 
Q 19.1875 -4.5 20.40625 -0.140625 
z
" id="Arial-BoldMT-121"/>
    </defs>
    <g style="fill:#262626;" transform="translate(257.441484 20.1375)scale(0.18 -0.18)">
     <use xlink:href="#Arial-BoldMT-77"/>
     <use x="83.300781" xlink:href="#Arial-BoldMT-101"/>
     <use x="138.916016" xlink:href="#Arial-BoldMT-100"/>
     <use x="200" xlink:href="#Arial-BoldMT-105"/>
     <use x="227.783203" xlink:href="#Arial-BoldMT-97"/>
     <use x="283.398438" xlink:href="#Arial-BoldMT-110"/>
     <use x="344.482422" xlink:href="#Arial-BoldMT-32"/>
     <use x="372.265625" xlink:href="#Arial-BoldMT-86"/>
     <use x="438.886719" xlink:href="#Arial-BoldMT-97"/>
     <use x="494.501953" xlink:href="#Arial-BoldMT-108"/>
     <use x="522.285156" xlink:href="#Arial-BoldMT-117"/>
     <use x="583.369141" xlink:href="#Arial-BoldMT-101"/>
     <use x="638.984375" xlink:href="#Arial-BoldMT-32"/>
     <use x="666.767578" xlink:href="#Arial-BoldMT-97"/>
     <use x="722.382812" xlink:href="#Arial-BoldMT-110"/>
     <use x="783.466797" xlink:href="#Arial-BoldMT-100"/>
     <use x="844.550781" xlink:href="#Arial-BoldMT-32"/>
     <use x="872.333984" xlink:href="#Arial-BoldMT-66"/>
     <use x="944.550781" xlink:href="#Arial-BoldMT-97"/>
     <use x="1000.166016" xlink:href="#Arial-BoldMT-115"/>
     <use x="1055.78125" xlink:href="#Arial-BoldMT-101"/>
     <use x="1111.396484" xlink:href="#Arial-BoldMT-32"/>
     <use x="1139.179688" xlink:href="#Arial-BoldMT-50"/>
     <use x="1194.794922" xlink:href="#Arial-BoldMT-32"/>
     <use x="1222.578125" xlink:href="#Arial-BoldMT-73"/>
     <use x="1250.361328" xlink:href="#Arial-BoldMT-100"/>
     <use x="1311.445312" xlink:href="#Arial-BoldMT-101"/>
     <use x="1367.060547" xlink:href="#Arial-BoldMT-110"/>
     <use x="1428.144531" xlink:href="#Arial-BoldMT-116"/>
     <use x="1461.445312" xlink:href="#Arial-BoldMT-105"/>
     <use x="1489.228516" xlink:href="#Arial-BoldMT-116"/>
     <use x="1522.529297" xlink:href="#Arial-BoldMT-121"/>
    </g>
   </g>
   <g id="legend_1">
    <g id="patch_23">
     <path d="M 767.742891 124.35375 
L 839.976797 124.35375 
L 839.976797 26.1375 
L 767.742891 26.1375 
z
" style="fill:none;stroke:#808080;stroke-linejoin:miter;stroke-width:2.5;"/>
    </g>
    <g id="patch_24">
     <path d="M 774.342891 44.547891 
L 807.342891 44.547891 
L 807.342891 32.997891 
L 774.342891 32.997891 
z
" style="fill:#abc9ea;stroke:#808080;stroke-linejoin:miter;stroke-width:2.5;"/>
    </g>
    <g id="text_11">
     <!-- A -->
     <defs>
      <path d="M 71.828125 0 
L 56.109375 0 
L 49.859375 16.265625 
L 21.234375 16.265625 
L 15.328125 0 
L 0 0 
L 27.875 71.578125 
L 43.171875 71.578125 
z
M 45.21875 28.328125 
L 35.359375 54.890625 
L 25.6875 28.328125 
z
" id="Arial-BoldMT-65"/>
     </defs>
     <g style="fill:#262626;" transform="translate(820.542891 44.547891)scale(0.165 -0.165)">
      <use xlink:href="#Arial-BoldMT-65"/>
     </g>
    </g>
    <g id="patch_25">
     <path d="M 774.342891 67.864453 
L 807.342891 67.864453 
L 807.342891 56.314453 
L 774.342891 56.314453 
z
" style="fill:#efb792;stroke:#808080;stroke-linejoin:miter;stroke-width:2.5;"/>
    </g>
    <g id="text_12">
     <!-- G -->
     <defs>
      <path d="M 40.578125 26.3125 
L 40.578125 38.375 
L 71.734375 38.375 
L 71.734375 9.859375 
Q 67.1875 5.46875 58.5625 2.125 
Q 49.953125 -1.21875 41.109375 -1.21875 
Q 29.890625 -1.21875 21.53125 3.484375 
Q 13.1875 8.203125 8.984375 16.96875 
Q 4.78125 25.734375 4.78125 36.03125 
Q 4.78125 47.21875 9.46875 55.90625 
Q 14.15625 64.59375 23.1875 69.234375 
Q 30.078125 72.796875 40.328125 72.796875 
Q 53.65625 72.796875 61.15625 67.203125 
Q 68.65625 61.625 70.796875 51.765625 
L 56.453125 49.078125 
Q 54.9375 54.34375 50.75 57.390625 
Q 46.578125 60.453125 40.328125 60.453125 
Q 30.859375 60.453125 25.265625 54.4375 
Q 19.671875 48.4375 19.671875 36.625 
Q 19.671875 23.875 25.328125 17.5 
Q 31 11.140625 40.1875 11.140625 
Q 44.734375 11.140625 49.296875 12.921875 
Q 53.859375 14.703125 57.125 17.234375 
L 57.125 26.3125 
z
" id="Arial-BoldMT-71"/>
     </defs>
     <g style="fill:#262626;" transform="translate(820.542891 67.864453)scale(0.165 -0.165)">
      <use xlink:href="#Arial-BoldMT-71"/>
     </g>
    </g>
    <g id="patch_26">
     <path d="M 774.342891 91.181016 
L 807.342891 91.181016 
L 807.342891 79.631016 
L 774.342891 79.631016 
z
" style="fill:#98daa7;stroke:#808080;stroke-linejoin:miter;stroke-width:2.5;"/>
    </g>
    <g id="text_13">
     <!-- C -->
     <defs>
      <path d="M 53.078125 26.3125 
L 67.09375 21.875 
Q 63.875 10.15625 56.375 4.46875 
Q 48.875 -1.21875 37.359375 -1.21875 
Q 23.09375 -1.21875 13.90625 8.515625 
Q 4.734375 18.265625 4.734375 35.15625 
Q 4.734375 53.03125 13.953125 62.90625 
Q 23.1875 72.796875 38.234375 72.796875 
Q 51.375 72.796875 59.578125 65.046875 
Q 64.453125 60.453125 66.890625 51.859375 
L 52.59375 48.4375 
Q 51.3125 54 47.28125 57.21875 
Q 43.265625 60.453125 37.5 60.453125 
Q 29.546875 60.453125 24.578125 54.734375 
Q 19.625 49.03125 19.625 36.234375 
Q 19.625 22.65625 24.5 16.890625 
Q 29.390625 11.140625 37.203125 11.140625 
Q 42.96875 11.140625 47.109375 14.796875 
Q 51.265625 18.453125 53.078125 26.3125 
z
" id="Arial-BoldMT-67"/>
     </defs>
     <g style="fill:#262626;" transform="translate(820.542891 91.181016)scale(0.165 -0.165)">
      <use xlink:href="#Arial-BoldMT-67"/>
     </g>
    </g>
    <g id="patch_27">
     <path d="M 774.342891 114.497578 
L 807.342891 114.497578 
L 807.342891 102.947578 
L 774.342891 102.947578 
z
" style="fill:#f2aba8;stroke:#808080;stroke-linejoin:miter;stroke-width:2.5;"/>
    </g>
    <g id="text_14">
     <!-- T -->
     <defs>
      <path d="M 23.390625 0 
L 23.390625 59.46875 
L 2.15625 59.46875 
L 2.15625 71.578125 
L 59.03125 71.578125 
L 59.03125 59.46875 
L 37.84375 59.46875 
L 37.84375 0 
z
" id="Arial-BoldMT-84"/>
     </defs>
     <g style="fill:#262626;" transform="translate(820.542891 114.497578)scale(0.165 -0.165)">
      <use xlink:href="#Arial-BoldMT-84"/>
     </g>
    </g>
   </g>
  </g>
 </g>
 <defs>
  <clipPath id="p61b0204171">
   <rect height="434.88" width="669.6" x="64.662891" y="26.1375"/>
  </clipPath>
 </defs>
</svg>
