<?xml version="1.0" encoding="utf-8" standalone="no"?>
<!DOCTYPE svg PUBLIC "-//W3C//DTD SVG 1.1//EN"
  "http://www.w3.org/Graphics/SVG/1.1/DTD/svg11.dtd">
<!-- Created with matplotlib (https://matplotlib.org/) -->
<svg height="601.868281pt" version="1.1" viewBox="0 0 634.446797 601.868281" width="634.446797pt" xmlns="http://www.w3.org/2000/svg" xmlns:xlink="http://www.w3.org/1999/xlink">
 <defs>
  <style type="text/css">
*{stroke-linecap:butt;stroke-linejoin:round;}
  </style>
 </defs>
 <g id="figure_1">
  <g id="patch_1">
   <path d="M 0 601.868281 
L 634.446797 601.868281 
L 634.446797 0 
L 0 0 
z
" style="fill:none;"/>
  </g>
  <g id="axes_1">
   <g id="patch_2">
    <path d="M 69.246797 569.684062 
L 627.246797 569.684062 
L 627.246797 26.084062 
L 69.246797 26.084062 
z
" style="fill:none;"/>
   </g>
   <g id="matplotlib.axis_1">
    <g id="xtick_1">
     <g id="text_1">
      <!-- Modified -->
      <defs>
       <path d="M 7.078125 0 
L 7.078125 71.578125 
L 28.71875 71.578125 
L 41.703125 22.75 
L 54.546875 71.578125 
L 76.21875 71.578125 
L 76.21875 0 
L 62.796875 0 
L 62.796875 56.34375 
L 48.578125 0 
L 34.671875 0 
L 20.515625 56.34375 
L 20.515625 0 
z
" id="Arial-BoldMT-77"/>
       <path d="M 4 26.65625 
Q 4 33.5 7.375 39.890625 
Q 10.75 46.296875 16.921875 49.65625 
Q 23.09375 53.03125 30.71875 53.03125 
Q 42.484375 53.03125 50 45.390625 
Q 57.515625 37.75 57.515625 26.078125 
Q 57.515625 14.3125 49.921875 6.5625 
Q 42.328125 -1.171875 30.8125 -1.171875 
Q 23.6875 -1.171875 17.21875 2.046875 
Q 10.75 5.28125 7.375 11.5 
Q 4 17.71875 4 26.65625 
z
M 18.0625 25.921875 
Q 18.0625 18.21875 21.71875 14.109375 
Q 25.390625 10.015625 30.765625 10.015625 
Q 36.140625 10.015625 39.765625 14.109375 
Q 43.40625 18.21875 43.40625 26.03125 
Q 43.40625 33.640625 39.765625 37.734375 
Q 36.140625 41.84375 30.765625 41.84375 
Q 25.390625 41.84375 21.71875 37.734375 
Q 18.0625 33.640625 18.0625 25.921875 
z
" id="Arial-BoldMT-111"/>
       <path d="M 54.734375 0 
L 42 0 
L 42 7.625 
Q 38.8125 3.171875 34.484375 1 
Q 30.171875 -1.171875 25.78125 -1.171875 
Q 16.84375 -1.171875 10.46875 6.03125 
Q 4.109375 13.234375 4.109375 26.125 
Q 4.109375 39.3125 10.296875 46.171875 
Q 16.5 53.03125 25.984375 53.03125 
Q 34.671875 53.03125 41.015625 45.796875 
L 41.015625 71.578125 
L 54.734375 71.578125 
z
M 18.109375 27.046875 
Q 18.109375 18.75 20.40625 15.046875 
Q 23.734375 9.671875 29.6875 9.671875 
Q 34.421875 9.671875 37.734375 13.6875 
Q 41.0625 17.71875 41.0625 25.734375 
Q 41.0625 34.671875 37.84375 38.59375 
Q 34.625 42.53125 29.59375 42.53125 
Q 24.703125 42.53125 21.40625 38.640625 
Q 18.109375 34.765625 18.109375 27.046875 
z
" id="Arial-BoldMT-100"/>
       <path d="M 7.171875 58.890625 
L 7.171875 71.578125 
L 20.90625 71.578125 
L 20.90625 58.890625 
z
M 7.171875 0 
L 7.171875 51.859375 
L 20.90625 51.859375 
L 20.90625 0 
z
" id="Arial-BoldMT-105"/>
       <path d="M 1.171875 51.859375 
L 8.796875 51.859375 
L 8.796875 55.765625 
Q 8.796875 62.3125 10.1875 65.53125 
Q 11.578125 68.75 15.3125 70.765625 
Q 19.046875 72.796875 24.75 72.796875 
Q 30.609375 72.796875 36.234375 71.046875 
L 34.375 61.46875 
Q 31.109375 62.25 28.078125 62.25 
Q 25.09375 62.25 23.796875 60.859375 
Q 22.515625 59.46875 22.515625 55.515625 
L 22.515625 51.859375 
L 32.765625 51.859375 
L 32.765625 41.0625 
L 22.515625 41.0625 
L 22.515625 0 
L 8.796875 0 
L 8.796875 41.0625 
L 1.171875 41.0625 
z
" id="Arial-BoldMT-102"/>
       <path d="M 37.203125 16.5 
L 50.875 14.203125 
Q 48.25 6.6875 42.546875 2.75 
Q 36.859375 -1.171875 28.328125 -1.171875 
Q 14.796875 -1.171875 8.296875 7.671875 
Q 3.171875 14.75 3.171875 25.53125 
Q 3.171875 38.421875 9.90625 45.71875 
Q 16.65625 53.03125 26.953125 53.03125 
Q 38.53125 53.03125 45.21875 45.390625 
Q 51.90625 37.75 51.609375 21.96875 
L 17.234375 21.96875 
Q 17.390625 15.875 20.5625 12.46875 
Q 23.734375 9.078125 28.46875 9.078125 
Q 31.6875 9.078125 33.875 10.828125 
Q 36.078125 12.59375 37.203125 16.5 
z
M 37.984375 30.375 
Q 37.84375 36.328125 34.90625 39.421875 
Q 31.984375 42.53125 27.78125 42.53125 
Q 23.296875 42.53125 20.359375 39.265625 
Q 17.4375 35.984375 17.484375 30.375 
z
" id="Arial-BoldMT-101"/>
      </defs>
      <g style="fill:#262626;" transform="translate(128.339297 590.994453)scale(0.165 -0.165)">
       <use xlink:href="#Arial-BoldMT-77"/>
       <use x="83.300781" xlink:href="#Arial-BoldMT-111"/>
       <use x="144.384766" xlink:href="#Arial-BoldMT-100"/>
       <use x="205.46875" xlink:href="#Arial-BoldMT-105"/>
       <use x="233.251953" xlink:href="#Arial-BoldMT-102"/>
       <use x="266.552734" xlink:href="#Arial-BoldMT-105"/>
       <use x="294.335938" xlink:href="#Arial-BoldMT-101"/>
       <use x="349.951172" xlink:href="#Arial-BoldMT-100"/>
      </g>
     </g>
    </g>
    <g id="xtick_2">
     <g id="text_2">
      <!-- Modified Neighbour -->
      <defs>
       <path id="Arial-BoldMT-32"/>
       <path d="M 7.421875 0 
L 7.421875 71.578125 
L 21.484375 71.578125 
L 50.78125 23.78125 
L 50.78125 71.578125 
L 64.203125 71.578125 
L 64.203125 0 
L 49.703125 0 
L 20.84375 46.6875 
L 20.84375 0 
z
" id="Arial-BoldMT-78"/>
       <path d="M 5.90625 -3.421875 
L 21.578125 -5.328125 
Q 21.96875 -8.0625 23.390625 -9.078125 
Q 25.34375 -10.546875 29.546875 -10.546875 
Q 34.90625 -10.546875 37.59375 -8.9375 
Q 39.40625 -7.859375 40.328125 -5.46875 
Q 40.96875 -3.765625 40.96875 0.828125 
L 40.96875 8.40625 
Q 34.8125 0 25.4375 0 
Q 14.984375 0 8.890625 8.84375 
Q 4.109375 15.828125 4.109375 26.21875 
Q 4.109375 39.265625 10.375 46.140625 
Q 16.65625 53.03125 25.984375 53.03125 
Q 35.59375 53.03125 41.84375 44.578125 
L 41.84375 51.859375 
L 54.6875 51.859375 
L 54.6875 5.328125 
Q 54.6875 -3.859375 53.171875 -8.390625 
Q 51.65625 -12.9375 48.921875 -15.515625 
Q 46.1875 -18.109375 41.625 -19.578125 
Q 37.0625 -21.046875 30.078125 -21.046875 
Q 16.890625 -21.046875 11.375 -16.53125 
Q 5.859375 -12.015625 5.859375 -5.078125 
Q 5.859375 -4.390625 5.90625 -3.421875 
z
M 18.171875 27 
Q 18.171875 18.75 21.359375 14.90625 
Q 24.5625 11.078125 29.25 11.078125 
Q 34.28125 11.078125 37.75 15.015625 
Q 41.21875 18.953125 41.21875 26.65625 
Q 41.21875 34.71875 37.890625 38.625 
Q 34.578125 42.53125 29.5 42.53125 
Q 24.5625 42.53125 21.359375 38.6875 
Q 18.171875 34.859375 18.171875 27 
z
" id="Arial-BoldMT-103"/>
       <path d="M 20.84375 71.578125 
L 20.84375 45.265625 
Q 27.484375 53.03125 36.71875 53.03125 
Q 41.453125 53.03125 45.265625 51.265625 
Q 49.078125 49.515625 51 46.78125 
Q 52.9375 44.046875 53.640625 40.71875 
Q 54.34375 37.40625 54.34375 30.421875 
L 54.34375 0 
L 40.625 0 
L 40.625 27.390625 
Q 40.625 35.546875 39.84375 37.734375 
Q 39.0625 39.9375 37.078125 41.234375 
Q 35.109375 42.53125 32.125 42.53125 
Q 28.71875 42.53125 26.03125 40.859375 
Q 23.34375 39.203125 22.09375 35.859375 
Q 20.84375 32.515625 20.84375 25.984375 
L 20.84375 0 
L 7.125 0 
L 7.125 71.578125 
z
" id="Arial-BoldMT-104"/>
       <path d="M 6.59375 0 
L 6.59375 71.578125 
L 20.3125 71.578125 
L 20.3125 45.796875 
Q 26.65625 53.03125 35.359375 53.03125 
Q 44.828125 53.03125 51.03125 46.171875 
Q 57.234375 39.3125 57.234375 26.46875 
Q 57.234375 13.1875 50.90625 6 
Q 44.578125 -1.171875 35.546875 -1.171875 
Q 31.109375 -1.171875 26.78125 1.046875 
Q 22.46875 3.265625 19.34375 7.625 
L 19.34375 0 
z
M 20.21875 27.046875 
Q 20.21875 19 22.75 15.140625 
Q 26.3125 9.671875 32.234375 9.671875 
Q 36.765625 9.671875 39.96875 13.546875 
Q 43.171875 17.4375 43.171875 25.78125 
Q 43.171875 34.671875 39.9375 38.59375 
Q 36.71875 42.53125 31.6875 42.53125 
Q 26.765625 42.53125 23.484375 38.6875 
Q 20.21875 34.859375 20.21875 27.046875 
z
" id="Arial-BoldMT-98"/>
       <path d="M 41.3125 0 
L 41.3125 7.765625 
Q 38.484375 3.609375 33.859375 1.21875 
Q 29.25 -1.171875 24.125 -1.171875 
Q 18.890625 -1.171875 14.734375 1.125 
Q 10.59375 3.421875 8.734375 7.5625 
Q 6.890625 11.71875 6.890625 19.046875 
L 6.890625 51.859375 
L 20.609375 51.859375 
L 20.609375 28.03125 
Q 20.609375 17.09375 21.359375 14.625 
Q 22.125 12.15625 24.125 10.71875 
Q 26.125 9.28125 29.203125 9.28125 
Q 32.71875 9.28125 35.5 11.203125 
Q 38.28125 13.140625 39.296875 15.984375 
Q 40.328125 18.84375 40.328125 29.984375 
L 40.328125 51.859375 
L 54.046875 51.859375 
L 54.046875 0 
z
" id="Arial-BoldMT-117"/>
       <path d="M 20.3125 0 
L 6.59375 0 
L 6.59375 51.859375 
L 19.34375 51.859375 
L 19.34375 44.484375 
Q 22.609375 49.703125 25.21875 51.359375 
Q 27.828125 53.03125 31.15625 53.03125 
Q 35.84375 53.03125 40.1875 50.4375 
L 35.9375 38.484375 
Q 32.46875 40.71875 29.5 40.71875 
Q 26.609375 40.71875 24.609375 39.125 
Q 22.609375 37.546875 21.453125 33.390625 
Q 20.3125 29.25 20.3125 16.015625 
z
" id="Arial-BoldMT-114"/>
      </defs>
      <g style="fill:#262626;" transform="translate(270.803789 591.195547)scale(0.165 -0.165)">
       <use xlink:href="#Arial-BoldMT-77"/>
       <use x="83.300781" xlink:href="#Arial-BoldMT-111"/>
       <use x="144.384766" xlink:href="#Arial-BoldMT-100"/>
       <use x="205.46875" xlink:href="#Arial-BoldMT-105"/>
       <use x="233.251953" xlink:href="#Arial-BoldMT-102"/>
       <use x="266.552734" xlink:href="#Arial-BoldMT-105"/>
       <use x="294.335938" xlink:href="#Arial-BoldMT-101"/>
       <use x="349.951172" xlink:href="#Arial-BoldMT-100"/>
       <use x="411.035156" xlink:href="#Arial-BoldMT-32"/>
       <use x="438.818359" xlink:href="#Arial-BoldMT-78"/>
       <use x="511.035156" xlink:href="#Arial-BoldMT-101"/>
       <use x="566.650391" xlink:href="#Arial-BoldMT-105"/>
       <use x="594.433594" xlink:href="#Arial-BoldMT-103"/>
       <use x="655.517578" xlink:href="#Arial-BoldMT-104"/>
       <use x="716.601562" xlink:href="#Arial-BoldMT-98"/>
       <use x="777.685547" xlink:href="#Arial-BoldMT-111"/>
       <use x="838.769531" xlink:href="#Arial-BoldMT-117"/>
       <use x="899.853516" xlink:href="#Arial-BoldMT-114"/>
      </g>
     </g>
    </g>
    <g id="xtick_3">
     <g id="text_3">
      <!-- Unmodified -->
      <defs>
       <path d="M 7.171875 71.578125 
L 21.625 71.578125 
L 21.625 32.8125 
Q 21.625 23.578125 22.171875 20.84375 
Q 23.09375 16.453125 26.578125 13.796875 
Q 30.078125 11.140625 36.140625 11.140625 
Q 42.28125 11.140625 45.40625 13.640625 
Q 48.53125 16.15625 49.171875 19.8125 
Q 49.8125 23.484375 49.8125 31.984375 
L 49.8125 71.578125 
L 64.265625 71.578125 
L 64.265625 33.984375 
Q 64.265625 21.09375 63.09375 15.765625 
Q 61.921875 10.453125 58.765625 6.78125 
Q 55.609375 3.125 50.328125 0.953125 
Q 45.0625 -1.21875 36.578125 -1.21875 
Q 26.3125 -1.21875 21.015625 1.140625 
Q 15.71875 3.515625 12.640625 7.296875 
Q 9.578125 11.078125 8.59375 15.234375 
Q 7.171875 21.390625 7.171875 33.40625 
z
" id="Arial-BoldMT-85"/>
       <path d="M 54.34375 0 
L 40.625 0 
L 40.625 26.46875 
Q 40.625 34.859375 39.75 37.328125 
Q 38.875 39.796875 36.890625 41.15625 
Q 34.90625 42.53125 32.125 42.53125 
Q 28.5625 42.53125 25.734375 40.578125 
Q 22.90625 38.625 21.84375 35.390625 
Q 20.796875 32.171875 20.796875 23.484375 
L 20.796875 0 
L 7.078125 0 
L 7.078125 51.859375 
L 19.828125 51.859375 
L 19.828125 44.234375 
Q 26.609375 53.03125 36.921875 53.03125 
Q 41.453125 53.03125 45.203125 51.390625 
Q 48.96875 49.75 50.890625 47.203125 
Q 52.828125 44.671875 53.578125 41.453125 
Q 54.34375 38.234375 54.34375 32.234375 
z
" id="Arial-BoldMT-110"/>
       <path d="M 6.15625 51.859375 
L 18.796875 51.859375 
L 18.796875 44.78125 
Q 25.59375 53.03125 34.96875 53.03125 
Q 39.9375 53.03125 43.59375 50.96875 
Q 47.265625 48.921875 49.609375 44.78125 
Q 53.03125 48.921875 56.984375 50.96875 
Q 60.9375 53.03125 65.4375 53.03125 
Q 71.140625 53.03125 75.09375 50.703125 
Q 79.046875 48.390625 81 43.890625 
Q 82.421875 40.578125 82.421875 33.15625 
L 82.421875 0 
L 68.703125 0 
L 68.703125 29.640625 
Q 68.703125 37.359375 67.28125 39.59375 
Q 65.375 42.53125 61.421875 42.53125 
Q 58.546875 42.53125 56 40.765625 
Q 53.46875 39.015625 52.34375 35.625 
Q 51.21875 32.234375 51.21875 24.90625 
L 51.21875 0 
L 37.5 0 
L 37.5 28.421875 
Q 37.5 35.984375 36.765625 38.171875 
Q 36.03125 40.375 34.484375 41.453125 
Q 32.953125 42.53125 30.328125 42.53125 
Q 27.15625 42.53125 24.609375 40.8125 
Q 22.078125 39.109375 20.96875 35.890625 
Q 19.875 32.671875 19.875 25.203125 
L 19.875 0 
L 6.15625 0 
z
" id="Arial-BoldMT-109"/>
      </defs>
      <g style="fill:#262626;" transform="translate(488.878242 590.994453)scale(0.165 -0.165)">
       <use xlink:href="#Arial-BoldMT-85"/>
       <use x="72.216797" xlink:href="#Arial-BoldMT-110"/>
       <use x="133.300781" xlink:href="#Arial-BoldMT-109"/>
       <use x="222.216797" xlink:href="#Arial-BoldMT-111"/>
       <use x="283.300781" xlink:href="#Arial-BoldMT-100"/>
       <use x="344.384766" xlink:href="#Arial-BoldMT-105"/>
       <use x="372.167969" xlink:href="#Arial-BoldMT-102"/>
       <use x="405.46875" xlink:href="#Arial-BoldMT-105"/>
       <use x="433.251953" xlink:href="#Arial-BoldMT-101"/>
       <use x="488.867188" xlink:href="#Arial-BoldMT-100"/>
      </g>
     </g>
    </g>
   </g>
   <g id="matplotlib.axis_2">
    <g id="ytick_1">
     <g id="text_4">
      <!-- 0.00 -->
      <defs>
       <path d="M 27.4375 71.875 
Q 37.84375 71.875 43.703125 64.453125 
Q 50.6875 55.671875 50.6875 35.296875 
Q 50.6875 14.984375 43.65625 6.109375 
Q 37.84375 -1.21875 27.4375 -1.21875 
Q 17 -1.21875 10.59375 6.8125 
Q 4.203125 14.84375 4.203125 35.453125 
Q 4.203125 55.671875 11.234375 64.546875 
Q 17.046875 71.875 27.4375 71.875 
z
M 27.4375 60.5 
Q 24.953125 60.5 23 58.90625 
Q 21.046875 57.328125 19.96875 53.21875 
Q 18.5625 47.90625 18.5625 35.296875 
Q 18.5625 22.703125 19.828125 17.984375 
Q 21.09375 13.28125 23.015625 11.71875 
Q 24.953125 10.15625 27.4375 10.15625 
Q 29.9375 10.15625 31.890625 11.734375 
Q 33.84375 13.328125 34.90625 17.4375 
Q 36.328125 22.703125 36.328125 35.296875 
Q 36.328125 47.90625 35.0625 52.609375 
Q 33.796875 57.328125 31.859375 58.90625 
Q 29.9375 60.5 27.4375 60.5 
z
" id="Arial-BoldMT-48"/>
       <path d="M 7.171875 0 
L 7.171875 13.71875 
L 20.90625 13.71875 
L 20.90625 0 
z
" id="Arial-BoldMT-46"/>
      </defs>
      <g style="fill:#262626;" transform="translate(27.63625 565.937781)scale(0.165 -0.165)">
       <use xlink:href="#Arial-BoldMT-48"/>
       <use x="55.615234" xlink:href="#Arial-BoldMT-46"/>
       <use x="83.398438" xlink:href="#Arial-BoldMT-48"/>
       <use x="139.013672" xlink:href="#Arial-BoldMT-48"/>
      </g>
     </g>
    </g>
    <g id="ytick_2">
     <g id="text_5">
      <!-- 0.02 -->
      <defs>
       <path d="M 50.59375 12.75 
L 50.59375 0 
L 2.484375 0 
Q 3.265625 7.234375 7.171875 13.703125 
Q 11.078125 20.171875 22.609375 30.859375 
Q 31.890625 39.5 33.984375 42.578125 
Q 36.8125 46.828125 36.8125 50.984375 
Q 36.8125 55.5625 34.34375 58.03125 
Q 31.890625 60.5 27.546875 60.5 
Q 23.25 60.5 20.703125 57.90625 
Q 18.171875 55.328125 17.78125 49.3125 
L 4.109375 50.6875 
Q 5.328125 62.015625 11.765625 66.9375 
Q 18.21875 71.875 27.875 71.875 
Q 38.484375 71.875 44.53125 66.15625 
Q 50.59375 60.453125 50.59375 51.953125 
Q 50.59375 47.125 48.859375 42.75 
Q 47.125 38.375 43.359375 33.59375 
Q 40.875 30.421875 34.375 24.453125 
Q 27.875 18.5 26.140625 16.546875 
Q 24.421875 14.59375 23.34375 12.75 
z
" id="Arial-BoldMT-50"/>
      </defs>
      <g style="fill:#262626;" transform="translate(27.63625 469.696957)scale(0.165 -0.165)">
       <use xlink:href="#Arial-BoldMT-48"/>
       <use x="55.615234" xlink:href="#Arial-BoldMT-46"/>
       <use x="83.398438" xlink:href="#Arial-BoldMT-48"/>
       <use x="139.013672" xlink:href="#Arial-BoldMT-50"/>
      </g>
     </g>
    </g>
    <g id="ytick_3">
     <g id="text_6">
      <!-- 0.04 -->
      <defs>
       <path d="M 31.15625 0 
L 31.15625 14.40625 
L 1.859375 14.40625 
L 1.859375 26.421875 
L 32.90625 71.875 
L 44.4375 71.875 
L 44.4375 26.46875 
L 53.328125 26.46875 
L 53.328125 14.40625 
L 44.4375 14.40625 
L 44.4375 0 
z
M 31.15625 26.46875 
L 31.15625 50.921875 
L 14.703125 26.46875 
z
" id="Arial-BoldMT-52"/>
      </defs>
      <g style="fill:#262626;" transform="translate(27.63625 373.456133)scale(0.165 -0.165)">
       <use xlink:href="#Arial-BoldMT-48"/>
       <use x="55.615234" xlink:href="#Arial-BoldMT-46"/>
       <use x="83.398438" xlink:href="#Arial-BoldMT-48"/>
       <use x="139.013672" xlink:href="#Arial-BoldMT-52"/>
      </g>
     </g>
    </g>
    <g id="ytick_4">
     <g id="text_7">
      <!-- 0.06 -->
      <defs>
       <path d="M 50.734375 54.046875 
L 37.453125 52.59375 
Q 36.96875 56.6875 34.90625 58.640625 
Q 32.859375 60.59375 29.59375 60.59375 
Q 25.25 60.59375 22.234375 56.6875 
Q 19.234375 52.78125 18.453125 40.4375 
Q 23.578125 46.484375 31.203125 46.484375 
Q 39.796875 46.484375 45.921875 39.9375 
Q 52.046875 33.40625 52.046875 23.046875 
Q 52.046875 12.0625 45.59375 5.421875 
Q 39.15625 -1.21875 29.046875 -1.21875 
Q 18.21875 -1.21875 11.234375 7.203125 
Q 4.25 15.625 4.25 34.8125 
Q 4.25 54.5 11.515625 63.1875 
Q 18.796875 71.875 30.421875 71.875 
Q 38.578125 71.875 43.921875 67.3125 
Q 49.265625 62.75 50.734375 54.046875 
z
M 19.625 24.125 
Q 19.625 17.4375 22.703125 13.796875 
Q 25.78125 10.15625 29.734375 10.15625 
Q 33.546875 10.15625 36.078125 13.125 
Q 38.625 16.109375 38.625 22.90625 
Q 38.625 29.890625 35.890625 33.125 
Q 33.15625 36.375 29.046875 36.375 
Q 25.09375 36.375 22.359375 33.265625 
Q 19.625 30.171875 19.625 24.125 
z
" id="Arial-BoldMT-54"/>
      </defs>
      <g style="fill:#262626;" transform="translate(27.63625 277.215309)scale(0.165 -0.165)">
       <use xlink:href="#Arial-BoldMT-48"/>
       <use x="55.615234" xlink:href="#Arial-BoldMT-46"/>
       <use x="83.398438" xlink:href="#Arial-BoldMT-48"/>
       <use x="139.013672" xlink:href="#Arial-BoldMT-54"/>
      </g>
     </g>
    </g>
    <g id="ytick_5">
     <g id="text_8">
      <!-- 0.08 -->
      <defs>
       <path d="M 16.015625 38.625 
Q 10.6875 40.875 8.265625 44.796875 
Q 5.859375 48.734375 5.859375 53.421875 
Q 5.859375 61.421875 11.453125 66.640625 
Q 17.046875 71.875 27.34375 71.875 
Q 37.546875 71.875 43.1875 66.640625 
Q 48.828125 61.421875 48.828125 53.421875 
Q 48.828125 48.4375 46.234375 44.546875 
Q 43.65625 40.671875 38.96875 38.625 
Q 44.921875 36.234375 48.015625 31.640625 
Q 51.125 27.046875 51.125 21.046875 
Q 51.125 11.140625 44.796875 4.9375 
Q 38.484375 -1.265625 27.984375 -1.265625 
Q 18.21875 -1.265625 11.71875 3.859375 
Q 4.046875 9.90625 4.046875 20.453125 
Q 4.046875 26.265625 6.921875 31.125 
Q 9.8125 35.984375 16.015625 38.625 
z
M 18.84375 52.4375 
Q 18.84375 48.34375 21.15625 46.046875 
Q 23.484375 43.75 27.34375 43.75 
Q 31.25 43.75 33.59375 46.0625 
Q 35.9375 48.390625 35.9375 52.484375 
Q 35.9375 56.34375 33.609375 58.65625 
Q 31.296875 60.984375 27.484375 60.984375 
Q 23.53125 60.984375 21.1875 58.640625 
Q 18.84375 56.296875 18.84375 52.4375 
z
M 17.578125 21.78125 
Q 17.578125 16.109375 20.484375 12.9375 
Q 23.390625 9.765625 27.734375 9.765625 
Q 31.984375 9.765625 34.765625 12.8125 
Q 37.546875 15.875 37.546875 21.625 
Q 37.546875 26.65625 34.71875 29.703125 
Q 31.890625 32.765625 27.546875 32.765625 
Q 22.515625 32.765625 20.046875 29.296875 
Q 17.578125 25.828125 17.578125 21.78125 
z
" id="Arial-BoldMT-56"/>
      </defs>
      <g style="fill:#262626;" transform="translate(27.63625 180.974485)scale(0.165 -0.165)">
       <use xlink:href="#Arial-BoldMT-48"/>
       <use x="55.615234" xlink:href="#Arial-BoldMT-46"/>
       <use x="83.398438" xlink:href="#Arial-BoldMT-48"/>
       <use x="139.013672" xlink:href="#Arial-BoldMT-56"/>
      </g>
     </g>
    </g>
    <g id="ytick_6">
     <g id="text_9">
      <!-- 0.10 -->
      <defs>
       <path d="M 39.359375 0 
L 25.640625 0 
L 25.640625 51.703125 
Q 18.109375 44.671875 7.90625 41.3125 
L 7.90625 53.765625 
Q 13.28125 55.515625 19.578125 60.421875 
Q 25.875 65.328125 28.21875 71.875 
L 39.359375 71.875 
z
" id="Arial-BoldMT-49"/>
      </defs>
      <g style="fill:#262626;" transform="translate(27.63625 84.73366)scale(0.165 -0.165)">
       <use xlink:href="#Arial-BoldMT-48"/>
       <use x="55.615234" xlink:href="#Arial-BoldMT-46"/>
       <use x="83.398438" xlink:href="#Arial-BoldMT-49"/>
       <use x="139.013672" xlink:href="#Arial-BoldMT-48"/>
      </g>
     </g>
    </g>
    <g id="text_10">
     <!-- Dwell time median -->
     <defs>
      <path d="M 7.234375 71.578125 
L 33.640625 71.578125 
Q 42.578125 71.578125 47.265625 70.21875 
Q 53.5625 68.359375 58.046875 63.625 
Q 62.546875 58.890625 64.890625 52.03125 
Q 67.234375 45.171875 67.234375 35.109375 
Q 67.234375 26.265625 65.046875 19.875 
Q 62.359375 12.0625 57.375 7.234375 
Q 53.609375 3.5625 47.21875 1.515625 
Q 42.4375 0 34.421875 0 
L 7.234375 0 
z
M 21.6875 59.46875 
L 21.6875 12.0625 
L 32.46875 12.0625 
Q 38.53125 12.0625 41.21875 12.75 
Q 44.734375 13.625 47.046875 15.71875 
Q 49.359375 17.828125 50.828125 22.625 
Q 52.296875 27.4375 52.296875 35.75 
Q 52.296875 44.046875 50.828125 48.484375 
Q 49.359375 52.9375 46.71875 55.421875 
Q 44.09375 57.90625 40.046875 58.796875 
Q 37.015625 59.46875 28.171875 59.46875 
z
" id="Arial-BoldMT-68"/>
      <path d="M 16.84375 0 
L 0.4375 51.859375 
L 13.765625 51.859375 
L 23.484375 17.875 
L 32.421875 51.859375 
L 45.65625 51.859375 
L 54.296875 17.875 
L 64.203125 51.859375 
L 77.734375 51.859375 
L 61.078125 0 
L 47.90625 0 
L 38.96875 33.34375 
L 30.171875 0 
z
" id="Arial-BoldMT-119"/>
      <path d="M 7.171875 0 
L 7.171875 71.578125 
L 20.90625 71.578125 
L 20.90625 0 
z
" id="Arial-BoldMT-108"/>
      <path d="M 30.953125 51.859375 
L 30.953125 40.921875 
L 21.578125 40.921875 
L 21.578125 20.015625 
Q 21.578125 13.671875 21.84375 12.625 
Q 22.125 11.578125 23.078125 10.890625 
Q 24.03125 10.203125 25.390625 10.203125 
Q 27.296875 10.203125 30.90625 11.53125 
L 32.078125 0.875 
Q 27.296875 -1.171875 21.234375 -1.171875 
Q 17.53125 -1.171875 14.546875 0.0625 
Q 11.578125 1.3125 10.1875 3.296875 
Q 8.796875 5.28125 8.25 8.640625 
Q 7.8125 11.03125 7.8125 18.3125 
L 7.8125 40.921875 
L 1.515625 40.921875 
L 1.515625 51.859375 
L 7.8125 51.859375 
L 7.8125 62.15625 
L 21.578125 70.171875 
L 21.578125 51.859375 
z
" id="Arial-BoldMT-116"/>
      <path d="M 17.4375 36.03125 
L 4.984375 38.28125 
Q 7.078125 45.796875 12.203125 49.40625 
Q 17.328125 53.03125 27.4375 53.03125 
Q 36.625 53.03125 41.109375 50.859375 
Q 45.609375 48.6875 47.4375 45.34375 
Q 49.265625 42 49.265625 33.0625 
L 49.125 17.046875 
Q 49.125 10.203125 49.78125 6.953125 
Q 50.4375 3.71875 52.25 0 
L 38.671875 0 
Q 38.140625 1.375 37.359375 4.046875 
Q 37.015625 5.28125 36.859375 5.671875 
Q 33.34375 2.25 29.34375 0.53125 
Q 25.34375 -1.171875 20.796875 -1.171875 
Q 12.796875 -1.171875 8.171875 3.171875 
Q 3.5625 7.515625 3.5625 14.15625 
Q 3.5625 18.5625 5.65625 22 
Q 7.765625 25.4375 11.546875 27.265625 
Q 15.328125 29.109375 22.46875 30.46875 
Q 32.078125 32.28125 35.796875 33.84375 
L 35.796875 35.203125 
Q 35.796875 39.15625 33.84375 40.84375 
Q 31.890625 42.53125 26.46875 42.53125 
Q 22.796875 42.53125 20.75 41.09375 
Q 18.703125 39.65625 17.4375 36.03125 
z
M 35.796875 24.90625 
Q 33.15625 24.03125 27.4375 22.796875 
Q 21.734375 21.578125 19.96875 20.40625 
Q 17.28125 18.5 17.28125 15.578125 
Q 17.28125 12.703125 19.421875 10.59375 
Q 21.578125 8.5 24.90625 8.5 
Q 28.609375 8.5 31.984375 10.9375 
Q 34.46875 12.796875 35.25 15.484375 
Q 35.796875 17.234375 35.796875 22.171875 
z
" id="Arial-BoldMT-97"/>
     </defs>
     <g style="fill:#262626;" transform="translate(20.084062 376.402031)rotate(-90)scale(0.18 -0.18)">
      <use xlink:href="#Arial-BoldMT-68"/>
      <use x="72.216797" xlink:href="#Arial-BoldMT-119"/>
      <use x="150" xlink:href="#Arial-BoldMT-101"/>
      <use x="205.615234" xlink:href="#Arial-BoldMT-108"/>
      <use x="233.398438" xlink:href="#Arial-BoldMT-108"/>
      <use x="261.181641" xlink:href="#Arial-BoldMT-32"/>
      <use x="288.964844" xlink:href="#Arial-BoldMT-116"/>
      <use x="322.265625" xlink:href="#Arial-BoldMT-105"/>
      <use x="350.048828" xlink:href="#Arial-BoldMT-109"/>
      <use x="438.964844" xlink:href="#Arial-BoldMT-101"/>
      <use x="494.580078" xlink:href="#Arial-BoldMT-32"/>
      <use x="522.363281" xlink:href="#Arial-BoldMT-109"/>
      <use x="611.279297" xlink:href="#Arial-BoldMT-101"/>
      <use x="666.894531" xlink:href="#Arial-BoldMT-100"/>
      <use x="727.978516" xlink:href="#Arial-BoldMT-105"/>
      <use x="755.761719" xlink:href="#Arial-BoldMT-97"/>
      <use x="811.376953" xlink:href="#Arial-BoldMT-110"/>
     </g>
    </g>
   </g>
   <g id="PolyCollection_1">
    <defs>
     <path d="M 162.351159 -139.811548 
L 162.142434 -139.811548 
L 162.091821 -143.965726 
L 162.021471 -148.119904 
L 161.925816 -152.274081 
L 161.798493 -156.428259 
L 161.632469 -160.582436 
L 161.420237 -164.736614 
L 161.154088 -168.890791 
L 160.826456 -173.044969 
L 160.430326 -177.199147 
L 159.959692 -181.353324 
L 159.410045 -185.507502 
L 158.778884 -189.661679 
L 158.066188 -193.815857 
L 157.274859 -197.970034 
L 156.411075 -202.124212 
L 155.484527 -206.27839 
L 154.508515 -210.432567 
L 153.499868 -214.586745 
L 152.478655 -218.740922 
L 151.46767 -222.8951 
L 150.491688 -227.049277 
L 149.576474 -231.203455 
L 148.747612 -235.357633 
L 148.029209 -239.51181 
L 147.442595 -243.665988 
L 147.005135 -247.820165 
L 146.729288 -251.974343 
L 146.622017 -256.12852 
L 146.684583 -260.282698 
L 146.912733 -264.436876 
L 147.297202 -268.591053 
L 147.82444 -272.745231 
L 148.477453 -276.899408 
L 149.236672 -281.053586 
L 150.080788 -285.207763 
L 150.987532 -289.361941 
L 151.934391 -293.516119 
L 152.89928 -297.670296 
L 153.861168 -301.824474 
L 154.800649 -305.978651 
L 155.700458 -310.132829 
L 156.545896 -314.287006 
L 157.325149 -318.441184 
L 158.029479 -322.595362 
L 158.65327 -326.749539 
L 159.193932 -330.903717 
L 159.651663 -335.057894 
L 160.029096 -339.212072 
L 160.330846 -343.366249 
L 160.563019 -347.520427 
L 160.732722 -351.674604 
L 160.847611 -355.828782 
L 160.915526 -359.98296 
L 160.944219 -364.137137 
L 160.941166 -368.291315 
L 160.913453 -372.445492 
L 160.867699 -376.59967 
L 160.809983 -380.753847 
L 160.745772 -384.908025 
L 160.679842 -389.062203 
L 160.616208 -393.21638 
L 160.558081 -397.370558 
L 160.507874 -401.524735 
L 160.467265 -405.678913 
L 160.4373 -409.83309 
L 160.418531 -413.987268 
L 160.411151 -418.141446 
L 160.415093 -422.295623 
L 160.430094 -426.449801 
L 160.455702 -430.603978 
L 160.491248 -434.758156 
L 160.53581 -438.912333 
L 160.588179 -443.066511 
L 160.64688 -447.220689 
L 160.710239 -451.374866 
L 160.776508 -455.529044 
L 160.844037 -459.683221 
L 160.911449 -463.837399 
L 160.977814 -467.991576 
L 161.042749 -472.145754 
L 161.106446 -476.299932 
L 161.169601 -480.454109 
L 161.233247 -484.608287 
L 161.29852 -488.762464 
L 161.366406 -492.916642 
L 161.437497 -497.070819 
L 161.51182 -501.224997 
L 161.588768 -505.379175 
L 161.667132 -509.533352 
L 161.745245 -513.68753 
L 161.821192 -517.841707 
L 161.893051 -521.995885 
L 161.959124 -526.150062 
L 162.018112 -530.30424 
L 162.069222 -534.458418 
L 162.112192 -538.612595 
L 162.147244 -542.766773 
L 162.174989 -546.92095 
L 162.1963 -551.075128 
L 162.297294 -551.075128 
L 162.297294 -551.075128 
L 162.318605 -546.92095 
L 162.34635 -542.766773 
L 162.381402 -538.612595 
L 162.424372 -534.458418 
L 162.475482 -530.30424 
L 162.53447 -526.150062 
L 162.600543 -521.995885 
L 162.672402 -517.841707 
L 162.748349 -513.68753 
L 162.826462 -509.533352 
L 162.904826 -505.379175 
L 162.981773 -501.224997 
L 163.056097 -497.070819 
L 163.127187 -492.916642 
L 163.195073 -488.762464 
L 163.260347 -484.608287 
L 163.323992 -480.454109 
L 163.387148 -476.299932 
L 163.450845 -472.145754 
L 163.51578 -467.991576 
L 163.582145 -463.837399 
L 163.649557 -459.683221 
L 163.717085 -455.529044 
L 163.783355 -451.374866 
L 163.846714 -447.220689 
L 163.905415 -443.066511 
L 163.957784 -438.912333 
L 164.002345 -434.758156 
L 164.037892 -430.603978 
L 164.0635 -426.449801 
L 164.078501 -422.295623 
L 164.082443 -418.141446 
L 164.075063 -413.987268 
L 164.056294 -409.83309 
L 164.026329 -405.678913 
L 163.985719 -401.524735 
L 163.935513 -397.370558 
L 163.877386 -393.21638 
L 163.813752 -389.062203 
L 163.747822 -384.908025 
L 163.683611 -380.753847 
L 163.625894 -376.59967 
L 163.580141 -372.445492 
L 163.552428 -368.291315 
L 163.549375 -364.137137 
L 163.578067 -359.98296 
L 163.645983 -355.828782 
L 163.760872 -351.674604 
L 163.930575 -347.520427 
L 164.162748 -343.366249 
L 164.464498 -339.212072 
L 164.84193 -335.057894 
L 165.299662 -330.903717 
L 165.840324 -326.749539 
L 166.464114 -322.595362 
L 167.168445 -318.441184 
L 167.947698 -314.287006 
L 168.793136 -310.132829 
L 169.692945 -305.978651 
L 170.632426 -301.824474 
L 171.594313 -297.670296 
L 172.559203 -293.516119 
L 173.506062 -289.361941 
L 174.412806 -285.207763 
L 175.256922 -281.053586 
L 176.016141 -276.899408 
L 176.669154 -272.745231 
L 177.196392 -268.591053 
L 177.580861 -264.436876 
L 177.80901 -260.282698 
L 177.871576 -256.12852 
L 177.764305 -251.974343 
L 177.488459 -247.820165 
L 177.050999 -243.665988 
L 176.464385 -239.51181 
L 175.745982 -235.357633 
L 174.917119 -231.203455 
L 174.001905 -227.049277 
L 173.025923 -222.8951 
L 172.014939 -218.740922 
L 170.993725 -214.586745 
L 169.985078 -210.432567 
L 169.009067 -206.27839 
L 168.082519 -202.124212 
L 167.218735 -197.970034 
L 166.427406 -193.815857 
L 165.71471 -189.661679 
L 165.083548 -185.507502 
L 164.533902 -181.353324 
L 164.063267 -177.199147 
L 163.667137 -173.044969 
L 163.339506 -168.890791 
L 163.073357 -164.736614 
L 162.861125 -160.582436 
L 162.695101 -156.428259 
L 162.567778 -152.274081 
L 162.472122 -148.119904 
L 162.401772 -143.965726 
L 162.351159 -139.811548 
z
" id="m7ab63b1401" style="stroke:#6f6f6f;stroke-width:2.5;"/>
    </defs>
    <g clip-path="url(#p73276e8e55)">
     <use style="fill:#abc9ea;stroke:#6f6f6f;stroke-width:2.5;" x="0" xlink:href="#m7ab63b1401" y="601.868281"/>
    </g>
   </g>
   <g id="PolyCollection_2">
    <defs>
     <path d="M 348.281488 -73.943414 
L 348.212106 -73.943414 
L 348.185781 -76.311406 
L 348.14611 -78.679399 
L 348.090513 -81.047391 
L 348.01777 -83.415384 
L 347.928167 -85.783377 
L 347.822552 -88.151369 
L 347.700006 -90.519362 
L 347.554425 -92.887354 
L 347.37096 -95.255347 
L 347.123702 -97.62334 
L 346.776032 -99.991332 
L 346.284473 -102.359325 
L 345.605848 -104.727317 
L 344.706416 -107.09531 
L 343.570683 -109.463303 
L 342.207543 -111.831295 
L 340.652129 -114.199288 
L 338.963225 -116.56728 
L 337.217204 -118.935273 
L 335.499689 -121.303266 
L 333.895354 -123.671258 
L 332.475631 -126.039251 
L 331.284711 -128.407243 
L 330.326434 -130.775236 
L 329.557231 -133.143229 
L 328.89084 -135.511221 
L 328.217556 -137.879214 
L 327.43474 -140.247206 
L 326.479155 -142.615199 
L 325.34916 -144.983191 
L 324.107983 -147.351184 
L 322.867026 -149.719177 
L 321.756465 -152.087169 
L 320.894871 -154.455162 
L 320.368247 -156.823154 
L 320.223006 -159.191147 
L 320.470698 -161.55914 
L 321.098225 -163.927132 
L 322.077242 -166.295125 
L 323.369413 -168.663117 
L 324.927823 -171.03111 
L 326.697008 -173.399103 
L 328.614157 -175.767095 
L 330.612525 -178.135088 
L 332.626354 -180.50308 
L 334.595581 -182.871073 
L 336.468711 -185.239066 
L 338.203251 -187.607058 
L 339.764547 -189.975051 
L 341.124817 -192.343043 
L 342.264152 -194.711036 
L 343.173929 -197.079029 
L 343.86113 -199.447021 
L 344.350606 -201.815014 
L 344.682635 -204.183006 
L 344.90526 -206.550999 
L 345.063851 -208.918992 
L 345.192216 -211.286984 
L 345.309019 -213.654977 
L 345.420513 -216.022969 
L 345.527249 -218.390962 
L 345.630574 -220.758954 
L 345.735404 -223.126947 
L 345.848409 -225.49494 
L 345.973615 -227.862932 
L 346.108805 -230.230925 
L 346.24527 -232.598917 
L 346.371243 -234.96691 
L 346.477093 -237.334903 
L 346.559541 -239.702895 
L 346.622845 -242.070888 
L 346.676672 -244.43888 
L 346.731957 -246.806873 
L 346.796766 -249.174866 
L 346.873852 -251.542858 
L 346.960598 -253.910851 
L 347.05095 -256.278843 
L 347.138187 -258.646836 
L 347.217305 -261.014829 
L 347.286197 -263.382821 
L 347.345547 -265.750814 
L 347.397879 -268.118806 
L 347.446406 -270.486799 
L 347.49413 -272.854792 
L 347.543309 -275.222784 
L 347.595246 -277.590777 
L 347.650304 -279.958769 
L 347.708111 -282.326762 
L 347.767879 -284.694754 
L 347.828709 -287.062747 
L 347.889698 -289.43074 
L 347.94983 -291.798732 
L 348.007769 -294.166725 
L 348.061782 -296.534717 
L 348.109957 -298.90271 
L 348.150648 -301.270703 
L 348.182934 -303.638695 
L 348.206861 -306.006688 
L 348.22336 -308.37468 
L 348.270234 -308.37468 
L 348.270234 -308.37468 
L 348.286733 -306.006688 
L 348.31066 -303.638695 
L 348.342946 -301.270703 
L 348.383637 -298.90271 
L 348.431812 -296.534717 
L 348.485825 -294.166725 
L 348.543763 -291.798732 
L 348.603896 -289.43074 
L 348.664885 -287.062747 
L 348.725715 -284.694754 
L 348.785483 -282.326762 
L 348.843289 -279.958769 
L 348.898348 -277.590777 
L 348.950285 -275.222784 
L 348.999464 -272.854792 
L 349.047188 -270.486799 
L 349.095715 -268.118806 
L 349.148047 -265.750814 
L 349.207397 -263.382821 
L 349.276289 -261.014829 
L 349.355406 -258.646836 
L 349.442643 -256.278843 
L 349.532996 -253.910851 
L 349.619742 -251.542858 
L 349.696827 -249.174866 
L 349.761637 -246.806873 
L 349.816922 -244.43888 
L 349.870749 -242.070888 
L 349.934053 -239.702895 
L 350.016501 -237.334903 
L 350.122351 -234.96691 
L 350.248323 -232.598917 
L 350.384789 -230.230925 
L 350.519978 -227.862932 
L 350.645185 -225.49494 
L 350.75819 -223.126947 
L 350.86302 -220.758954 
L 350.966345 -218.390962 
L 351.073081 -216.022969 
L 351.184575 -213.654977 
L 351.301378 -211.286984 
L 351.429743 -208.918992 
L 351.588334 -206.550999 
L 351.810958 -204.183006 
L 352.142988 -201.815014 
L 352.632464 -199.447021 
L 353.319665 -197.079029 
L 354.229442 -194.711036 
L 355.368777 -192.343043 
L 356.729047 -189.975051 
L 358.290343 -187.607058 
L 360.024883 -185.239066 
L 361.898013 -182.871073 
L 363.86724 -180.50308 
L 365.881068 -178.135088 
L 367.879436 -175.767095 
L 369.796586 -173.399103 
L 371.565771 -171.03111 
L 373.12418 -168.663117 
L 374.416352 -166.295125 
L 375.395369 -163.927132 
L 376.022895 -161.55914 
L 376.270587 -159.191147 
L 376.125347 -156.823154 
L 375.598723 -154.455162 
L 374.737128 -152.087169 
L 373.626567 -149.719177 
L 372.385611 -147.351184 
L 371.144434 -144.983191 
L 370.014439 -142.615199 
L 369.058854 -140.247206 
L 368.276038 -137.879214 
L 367.602754 -135.511221 
L 366.936363 -133.143229 
L 366.16716 -130.775236 
L 365.208883 -128.407243 
L 364.017963 -126.039251 
L 362.59824 -123.671258 
L 360.993905 -121.303266 
L 359.27639 -118.935273 
L 357.530369 -116.56728 
L 355.841464 -114.199288 
L 354.286051 -111.831295 
L 352.92291 -109.463303 
L 351.787178 -107.09531 
L 350.887745 -104.727317 
L 350.209121 -102.359325 
L 349.717561 -99.991332 
L 349.369892 -97.62334 
L 349.122634 -95.255347 
L 348.939169 -92.887354 
L 348.793588 -90.519362 
L 348.671041 -88.151369 
L 348.565427 -85.783377 
L 348.475824 -83.415384 
L 348.40308 -81.047391 
L 348.347484 -78.679399 
L 348.307813 -76.311406 
L 348.281488 -73.943414 
z
" id="mc746a42a2a" style="stroke:#6f6f6f;stroke-width:2.5;"/>
    </defs>
    <g clip-path="url(#p73276e8e55)">
     <use style="fill:#efb792;stroke:#6f6f6f;stroke-width:2.5;" x="0" xlink:href="#mc746a42a2a" y="601.868281"/>
    </g>
   </g>
   <g id="PolyCollection_3">
    <defs>
     <path d="M 534.266979 -56.89331 
L 534.226614 -56.89331 
L 534.190255 -57.92648 
L 534.106669 -58.959651 
L 533.932873 -59.992822 
L 533.60245 -61.025992 
L 533.029573 -62.059163 
L 532.127614 -63.092334 
L 530.828141 -64.125505 
L 529.075633 -65.158675 
L 526.804878 -66.191846 
L 523.945907 -67.225017 
L 520.47016 -68.258187 
L 516.417164 -69.291358 
L 511.846773 -70.324529 
L 506.77262 -71.357699 
L 501.192704 -72.39087 
L 495.213729 -73.424041 
L 489.102016 -74.457211 
L 483.151322 -75.490382 
L 477.508436 -76.523553 
L 472.189069 -77.556723 
L 467.297644 -78.589894 
L 463.2174 -79.623065 
L 460.555294 -80.656236 
L 459.846797 -81.689406 
L 461.200827 -82.722577 
L 464.109401 -83.755748 
L 467.608519 -84.788918 
L 470.78186 -85.822089 
L 473.26481 -86.85526 
L 475.330832 -87.88843 
L 477.532666 -88.921601 
L 480.269803 -89.954772 
L 483.615829 -90.987942 
L 487.420181 -92.021113 
L 491.4761 -93.054284 
L 495.581728 -94.087455 
L 499.516464 -95.120625 
L 503.063743 -96.153796 
L 506.109543 -97.186967 
L 508.698751 -98.220137 
L 510.967361 -99.253308 
L 513.038532 -100.286479 
L 514.999931 -101.319649 
L 516.919896 -102.35282 
L 518.806833 -103.385991 
L 520.568157 -104.419161 
L 522.075564 -105.452332 
L 523.279231 -106.485503 
L 524.237358 -107.518674 
L 525.060273 -108.551844 
L 525.855091 -109.585015 
L 526.688647 -110.618186 
L 527.546684 -111.651356 
L 528.324899 -112.684527 
L 528.8972 -113.717698 
L 529.22185 -114.750868 
L 529.392661 -115.784039 
L 529.586779 -116.81721 
L 529.944026 -117.85038 
L 530.471919 -118.883551 
L 531.059714 -119.916722 
L 531.586662 -120.949893 
L 532.014071 -121.983063 
L 532.377837 -123.016234 
L 532.714331 -124.049405 
L 533.011951 -125.082575 
L 533.230678 -126.115746 
L 533.353214 -127.148917 
L 533.408145 -128.182087 
L 533.44593 -129.215258 
L 533.500258 -130.248429 
L 533.574772 -131.281599 
L 533.658707 -132.31477 
L 533.745209 -133.347941 
L 533.833412 -134.381112 
L 533.91997 -135.414282 
L 533.996452 -136.447453 
L 534.05713 -137.480624 
L 534.105011 -138.513794 
L 534.146688 -139.546965 
L 534.183894 -140.580136 
L 534.213205 -141.613306 
L 534.231953 -142.646477 
L 534.241439 -143.679648 
L 534.245202 -144.712818 
L 534.246253 -145.745989 
L 534.245869 -146.77916 
L 534.243338 -147.812331 
L 534.23553 -148.845501 
L 534.216892 -149.878672 
L 534.182251 -150.911843 
L 534.133466 -151.945013 
L 534.084848 -152.978184 
L 534.058398 -154.011355 
L 534.068352 -155.044525 
L 534.10919 -156.077696 
L 534.160422 -157.110867 
L 534.202682 -158.144037 
L 534.228472 -159.177208 
L 534.265121 -159.177208 
L 534.265121 -159.177208 
L 534.290912 -158.144037 
L 534.333171 -157.110867 
L 534.384403 -156.077696 
L 534.425242 -155.044525 
L 534.435196 -154.011355 
L 534.408746 -152.978184 
L 534.360128 -151.945013 
L 534.311342 -150.911843 
L 534.276702 -149.878672 
L 534.258064 -148.845501 
L 534.250256 -147.812331 
L 534.247725 -146.77916 
L 534.24734 -145.745989 
L 534.248392 -144.712818 
L 534.252155 -143.679648 
L 534.261641 -142.646477 
L 534.280389 -141.613306 
L 534.3097 -140.580136 
L 534.346905 -139.546965 
L 534.388583 -138.513794 
L 534.436463 -137.480624 
L 534.497141 -136.447453 
L 534.573624 -135.414282 
L 534.660182 -134.381112 
L 534.748384 -133.347941 
L 534.834887 -132.31477 
L 534.918822 -131.281599 
L 534.993336 -130.248429 
L 535.047664 -129.215258 
L 535.085449 -128.182087 
L 535.14038 -127.148917 
L 535.262916 -126.115746 
L 535.481642 -125.082575 
L 535.779263 -124.049405 
L 536.115757 -123.016234 
L 536.479523 -121.983063 
L 536.906932 -120.949893 
L 537.43388 -119.916722 
L 538.021675 -118.883551 
L 538.549568 -117.85038 
L 538.906814 -116.81721 
L 539.100933 -115.784039 
L 539.271744 -114.750868 
L 539.596394 -113.717698 
L 540.168695 -112.684527 
L 540.946909 -111.651356 
L 541.804947 -110.618186 
L 542.638502 -109.585015 
L 543.433321 -108.551844 
L 544.256236 -107.518674 
L 545.214363 -106.485503 
L 546.41803 -105.452332 
L 547.925436 -104.419161 
L 549.686761 -103.385991 
L 551.573698 -102.35282 
L 553.493663 -101.319649 
L 555.455061 -100.286479 
L 557.526233 -99.253308 
L 559.794842 -98.220137 
L 562.384051 -97.186967 
L 565.429851 -96.153796 
L 568.97713 -95.120625 
L 572.911866 -94.087455 
L 577.017494 -93.054284 
L 581.073412 -92.021113 
L 584.877764 -90.987942 
L 588.223791 -89.954772 
L 590.960928 -88.921601 
L 593.162762 -87.88843 
L 595.228784 -86.85526 
L 597.711733 -85.822089 
L 600.885075 -84.788918 
L 604.384193 -83.755748 
L 607.292767 -82.722577 
L 608.646797 -81.689406 
L 607.938299 -80.656236 
L 605.276194 -79.623065 
L 601.19595 -78.589894 
L 596.304525 -77.556723 
L 590.985157 -76.523553 
L 585.342272 -75.490382 
L 579.391577 -74.457211 
L 573.279864 -73.424041 
L 567.30089 -72.39087 
L 561.720974 -71.357699 
L 556.646821 -70.324529 
L 552.07643 -69.291358 
L 548.023434 -68.258187 
L 544.547687 -67.225017 
L 541.688715 -66.191846 
L 539.41796 -65.158675 
L 537.665453 -64.125505 
L 536.36598 -63.092334 
L 535.46402 -62.059163 
L 534.891144 -61.025992 
L 534.560721 -59.992822 
L 534.386925 -58.959651 
L 534.303338 -57.92648 
L 534.266979 -56.89331 
z
" id="m9c03053e2f" style="stroke:#6f6f6f;stroke-width:2.5;"/>
    </defs>
    <g clip-path="url(#p73276e8e55)">
     <use style="fill:#98daa7;stroke:#6f6f6f;stroke-width:2.5;" x="0" xlink:href="#m9c03053e2f" y="601.868281"/>
    </g>
   </g>
   <g id="line2d_1">
    <path clip-path="url(#p73276e8e55)" d="M 162.246797 412.386198 
L 162.246797 247.387673 
" style="fill:none;stroke:#6f6f6f;stroke-linecap:round;stroke-width:2.5;"/>
   </g>
   <g id="line2d_2">
    <path clip-path="url(#p73276e8e55)" d="M 162.246797 359.823756 
L 162.246797 310.618825 
" style="fill:none;stroke:#6f6f6f;stroke-linecap:round;stroke-width:7.5;"/>
   </g>
   <g id="line2d_3">
    <path clip-path="url(#p73276e8e55)" d="M 348.246797 510.420708 
L 348.246797 377.228003 
" style="fill:none;stroke:#6f6f6f;stroke-linecap:round;stroke-width:2.5;"/>
   </g>
   <g id="line2d_4">
    <path clip-path="url(#p73276e8e55)" d="M 348.246797 463.629951 
L 348.246797 429.03642 
" style="fill:none;stroke:#6f6f6f;stroke-linecap:round;stroke-width:7.5;"/>
   </g>
   <g id="line2d_5">
    <path clip-path="url(#p73276e8e55)" d="M 534.246797 540.517187 
L 534.246797 489.106829 
" style="fill:none;stroke:#6f6f6f;stroke-linecap:round;stroke-width:2.5;"/>
   </g>
   <g id="line2d_6">
    <path clip-path="url(#p73276e8e55)" d="M 534.246797 523.125837 
L 534.246797 509.491118 
" style="fill:none;stroke:#6f6f6f;stroke-linecap:round;stroke-width:7.5;"/>
   </g>
   <g id="patch_3">
    <path d="M 69.246797 569.684062 
L 69.246797 26.084062 
" style="fill:none;stroke:#808080;stroke-linecap:square;stroke-linejoin:miter;stroke-width:2.5;"/>
   </g>
   <g id="patch_4">
    <path d="M 627.246797 569.684062 
L 627.246797 26.084062 
" style="fill:none;stroke:#808080;stroke-linecap:square;stroke-linejoin:miter;stroke-width:2.5;"/>
   </g>
   <g id="patch_5">
    <path d="M 69.246797 569.684062 
L 627.246797 569.684062 
" style="fill:none;stroke:#808080;stroke-linecap:square;stroke-linejoin:miter;stroke-width:2.5;"/>
   </g>
   <g id="patch_6">
    <path d="M 69.246797 26.084062 
L 627.246797 26.084062 
" style="fill:none;stroke:#808080;stroke-linecap:square;stroke-linejoin:miter;stroke-width:2.5;"/>
   </g>
   <g id="PathCollection_1">
    <defs>
     <path d="M 0 2.5 
C 0.663008 2.5 1.29895 2.236584 1.767767 1.767767 
C 2.236584 1.29895 2.5 0.663008 2.5 0 
C 2.5 -0.663008 2.236584 -1.29895 1.767767 -1.767767 
C 1.29895 -2.236584 0.663008 -2.5 0 -2.5 
C -0.663008 -2.5 -1.29895 -2.236584 -1.767767 -1.767767 
C -2.236584 -1.29895 -2.5 -0.663008 -2.5 0 
C -2.5 0.663008 -2.236584 1.29895 -1.767767 1.767767 
C -1.29895 2.236584 -0.663008 2.5 0 2.5 
z
" id="m9ef87e6fad" style="stroke:#6f6f6f;"/>
    </defs>
    <g clip-path="url(#p73276e8e55)">
     <use style="fill:#ffffff;stroke:#6f6f6f;" x="162.246797" xlink:href="#m9ef87e6fad" y="341.481479"/>
    </g>
   </g>
   <g id="PathCollection_2">
    <g clip-path="url(#p73276e8e55)">
     <use style="fill:#ffffff;stroke:#6f6f6f;" x="348.246797" xlink:href="#m9ef87e6fad" y="444.673519"/>
    </g>
   </g>
   <g id="PathCollection_3">
    <g clip-path="url(#p73276e8e55)">
     <use style="fill:#ffffff;stroke:#6f6f6f;" x="534.246797" xlink:href="#m9ef87e6fad" y="517.358035"/>
    </g>
   </g>
   <g id="text_11">
    <!-- Dwell time -->
    <g style="fill:#262626;" transform="translate(303.736172 20.084062)scale(0.18 -0.18)">
     <use xlink:href="#Arial-BoldMT-68"/>
     <use x="72.216797" xlink:href="#Arial-BoldMT-119"/>
     <use x="150" xlink:href="#Arial-BoldMT-101"/>
     <use x="205.615234" xlink:href="#Arial-BoldMT-108"/>
     <use x="233.398438" xlink:href="#Arial-BoldMT-108"/>
     <use x="261.181641" xlink:href="#Arial-BoldMT-32"/>
     <use x="288.964844" xlink:href="#Arial-BoldMT-116"/>
     <use x="322.265625" xlink:href="#Arial-BoldMT-105"/>
     <use x="350.048828" xlink:href="#Arial-BoldMT-109"/>
     <use x="438.964844" xlink:href="#Arial-BoldMT-101"/>
    </g>
   </g>
  </g>
 </g>
 <defs>
  <clipPath id="p73276e8e55">
   <rect height="543.6" width="558" x="69.246797" y="26.084062"/>
  </clipPath>
 </defs>
</svg>
