<?xml version="1.0" encoding="utf-8" standalone="no"?>
<!DOCTYPE svg PUBLIC "-//W3C//DTD SVG 1.1//EN"
  "http://www.w3.org/Graphics/SVG/1.1/DTD/svg11.dtd">
<!-- Created with matplotlib (https://matplotlib.org/) -->
<svg height="473.846562pt" version="1.1" viewBox="0 0 766.648453 473.846562" width="766.648453pt" xmlns="http://www.w3.org/2000/svg" xmlns:xlink="http://www.w3.org/1999/xlink">
 <defs>
  <style type="text/css">
*{stroke-linecap:butt;stroke-linejoin:round;}
  </style>
 </defs>
 <g id="figure_1">
  <g id="patch_1">
   <path d="M 0 473.846562 
L 766.648453 473.846562 
L 766.648453 0 
L 0 0 
z
" style="fill:none;"/>
  </g>
  <g id="axes_1">
   <g id="patch_2">
    <path d="M 88.496109 442.08 
L 646.496109 442.08 
L 646.496109 7.2 
L 88.496109 7.2 
z
" style="fill:none;"/>
   </g>
   <g id="matplotlib.axis_1">
    <g id="xtick_1">
     <g id="text_1">
      <!-- Unmodified -->
      <defs>
       <path d="M 7.171875 71.578125 
L 21.625 71.578125 
L 21.625 32.8125 
Q 21.625 23.578125 22.171875 20.84375 
Q 23.09375 16.453125 26.578125 13.796875 
Q 30.078125 11.140625 36.140625 11.140625 
Q 42.28125 11.140625 45.40625 13.640625 
Q 48.53125 16.15625 49.171875 19.8125 
Q 49.8125 23.484375 49.8125 31.984375 
L 49.8125 71.578125 
L 64.265625 71.578125 
L 64.265625 33.984375 
Q 64.265625 21.09375 63.09375 15.765625 
Q 61.921875 10.453125 58.765625 6.78125 
Q 55.609375 3.125 50.328125 0.953125 
Q 45.0625 -1.21875 36.578125 -1.21875 
Q 26.3125 -1.21875 21.015625 1.140625 
Q 15.71875 3.515625 12.640625 7.296875 
Q 9.578125 11.078125 8.59375 15.234375 
Q 7.171875 21.390625 7.171875 33.40625 
z
" id="Arial-BoldMT-85"/>
       <path d="M 54.34375 0 
L 40.625 0 
L 40.625 26.46875 
Q 40.625 34.859375 39.75 37.328125 
Q 38.875 39.796875 36.890625 41.15625 
Q 34.90625 42.53125 32.125 42.53125 
Q 28.5625 42.53125 25.734375 40.578125 
Q 22.90625 38.625 21.84375 35.390625 
Q 20.796875 32.171875 20.796875 23.484375 
L 20.796875 0 
L 7.078125 0 
L 7.078125 51.859375 
L 19.828125 51.859375 
L 19.828125 44.234375 
Q 26.609375 53.03125 36.921875 53.03125 
Q 41.453125 53.03125 45.203125 51.390625 
Q 48.96875 49.75 50.890625 47.203125 
Q 52.828125 44.671875 53.578125 41.453125 
Q 54.34375 38.234375 54.34375 32.234375 
z
" id="Arial-BoldMT-110"/>
       <path d="M 6.15625 51.859375 
L 18.796875 51.859375 
L 18.796875 44.78125 
Q 25.59375 53.03125 34.96875 53.03125 
Q 39.9375 53.03125 43.59375 50.96875 
Q 47.265625 48.921875 49.609375 44.78125 
Q 53.03125 48.921875 56.984375 50.96875 
Q 60.9375 53.03125 65.4375 53.03125 
Q 71.140625 53.03125 75.09375 50.703125 
Q 79.046875 48.390625 81 43.890625 
Q 82.421875 40.578125 82.421875 33.15625 
L 82.421875 0 
L 68.703125 0 
L 68.703125 29.640625 
Q 68.703125 37.359375 67.28125 39.59375 
Q 65.375 42.53125 61.421875 42.53125 
Q 58.546875 42.53125 56 40.765625 
Q 53.46875 39.015625 52.34375 35.625 
Q 51.21875 32.234375 51.21875 24.90625 
L 51.21875 0 
L 37.5 0 
L 37.5 28.421875 
Q 37.5 35.984375 36.765625 38.171875 
Q 36.03125 40.375 34.484375 41.453125 
Q 32.953125 42.53125 30.328125 42.53125 
Q 27.15625 42.53125 24.609375 40.8125 
Q 22.078125 39.109375 20.96875 35.890625 
Q 19.875 32.671875 19.875 25.203125 
L 19.875 0 
L 6.15625 0 
z
" id="Arial-BoldMT-109"/>
       <path d="M 4 26.65625 
Q 4 33.5 7.375 39.890625 
Q 10.75 46.296875 16.921875 49.65625 
Q 23.09375 53.03125 30.71875 53.03125 
Q 42.484375 53.03125 50 45.390625 
Q 57.515625 37.75 57.515625 26.078125 
Q 57.515625 14.3125 49.921875 6.5625 
Q 42.328125 -1.171875 30.8125 -1.171875 
Q 23.6875 -1.171875 17.21875 2.046875 
Q 10.75 5.28125 7.375 11.5 
Q 4 17.71875 4 26.65625 
z
M 18.0625 25.921875 
Q 18.0625 18.21875 21.71875 14.109375 
Q 25.390625 10.015625 30.765625 10.015625 
Q 36.140625 10.015625 39.765625 14.109375 
Q 43.40625 18.21875 43.40625 26.03125 
Q 43.40625 33.640625 39.765625 37.734375 
Q 36.140625 41.84375 30.765625 41.84375 
Q 25.390625 41.84375 21.71875 37.734375 
Q 18.0625 33.640625 18.0625 25.921875 
z
" id="Arial-BoldMT-111"/>
       <path d="M 54.734375 0 
L 42 0 
L 42 7.625 
Q 38.8125 3.171875 34.484375 1 
Q 30.171875 -1.171875 25.78125 -1.171875 
Q 16.84375 -1.171875 10.46875 6.03125 
Q 4.109375 13.234375 4.109375 26.125 
Q 4.109375 39.3125 10.296875 46.171875 
Q 16.5 53.03125 25.984375 53.03125 
Q 34.671875 53.03125 41.015625 45.796875 
L 41.015625 71.578125 
L 54.734375 71.578125 
z
M 18.109375 27.046875 
Q 18.109375 18.75 20.40625 15.046875 
Q 23.734375 9.671875 29.6875 9.671875 
Q 34.421875 9.671875 37.734375 13.6875 
Q 41.0625 17.71875 41.0625 25.734375 
Q 41.0625 34.671875 37.84375 38.59375 
Q 34.625 42.53125 29.59375 42.53125 
Q 24.703125 42.53125 21.40625 38.640625 
Q 18.109375 34.765625 18.109375 27.046875 
z
" id="Arial-BoldMT-100"/>
       <path d="M 7.171875 58.890625 
L 7.171875 71.578125 
L 20.90625 71.578125 
L 20.90625 58.890625 
z
M 7.171875 0 
L 7.171875 51.859375 
L 20.90625 51.859375 
L 20.90625 0 
z
" id="Arial-BoldMT-105"/>
       <path d="M 1.171875 51.859375 
L 8.796875 51.859375 
L 8.796875 55.765625 
Q 8.796875 62.3125 10.1875 65.53125 
Q 11.578125 68.75 15.3125 70.765625 
Q 19.046875 72.796875 24.75 72.796875 
Q 30.609375 72.796875 36.234375 71.046875 
L 34.375 61.46875 
Q 31.109375 62.25 28.078125 62.25 
Q 25.09375 62.25 23.796875 60.859375 
Q 22.515625 59.46875 22.515625 55.515625 
L 22.515625 51.859375 
L 32.765625 51.859375 
L 32.765625 41.0625 
L 22.515625 41.0625 
L 22.515625 0 
L 8.796875 0 
L 8.796875 41.0625 
L 1.171875 41.0625 
z
" id="Arial-BoldMT-102"/>
       <path d="M 37.203125 16.5 
L 50.875 14.203125 
Q 48.25 6.6875 42.546875 2.75 
Q 36.859375 -1.171875 28.328125 -1.171875 
Q 14.796875 -1.171875 8.296875 7.671875 
Q 3.171875 14.75 3.171875 25.53125 
Q 3.171875 38.421875 9.90625 45.71875 
Q 16.65625 53.03125 26.953125 53.03125 
Q 38.53125 53.03125 45.21875 45.390625 
Q 51.90625 37.75 51.609375 21.96875 
L 17.234375 21.96875 
Q 17.390625 15.875 20.5625 12.46875 
Q 23.734375 9.078125 28.46875 9.078125 
Q 31.6875 9.078125 33.875 10.828125 
Q 36.078125 12.59375 37.203125 16.5 
z
M 37.984375 30.375 
Q 37.84375 36.328125 34.90625 39.421875 
Q 31.984375 42.53125 27.78125 42.53125 
Q 23.296875 42.53125 20.359375 39.265625 
Q 17.4375 35.984375 17.484375 30.375 
z
" id="Arial-BoldMT-101"/>
      </defs>
      <g style="fill:#262626;" transform="translate(182.627555 463.390391)scale(0.165 -0.165)">
       <use xlink:href="#Arial-BoldMT-85"/>
       <use x="72.216797" xlink:href="#Arial-BoldMT-110"/>
       <use x="133.300781" xlink:href="#Arial-BoldMT-109"/>
       <use x="222.216797" xlink:href="#Arial-BoldMT-111"/>
       <use x="283.300781" xlink:href="#Arial-BoldMT-100"/>
       <use x="344.384766" xlink:href="#Arial-BoldMT-105"/>
       <use x="372.167969" xlink:href="#Arial-BoldMT-102"/>
       <use x="405.46875" xlink:href="#Arial-BoldMT-105"/>
       <use x="433.251953" xlink:href="#Arial-BoldMT-101"/>
       <use x="488.867188" xlink:href="#Arial-BoldMT-100"/>
      </g>
     </g>
    </g>
    <g id="xtick_2">
     <g id="text_2">
      <!-- Modified -->
      <defs>
       <path d="M 7.078125 0 
L 7.078125 71.578125 
L 28.71875 71.578125 
L 41.703125 22.75 
L 54.546875 71.578125 
L 76.21875 71.578125 
L 76.21875 0 
L 62.796875 0 
L 62.796875 56.34375 
L 48.578125 0 
L 34.671875 0 
L 20.515625 56.34375 
L 20.515625 0 
z
" id="Arial-BoldMT-77"/>
      </defs>
      <g style="fill:#262626;" transform="translate(473.088609 463.390391)scale(0.165 -0.165)">
       <use xlink:href="#Arial-BoldMT-77"/>
       <use x="83.300781" xlink:href="#Arial-BoldMT-111"/>
       <use x="144.384766" xlink:href="#Arial-BoldMT-100"/>
       <use x="205.46875" xlink:href="#Arial-BoldMT-105"/>
       <use x="233.251953" xlink:href="#Arial-BoldMT-102"/>
       <use x="266.552734" xlink:href="#Arial-BoldMT-105"/>
       <use x="294.335938" xlink:href="#Arial-BoldMT-101"/>
       <use x="349.951172" xlink:href="#Arial-BoldMT-100"/>
      </g>
     </g>
    </g>
   </g>
   <g id="matplotlib.axis_2">
    <g id="ytick_1">
     <g id="text_3">
      <!-- 0.00 -->
      <defs>
       <path d="M 27.4375 71.875 
Q 37.84375 71.875 43.703125 64.453125 
Q 50.6875 55.671875 50.6875 35.296875 
Q 50.6875 14.984375 43.65625 6.109375 
Q 37.84375 -1.21875 27.4375 -1.21875 
Q 17 -1.21875 10.59375 6.8125 
Q 4.203125 14.84375 4.203125 35.453125 
Q 4.203125 55.671875 11.234375 64.546875 
Q 17.046875 71.875 27.4375 71.875 
z
M 27.4375 60.5 
Q 24.953125 60.5 23 58.90625 
Q 21.046875 57.328125 19.96875 53.21875 
Q 18.5625 47.90625 18.5625 35.296875 
Q 18.5625 22.703125 19.828125 17.984375 
Q 21.09375 13.28125 23.015625 11.71875 
Q 24.953125 10.15625 27.4375 10.15625 
Q 29.9375 10.15625 31.890625 11.734375 
Q 33.84375 13.328125 34.90625 17.4375 
Q 36.328125 22.703125 36.328125 35.296875 
Q 36.328125 47.90625 35.0625 52.609375 
Q 33.796875 57.328125 31.859375 58.90625 
Q 29.9375 60.5 27.4375 60.5 
z
" id="Arial-BoldMT-48"/>
       <path d="M 7.171875 0 
L 7.171875 13.71875 
L 20.90625 13.71875 
L 20.90625 0 
z
" id="Arial-BoldMT-46"/>
      </defs>
      <g style="fill:#262626;" transform="translate(46.885563 433.885795)scale(0.165 -0.165)">
       <use xlink:href="#Arial-BoldMT-48"/>
       <use x="55.615234" xlink:href="#Arial-BoldMT-46"/>
       <use x="83.398438" xlink:href="#Arial-BoldMT-48"/>
       <use x="139.013672" xlink:href="#Arial-BoldMT-48"/>
      </g>
     </g>
    </g>
    <g id="ytick_2">
     <g id="text_4">
      <!-- 0.02 -->
      <defs>
       <path d="M 50.59375 12.75 
L 50.59375 0 
L 2.484375 0 
Q 3.265625 7.234375 7.171875 13.703125 
Q 11.078125 20.171875 22.609375 30.859375 
Q 31.890625 39.5 33.984375 42.578125 
Q 36.8125 46.828125 36.8125 50.984375 
Q 36.8125 55.5625 34.34375 58.03125 
Q 31.890625 60.5 27.546875 60.5 
Q 23.25 60.5 20.703125 57.90625 
Q 18.171875 55.328125 17.78125 49.3125 
L 4.109375 50.6875 
Q 5.328125 62.015625 11.765625 66.9375 
Q 18.21875 71.875 27.875 71.875 
Q 38.484375 71.875 44.53125 66.15625 
Q 50.59375 60.453125 50.59375 51.953125 
Q 50.59375 47.125 48.859375 42.75 
Q 47.125 38.375 43.359375 33.59375 
Q 40.875 30.421875 34.375 24.453125 
Q 27.875 18.5 26.140625 16.546875 
Q 24.421875 14.59375 23.34375 12.75 
z
" id="Arial-BoldMT-50"/>
      </defs>
      <g style="fill:#262626;" transform="translate(46.885563 348.801158)scale(0.165 -0.165)">
       <use xlink:href="#Arial-BoldMT-48"/>
       <use x="55.615234" xlink:href="#Arial-BoldMT-46"/>
       <use x="83.398438" xlink:href="#Arial-BoldMT-48"/>
       <use x="139.013672" xlink:href="#Arial-BoldMT-50"/>
      </g>
     </g>
    </g>
    <g id="ytick_3">
     <g id="text_5">
      <!-- 0.04 -->
      <defs>
       <path d="M 31.15625 0 
L 31.15625 14.40625 
L 1.859375 14.40625 
L 1.859375 26.421875 
L 32.90625 71.875 
L 44.4375 71.875 
L 44.4375 26.46875 
L 53.328125 26.46875 
L 53.328125 14.40625 
L 44.4375 14.40625 
L 44.4375 0 
z
M 31.15625 26.46875 
L 31.15625 50.921875 
L 14.703125 26.46875 
z
" id="Arial-BoldMT-52"/>
      </defs>
      <g style="fill:#262626;" transform="translate(46.885563 263.716521)scale(0.165 -0.165)">
       <use xlink:href="#Arial-BoldMT-48"/>
       <use x="55.615234" xlink:href="#Arial-BoldMT-46"/>
       <use x="83.398438" xlink:href="#Arial-BoldMT-48"/>
       <use x="139.013672" xlink:href="#Arial-BoldMT-52"/>
      </g>
     </g>
    </g>
    <g id="ytick_4">
     <g id="text_6">
      <!-- 0.06 -->
      <defs>
       <path d="M 50.734375 54.046875 
L 37.453125 52.59375 
Q 36.96875 56.6875 34.90625 58.640625 
Q 32.859375 60.59375 29.59375 60.59375 
Q 25.25 60.59375 22.234375 56.6875 
Q 19.234375 52.78125 18.453125 40.4375 
Q 23.578125 46.484375 31.203125 46.484375 
Q 39.796875 46.484375 45.921875 39.9375 
Q 52.046875 33.40625 52.046875 23.046875 
Q 52.046875 12.0625 45.59375 5.421875 
Q 39.15625 -1.21875 29.046875 -1.21875 
Q 18.21875 -1.21875 11.234375 7.203125 
Q 4.25 15.625 4.25 34.8125 
Q 4.25 54.5 11.515625 63.1875 
Q 18.796875 71.875 30.421875 71.875 
Q 38.578125 71.875 43.921875 67.3125 
Q 49.265625 62.75 50.734375 54.046875 
z
M 19.625 24.125 
Q 19.625 17.4375 22.703125 13.796875 
Q 25.78125 10.15625 29.734375 10.15625 
Q 33.546875 10.15625 36.078125 13.125 
Q 38.625 16.109375 38.625 22.90625 
Q 38.625 29.890625 35.890625 33.125 
Q 33.15625 36.375 29.046875 36.375 
Q 25.09375 36.375 22.359375 33.265625 
Q 19.625 30.171875 19.625 24.125 
z
" id="Arial-BoldMT-54"/>
      </defs>
      <g style="fill:#262626;" transform="translate(46.885563 178.631884)scale(0.165 -0.165)">
       <use xlink:href="#Arial-BoldMT-48"/>
       <use x="55.615234" xlink:href="#Arial-BoldMT-46"/>
       <use x="83.398438" xlink:href="#Arial-BoldMT-48"/>
       <use x="139.013672" xlink:href="#Arial-BoldMT-54"/>
      </g>
     </g>
    </g>
    <g id="ytick_5">
     <g id="text_7">
      <!-- 0.08 -->
      <defs>
       <path d="M 16.015625 38.625 
Q 10.6875 40.875 8.265625 44.796875 
Q 5.859375 48.734375 5.859375 53.421875 
Q 5.859375 61.421875 11.453125 66.640625 
Q 17.046875 71.875 27.34375 71.875 
Q 37.546875 71.875 43.1875 66.640625 
Q 48.828125 61.421875 48.828125 53.421875 
Q 48.828125 48.4375 46.234375 44.546875 
Q 43.65625 40.671875 38.96875 38.625 
Q 44.921875 36.234375 48.015625 31.640625 
Q 51.125 27.046875 51.125 21.046875 
Q 51.125 11.140625 44.796875 4.9375 
Q 38.484375 -1.265625 27.984375 -1.265625 
Q 18.21875 -1.265625 11.71875 3.859375 
Q 4.046875 9.90625 4.046875 20.453125 
Q 4.046875 26.265625 6.921875 31.125 
Q 9.8125 35.984375 16.015625 38.625 
z
M 18.84375 52.4375 
Q 18.84375 48.34375 21.15625 46.046875 
Q 23.484375 43.75 27.34375 43.75 
Q 31.25 43.75 33.59375 46.0625 
Q 35.9375 48.390625 35.9375 52.484375 
Q 35.9375 56.34375 33.609375 58.65625 
Q 31.296875 60.984375 27.484375 60.984375 
Q 23.53125 60.984375 21.1875 58.640625 
Q 18.84375 56.296875 18.84375 52.4375 
z
M 17.578125 21.78125 
Q 17.578125 16.109375 20.484375 12.9375 
Q 23.390625 9.765625 27.734375 9.765625 
Q 31.984375 9.765625 34.765625 12.8125 
Q 37.546875 15.875 37.546875 21.625 
Q 37.546875 26.65625 34.71875 29.703125 
Q 31.890625 32.765625 27.546875 32.765625 
Q 22.515625 32.765625 20.046875 29.296875 
Q 17.578125 25.828125 17.578125 21.78125 
z
" id="Arial-BoldMT-56"/>
      </defs>
      <g style="fill:#262626;" transform="translate(46.885563 93.547247)scale(0.165 -0.165)">
       <use xlink:href="#Arial-BoldMT-48"/>
       <use x="55.615234" xlink:href="#Arial-BoldMT-46"/>
       <use x="83.398438" xlink:href="#Arial-BoldMT-48"/>
       <use x="139.013672" xlink:href="#Arial-BoldMT-56"/>
      </g>
     </g>
    </g>
    <g id="text_8">
     <!-- Dwell time -->
     <defs>
      <path d="M 7.234375 71.578125 
L 33.640625 71.578125 
Q 42.578125 71.578125 47.265625 70.21875 
Q 53.5625 68.359375 58.046875 63.625 
Q 62.546875 58.890625 64.890625 52.03125 
Q 67.234375 45.171875 67.234375 35.109375 
Q 67.234375 26.265625 65.046875 19.875 
Q 62.359375 12.0625 57.375 7.234375 
Q 53.609375 3.5625 47.21875 1.515625 
Q 42.4375 0 34.421875 0 
L 7.234375 0 
z
M 21.6875 59.46875 
L 21.6875 12.0625 
L 32.46875 12.0625 
Q 38.53125 12.0625 41.21875 12.75 
Q 44.734375 13.625 47.046875 15.71875 
Q 49.359375 17.828125 50.828125 22.625 
Q 52.296875 27.4375 52.296875 35.75 
Q 52.296875 44.046875 50.828125 48.484375 
Q 49.359375 52.9375 46.71875 55.421875 
Q 44.09375 57.90625 40.046875 58.796875 
Q 37.015625 59.46875 28.171875 59.46875 
z
" id="Arial-BoldMT-68"/>
      <path d="M 16.84375 0 
L 0.4375 51.859375 
L 13.765625 51.859375 
L 23.484375 17.875 
L 32.421875 51.859375 
L 45.65625 51.859375 
L 54.296875 17.875 
L 64.203125 51.859375 
L 77.734375 51.859375 
L 61.078125 0 
L 47.90625 0 
L 38.96875 33.34375 
L 30.171875 0 
z
" id="Arial-BoldMT-119"/>
      <path d="M 7.171875 0 
L 7.171875 71.578125 
L 20.90625 71.578125 
L 20.90625 0 
z
" id="Arial-BoldMT-108"/>
      <path id="Arial-BoldMT-32"/>
      <path d="M 30.953125 51.859375 
L 30.953125 40.921875 
L 21.578125 40.921875 
L 21.578125 20.015625 
Q 21.578125 13.671875 21.84375 12.625 
Q 22.125 11.578125 23.078125 10.890625 
Q 24.03125 10.203125 25.390625 10.203125 
Q 27.296875 10.203125 30.90625 11.53125 
L 32.078125 0.875 
Q 27.296875 -1.171875 21.234375 -1.171875 
Q 17.53125 -1.171875 14.546875 0.0625 
Q 11.578125 1.3125 10.1875 3.296875 
Q 8.796875 5.28125 8.25 8.640625 
Q 7.8125 11.03125 7.8125 18.3125 
L 7.8125 40.921875 
L 1.515625 40.921875 
L 1.515625 51.859375 
L 7.8125 51.859375 
L 7.8125 62.15625 
L 21.578125 70.171875 
L 21.578125 51.859375 
z
" id="Arial-BoldMT-116"/>
     </defs>
     <g style="fill:#262626;" transform="translate(20.084063 269.150625)rotate(-90)scale(0.18 -0.18)">
      <use xlink:href="#Arial-BoldMT-68"/>
      <use x="72.216797" xlink:href="#Arial-BoldMT-119"/>
      <use x="150" xlink:href="#Arial-BoldMT-101"/>
      <use x="205.615234" xlink:href="#Arial-BoldMT-108"/>
      <use x="233.398438" xlink:href="#Arial-BoldMT-108"/>
      <use x="261.181641" xlink:href="#Arial-BoldMT-32"/>
      <use x="288.964844" xlink:href="#Arial-BoldMT-116"/>
      <use x="322.265625" xlink:href="#Arial-BoldMT-105"/>
      <use x="350.048828" xlink:href="#Arial-BoldMT-109"/>
      <use x="438.964844" xlink:href="#Arial-BoldMT-101"/>
     </g>
     <!-- rolling minimum -->
     <defs>
      <path d="M 20.3125 0 
L 6.59375 0 
L 6.59375 51.859375 
L 19.34375 51.859375 
L 19.34375 44.484375 
Q 22.609375 49.703125 25.21875 51.359375 
Q 27.828125 53.03125 31.15625 53.03125 
Q 35.84375 53.03125 40.1875 50.4375 
L 35.9375 38.484375 
Q 32.46875 40.71875 29.5 40.71875 
Q 26.609375 40.71875 24.609375 39.125 
Q 22.609375 37.546875 21.453125 33.390625 
Q 20.3125 29.25 20.3125 16.015625 
z
" id="Arial-BoldMT-114"/>
      <path d="M 5.90625 -3.421875 
L 21.578125 -5.328125 
Q 21.96875 -8.0625 23.390625 -9.078125 
Q 25.34375 -10.546875 29.546875 -10.546875 
Q 34.90625 -10.546875 37.59375 -8.9375 
Q 39.40625 -7.859375 40.328125 -5.46875 
Q 40.96875 -3.765625 40.96875 0.828125 
L 40.96875 8.40625 
Q 34.8125 0 25.4375 0 
Q 14.984375 0 8.890625 8.84375 
Q 4.109375 15.828125 4.109375 26.21875 
Q 4.109375 39.265625 10.375 46.140625 
Q 16.65625 53.03125 25.984375 53.03125 
Q 35.59375 53.03125 41.84375 44.578125 
L 41.84375 51.859375 
L 54.6875 51.859375 
L 54.6875 5.328125 
Q 54.6875 -3.859375 53.171875 -8.390625 
Q 51.65625 -12.9375 48.921875 -15.515625 
Q 46.1875 -18.109375 41.625 -19.578125 
Q 37.0625 -21.046875 30.078125 -21.046875 
Q 16.890625 -21.046875 11.375 -16.53125 
Q 5.859375 -12.015625 5.859375 -5.078125 
Q 5.859375 -4.390625 5.90625 -3.421875 
z
M 18.171875 27 
Q 18.171875 18.75 21.359375 14.90625 
Q 24.5625 11.078125 29.25 11.078125 
Q 34.28125 11.078125 37.75 15.015625 
Q 41.21875 18.953125 41.21875 26.65625 
Q 41.21875 34.71875 37.890625 38.625 
Q 34.578125 42.53125 29.5 42.53125 
Q 24.5625 42.53125 21.359375 38.6875 
Q 18.171875 34.859375 18.171875 27 
z
" id="Arial-BoldMT-103"/>
      <path d="M 41.3125 0 
L 41.3125 7.765625 
Q 38.484375 3.609375 33.859375 1.21875 
Q 29.25 -1.171875 24.125 -1.171875 
Q 18.890625 -1.171875 14.734375 1.125 
Q 10.59375 3.421875 8.734375 7.5625 
Q 6.890625 11.71875 6.890625 19.046875 
L 6.890625 51.859375 
L 20.609375 51.859375 
L 20.609375 28.03125 
Q 20.609375 17.09375 21.359375 14.625 
Q 22.125 12.15625 24.125 10.71875 
Q 26.125 9.28125 29.203125 9.28125 
Q 32.71875 9.28125 35.5 11.203125 
Q 38.28125 13.140625 39.296875 15.984375 
Q 40.328125 18.84375 40.328125 29.984375 
L 40.328125 51.859375 
L 54.046875 51.859375 
L 54.046875 0 
z
" id="Arial-BoldMT-117"/>
     </defs>
     <g style="fill:#262626;" transform="translate(39.097125 294.638906)rotate(-90)scale(0.18 -0.18)">
      <use xlink:href="#Arial-BoldMT-114"/>
      <use x="38.916016" xlink:href="#Arial-BoldMT-111"/>
      <use x="100" xlink:href="#Arial-BoldMT-108"/>
      <use x="127.783203" xlink:href="#Arial-BoldMT-108"/>
      <use x="155.566406" xlink:href="#Arial-BoldMT-105"/>
      <use x="183.349609" xlink:href="#Arial-BoldMT-110"/>
      <use x="244.433594" xlink:href="#Arial-BoldMT-103"/>
      <use x="305.517578" xlink:href="#Arial-BoldMT-32"/>
      <use x="333.300781" xlink:href="#Arial-BoldMT-109"/>
      <use x="422.216797" xlink:href="#Arial-BoldMT-105"/>
      <use x="450" xlink:href="#Arial-BoldMT-110"/>
      <use x="511.083984" xlink:href="#Arial-BoldMT-105"/>
      <use x="538.867188" xlink:href="#Arial-BoldMT-109"/>
      <use x="627.783203" xlink:href="#Arial-BoldMT-117"/>
      <use x="688.867188" xlink:href="#Arial-BoldMT-109"/>
     </g>
    </g>
   </g>
   <g id="PolyCollection_1">
    <defs>
     <path d="M 227.996109 -51.533835 
L 227.271179 -51.533835 
L 213.01383 -53.830494 
L 116.396109 -56.127152 
L 149.537159 -58.423811 
L 163.572541 -60.72047 
L 174.4883 -63.017128 
L 186.20802 -65.313787 
L 196.133313 -67.610446 
L 203.672646 -69.907104 
L 209.934763 -72.203763 
L 214.226637 -74.500421 
L 218.016749 -76.79708 
L 220.5788 -79.093739 
L 222.462669 -81.390397 
L 223.789022 -83.687056 
L 224.914728 -85.983715 
L 225.614739 -88.280373 
L 226.271118 -90.577032 
L 226.604596 -92.87369 
L 227.034228 -95.170349 
L 227.25959 -97.467008 
L 227.38968 -99.763666 
L 227.576088 -102.060325 
L 227.697277 -104.356984 
L 227.72727 -106.653642 
L 227.799251 -108.950301 
L 227.852928 -111.246959 
L 227.866856 -113.543618 
L 227.901109 -115.840277 
L 227.89553 -118.136935 
L 227.919739 -120.433594 
L 227.942987 -122.730253 
L 227.947892 -125.026911 
L 227.947929 -127.32357 
L 227.973613 -129.620228 
L 227.969845 -131.916887 
L 227.969124 -134.213546 
L 227.977726 -136.510204 
L 227.99011 -138.806863 
L 227.987245 -141.103522 
L 227.989867 -143.40018 
L 227.988395 -145.696839 
L 227.989069 -147.993497 
L 227.995206 -150.290156 
L 227.990146 -152.586815 
L 227.995263 -154.883473 
L 227.995453 -157.180132 
L 227.992232 -159.476791 
L 227.995412 -161.773449 
L 227.996109 -164.070108 
L 227.995238 -166.366766 
L 227.995677 -168.663425 
L 227.996073 -170.960084 
L 227.993844 -173.256742 
L 227.991416 -175.553401 
L 227.996037 -177.850059 
L 227.993722 -180.146718 
L 227.994127 -182.443377 
L 227.996036 -184.740035 
L 227.996109 -187.036694 
L 227.994475 -189.333353 
L 227.995973 -191.630011 
L 227.996109 -193.92667 
L 227.994659 -196.223328 
L 227.995926 -198.519987 
L 227.996109 -200.816646 
L 227.996109 -203.113304 
L 227.996109 -205.409963 
L 227.996109 -207.706622 
L 227.996103 -210.00328 
L 227.991529 -212.299939 
L 227.996045 -214.596597 
L 227.996109 -216.893256 
L 227.996109 -219.189915 
L 227.996109 -221.486573 
L 227.996109 -223.783232 
L 227.994407 -226.079891 
L 227.995987 -228.376549 
L 227.996109 -230.673208 
L 227.996109 -232.969866 
L 227.996109 -235.266525 
L 227.996109 -237.563184 
L 227.996109 -239.859842 
L 227.996109 -242.156501 
L 227.996109 -244.45316 
L 227.996109 -246.749818 
L 227.996109 -249.046477 
L 227.996109 -251.343135 
L 227.996109 -253.639794 
L 227.996109 -255.936453 
L 227.996109 -258.233111 
L 227.996109 -260.52977 
L 227.996109 -262.826429 
L 227.996109 -265.123087 
L 227.996109 -267.419746 
L 227.996109 -269.716404 
L 227.996109 -272.013063 
L 227.996109 -274.309722 
L 227.995055 -276.60638 
L 227.995779 -278.903039 
L 227.996109 -278.903039 
L 227.996109 -278.903039 
L 227.996109 -276.60638 
L 227.996109 -274.309722 
L 227.996109 -272.013063 
L 227.996109 -269.716404 
L 227.996109 -267.419746 
L 227.996109 -265.123087 
L 227.996109 -262.826429 
L 227.996109 -260.52977 
L 227.996109 -258.233111 
L 227.996109 -255.936453 
L 227.996109 -253.639794 
L 227.996109 -251.343135 
L 227.996109 -249.046477 
L 227.996109 -246.749818 
L 227.996109 -244.45316 
L 227.996109 -242.156501 
L 227.996109 -239.859842 
L 227.996109 -237.563184 
L 227.996109 -235.266525 
L 227.996109 -232.969866 
L 227.996109 -230.673208 
L 227.996109 -228.376549 
L 227.996109 -226.079891 
L 227.996109 -223.783232 
L 227.996109 -221.486573 
L 227.996109 -219.189915 
L 227.996109 -216.893256 
L 227.996109 -214.596597 
L 227.996109 -212.299939 
L 227.996109 -210.00328 
L 227.996109 -207.706622 
L 227.996109 -205.409963 
L 227.996109 -203.113304 
L 227.996109 -200.816646 
L 227.996109 -198.519987 
L 227.996109 -196.223328 
L 227.996109 -193.92667 
L 227.996109 -191.630011 
L 227.996109 -189.333353 
L 227.996109 -187.036694 
L 227.996109 -184.740035 
L 227.996109 -182.443377 
L 227.996109 -180.146718 
L 227.996109 -177.850059 
L 227.996109 -175.553401 
L 227.996109 -173.256742 
L 227.996109 -170.960084 
L 227.996109 -168.663425 
L 227.996109 -166.366766 
L 227.996109 -164.070108 
L 227.996109 -161.773449 
L 227.996109 -159.476791 
L 227.996109 -157.180132 
L 227.996109 -154.883473 
L 227.996109 -152.586815 
L 227.996109 -150.290156 
L 227.996109 -147.993497 
L 227.996109 -145.696839 
L 227.996109 -143.40018 
L 227.996109 -141.103522 
L 227.996109 -138.806863 
L 227.996109 -136.510204 
L 227.996109 -134.213546 
L 227.996109 -131.916887 
L 227.996109 -129.620228 
L 227.996109 -127.32357 
L 227.996109 -125.026911 
L 227.996109 -122.730253 
L 227.996109 -120.433594 
L 227.996109 -118.136935 
L 227.996109 -115.840277 
L 227.996109 -113.543618 
L 227.996109 -111.246959 
L 227.996109 -108.950301 
L 227.996109 -106.653642 
L 227.996109 -104.356984 
L 227.996109 -102.060325 
L 227.996109 -99.763666 
L 227.996109 -97.467008 
L 227.996109 -95.170349 
L 227.996109 -92.87369 
L 227.996109 -90.577032 
L 227.996109 -88.280373 
L 227.996109 -85.983715 
L 227.996109 -83.687056 
L 227.996109 -81.390397 
L 227.996109 -79.093739 
L 227.996109 -76.79708 
L 227.996109 -74.500421 
L 227.996109 -72.203763 
L 227.996109 -69.907104 
L 227.996109 -67.610446 
L 227.996109 -65.313787 
L 227.996109 -63.017128 
L 227.996109 -60.72047 
L 227.996109 -58.423811 
L 227.996109 -56.127152 
L 227.996109 -53.830494 
L 227.996109 -51.533835 
z
" id="m0b57b78f80" style="stroke:#737373;stroke-width:2.5;"/>
    </defs>
    <g clip-path="url(#pf613fb069d)">
     <use style="fill:#abc9ea;stroke:#737373;stroke-width:2.5;" x="0" xlink:href="#m0b57b78f80" y="473.846562"/>
    </g>
   </g>
   <g id="PolyCollection_2">
    <defs>
     <path d="M 228.839734 -51.619928 
L 227.996109 -51.619928 
L 227.996109 -53.216122 
L 227.996109 -54.812316 
L 227.996109 -56.408511 
L 227.996109 -58.004705 
L 227.996109 -59.600899 
L 227.996109 -61.197093 
L 227.996109 -62.793287 
L 227.996109 -64.389481 
L 227.996109 -65.985675 
L 227.996109 -67.581869 
L 227.996109 -69.178063 
L 227.996109 -70.774257 
L 227.996109 -72.370451 
L 227.996109 -73.966645 
L 227.996109 -75.562839 
L 227.996109 -77.159033 
L 227.996109 -78.755227 
L 227.996109 -80.351421 
L 227.996109 -81.947615 
L 227.996109 -83.543809 
L 227.996109 -85.140003 
L 227.996109 -86.736197 
L 227.996109 -88.332391 
L 227.996109 -89.928585 
L 227.996109 -91.524779 
L 227.996109 -93.120973 
L 227.996109 -94.717167 
L 227.996109 -96.313361 
L 227.996109 -97.909555 
L 227.996109 -99.505749 
L 227.996109 -101.101943 
L 227.996109 -102.698137 
L 227.996109 -104.294331 
L 227.996109 -105.890525 
L 227.996109 -107.486719 
L 227.996109 -109.082913 
L 227.996109 -110.679107 
L 227.996109 -112.275301 
L 227.996109 -113.871495 
L 227.996109 -115.467689 
L 227.996109 -117.063883 
L 227.996109 -118.660077 
L 227.996109 -120.256271 
L 227.996109 -121.852465 
L 227.996109 -123.448659 
L 227.996109 -125.044853 
L 227.996109 -126.641047 
L 227.996109 -128.237241 
L 227.996109 -129.833435 
L 227.996109 -131.429629 
L 227.996109 -133.025823 
L 227.996109 -134.622017 
L 227.996109 -136.218211 
L 227.996109 -137.814405 
L 227.996109 -139.410599 
L 227.996109 -141.006793 
L 227.996109 -142.602987 
L 227.996109 -144.199181 
L 227.996109 -145.795375 
L 227.996109 -147.391569 
L 227.996109 -148.987763 
L 227.996109 -150.583957 
L 227.996109 -152.180151 
L 227.996109 -153.776345 
L 227.996109 -155.372539 
L 227.996109 -156.968733 
L 227.996109 -158.564927 
L 227.996109 -160.161121 
L 227.996109 -161.757315 
L 227.996109 -163.353509 
L 227.996109 -164.949703 
L 227.996109 -166.545897 
L 227.996109 -168.142091 
L 227.996109 -169.738285 
L 227.996109 -171.334479 
L 227.996109 -172.930673 
L 227.996109 -174.526867 
L 227.996109 -176.123061 
L 227.996109 -177.719255 
L 227.996109 -179.31545 
L 227.996109 -180.911644 
L 227.996109 -182.507838 
L 227.996109 -184.104032 
L 227.996109 -185.700226 
L 227.996109 -187.29642 
L 227.996109 -188.892614 
L 227.996109 -190.488808 
L 227.996109 -192.085002 
L 227.996109 -193.681196 
L 227.996109 -195.27739 
L 227.996109 -196.873584 
L 227.996109 -198.469778 
L 227.996109 -200.065972 
L 227.996109 -201.662166 
L 227.996109 -203.25836 
L 227.996109 -204.854554 
L 227.996109 -206.450748 
L 227.996109 -208.046942 
L 227.996109 -209.643136 
L 227.996645 -209.643136 
L 227.996645 -209.643136 
L 228.000283 -208.046942 
L 227.996196 -206.450748 
L 227.996109 -204.854554 
L 227.996109 -203.25836 
L 227.996109 -201.662166 
L 227.99619 -200.065972 
L 227.998332 -198.469778 
L 227.996267 -196.873584 
L 227.996109 -195.27739 
L 227.996109 -193.681196 
L 227.996109 -192.085002 
L 227.996109 -190.488808 
L 227.996109 -188.892614 
L 227.996496 -187.29642 
L 228.002819 -185.700226 
L 227.996778 -184.104032 
L 227.99927 -182.507838 
L 227.999341 -180.911644 
L 227.996146 -179.31545 
L 227.997818 -177.719255 
L 227.996636 -176.123061 
L 227.996346 -174.526867 
L 228.001057 -172.930673 
L 228.000609 -171.334479 
L 227.996217 -169.738285 
L 227.998162 -168.142091 
L 227.9984 -166.545897 
L 228.005006 -164.949703 
L 228.004818 -163.353509 
L 227.997099 -161.757315 
L 227.998635 -160.161121 
L 227.99875 -158.564927 
L 228.000286 -156.968733 
L 228.001211 -155.372539 
L 228.001783 -153.776345 
L 227.99816 -152.180151 
L 227.998456 -150.583957 
L 228.001005 -148.987763 
L 227.998562 -147.391569 
L 227.997989 -145.795375 
L 228.006544 -144.199181 
L 228.015248 -142.602987 
L 228.007092 -141.006793 
L 227.999455 -139.410599 
L 228.008582 -137.814405 
L 228.020062 -136.218211 
L 228.027252 -134.622017 
L 228.022537 -133.025823 
L 228.011566 -131.429629 
L 228.023988 -129.833435 
L 228.042754 -128.237241 
L 228.035033 -126.641047 
L 228.027322 -125.044853 
L 228.040448 -123.448659 
L 228.042921 -121.852465 
L 228.056907 -120.256271 
L 228.077813 -118.660077 
L 228.099866 -117.063883 
L 228.093362 -115.467689 
L 228.11855 -113.871495 
L 228.114253 -112.275301 
L 228.115532 -110.679107 
L 228.15771 -109.082913 
L 228.180422 -107.486719 
L 228.217556 -105.890525 
L 228.303592 -104.294331 
L 228.394123 -102.698137 
L 228.475463 -101.101943 
L 228.597458 -99.505749 
L 228.694693 -97.909555 
L 228.705159 -96.313361 
L 228.832822 -94.717167 
L 228.997527 -93.120973 
L 229.271616 -91.524779 
L 229.462341 -89.928585 
L 230.050537 -88.332391 
L 230.40086 -86.736197 
L 230.997517 -85.140003 
L 231.679805 -83.543809 
L 232.363269 -81.947615 
L 233.445746 -80.351421 
L 234.946004 -78.755227 
L 236.504383 -77.159033 
L 239.242336 -75.562839 
L 241.339998 -73.966645 
L 244.792561 -72.370451 
L 247.359417 -70.774257 
L 252.382034 -69.178063 
L 258.627853 -67.581869 
L 266.910595 -65.985675 
L 274.77021 -64.389481 
L 282.365853 -62.793287 
L 292.422441 -61.197093 
L 300.172869 -59.600899 
L 310.61715 -58.004705 
L 335.479628 -56.408511 
L 283.378412 -54.812316 
L 237.471205 -53.216122 
L 228.839734 -51.619928 
z
" id="m7fac93a71e" style="stroke:#737373;stroke-width:2.5;"/>
    </defs>
    <g clip-path="url(#pf613fb069d)">
     <use style="fill:#efb792;stroke:#737373;stroke-width:2.5;" x="0" xlink:href="#m7fac93a71e" y="473.846562"/>
    </g>
   </g>
   <g id="PolyCollection_3">
    <defs>
     <path d="M 506.996109 -58.785635 
L 501.833429 -58.785635 
L 491.088452 -62.689912 
L 469.945954 -66.594188 
L 440.820676 -70.498464 
L 414.289231 -74.40274 
L 401.518194 -78.307017 
L 404.516652 -82.211293 
L 416.680034 -86.115569 
L 431.040631 -90.019845 
L 444.789496 -93.924122 
L 457.552319 -97.828398 
L 468.884727 -101.732674 
L 478.104579 -105.63695 
L 485.06183 -109.541226 
L 490.17833 -113.445503 
L 493.976409 -117.349779 
L 496.857639 -121.254055 
L 499.140668 -125.158331 
L 501.008258 -129.062608 
L 502.44685 -132.966884 
L 503.399632 -136.87116 
L 503.941818 -140.775436 
L 504.24712 -144.679713 
L 504.483017 -148.583989 
L 504.778999 -152.488265 
L 505.179918 -156.392541 
L 505.593556 -160.296818 
L 505.869609 -164.201094 
L 505.955792 -168.10537 
L 505.947368 -172.009646 
L 505.985228 -175.913923 
L 506.119127 -179.818199 
L 506.280238 -183.722475 
L 506.382612 -187.626751 
L 506.420555 -191.531027 
L 506.449625 -195.435304 
L 506.491179 -199.33958 
L 506.494292 -203.243856 
L 506.414274 -207.148132 
L 506.297292 -211.052409 
L 506.250501 -214.956685 
L 506.340864 -218.860961 
L 506.537689 -222.765237 
L 506.746548 -226.669514 
L 506.892324 -230.57379 
L 506.9636 -234.478066 
L 506.988514 -238.382342 
L 506.994786 -242.286619 
L 506.995841 -246.190895 
L 506.995287 -250.095171 
L 506.991298 -253.999447 
L 506.974766 -257.903724 
L 506.925328 -261.808 
L 506.820123 -265.712276 
L 506.667404 -269.616552 
L 506.534109 -273.520828 
L 506.503865 -277.425105 
L 506.581487 -281.329381 
L 506.667605 -285.233657 
L 506.658454 -289.137933 
L 506.560816 -293.04221 
L 506.488609 -296.946486 
L 506.538528 -300.850762 
L 506.688831 -304.755038 
L 506.841502 -308.659315 
L 506.928457 -312.563591 
L 506.942707 -316.467867 
L 506.906143 -320.372143 
L 506.852837 -324.27642 
L 506.825277 -328.180696 
L 506.847307 -332.084972 
L 506.901631 -335.989248 
L 506.952393 -339.893525 
L 506.981367 -343.797801 
L 506.992487 -347.702077 
L 506.995461 -351.606353 
L 506.996025 -355.510629 
L 506.996101 -359.414906 
L 506.996109 -363.319182 
L 506.996109 -367.223458 
L 506.996109 -371.127734 
L 506.996109 -375.032011 
L 506.996109 -378.936287 
L 506.996107 -382.840563 
L 506.996084 -386.744839 
L 506.995881 -390.649116 
L 506.994599 -394.553392 
L 506.988836 -398.457668 
L 506.970569 -402.361944 
L 506.93063 -406.266221 
L 506.872966 -410.170497 
L 506.823501 -414.074773 
L 506.806553 -417.979049 
L 506.811851 -421.883325 
L 506.811306 -425.787602 
L 506.806737 -429.691878 
L 506.826729 -433.596154 
L 506.878218 -437.50043 
L 506.935092 -441.404707 
L 506.972959 -445.308983 
L 506.996109 -445.308983 
L 506.996109 -445.308983 
L 506.996109 -441.404707 
L 506.996109 -437.50043 
L 506.996109 -433.596154 
L 506.996109 -429.691878 
L 506.996109 -425.787602 
L 506.996109 -421.883325 
L 506.996109 -417.979049 
L 506.996109 -414.074773 
L 506.996109 -410.170497 
L 506.996109 -406.266221 
L 506.996109 -402.361944 
L 506.996109 -398.457668 
L 506.996109 -394.553392 
L 506.996109 -390.649116 
L 506.996109 -386.744839 
L 506.996109 -382.840563 
L 506.996109 -378.936287 
L 506.996109 -375.032011 
L 506.996109 -371.127734 
L 506.996109 -367.223458 
L 506.996109 -363.319182 
L 506.996109 -359.414906 
L 506.996109 -355.510629 
L 506.996109 -351.606353 
L 506.996109 -347.702077 
L 506.996109 -343.797801 
L 506.996109 -339.893525 
L 506.996109 -335.989248 
L 506.996109 -332.084972 
L 506.996109 -328.180696 
L 506.996109 -324.27642 
L 506.996109 -320.372143 
L 506.996109 -316.467867 
L 506.996109 -312.563591 
L 506.996109 -308.659315 
L 506.996109 -304.755038 
L 506.996109 -300.850762 
L 506.996109 -296.946486 
L 506.996109 -293.04221 
L 506.996109 -289.137933 
L 506.996109 -285.233657 
L 506.996109 -281.329381 
L 506.996109 -277.425105 
L 506.996109 -273.520828 
L 506.996109 -269.616552 
L 506.996109 -265.712276 
L 506.996109 -261.808 
L 506.996109 -257.903724 
L 506.996109 -253.999447 
L 506.996109 -250.095171 
L 506.996109 -246.190895 
L 506.996109 -242.286619 
L 506.996109 -238.382342 
L 506.996109 -234.478066 
L 506.996109 -230.57379 
L 506.996109 -226.669514 
L 506.996109 -222.765237 
L 506.996109 -218.860961 
L 506.996109 -214.956685 
L 506.996109 -211.052409 
L 506.996109 -207.148132 
L 506.996109 -203.243856 
L 506.996109 -199.33958 
L 506.996109 -195.435304 
L 506.996109 -191.531027 
L 506.996109 -187.626751 
L 506.996109 -183.722475 
L 506.996109 -179.818199 
L 506.996109 -175.913923 
L 506.996109 -172.009646 
L 506.996109 -168.10537 
L 506.996109 -164.201094 
L 506.996109 -160.296818 
L 506.996109 -156.392541 
L 506.996109 -152.488265 
L 506.996109 -148.583989 
L 506.996109 -144.679713 
L 506.996109 -140.775436 
L 506.996109 -136.87116 
L 506.996109 -132.966884 
L 506.996109 -129.062608 
L 506.996109 -125.158331 
L 506.996109 -121.254055 
L 506.996109 -117.349779 
L 506.996109 -113.445503 
L 506.996109 -109.541226 
L 506.996109 -105.63695 
L 506.996109 -101.732674 
L 506.996109 -97.828398 
L 506.996109 -93.924122 
L 506.996109 -90.019845 
L 506.996109 -86.115569 
L 506.996109 -82.211293 
L 506.996109 -78.307017 
L 506.996109 -74.40274 
L 506.996109 -70.498464 
L 506.996109 -66.594188 
L 506.996109 -62.689912 
L 506.996109 -58.785635 
z
" id="m46124f8274" style="stroke:#737373;stroke-width:2.5;"/>
    </defs>
    <g clip-path="url(#pf613fb069d)">
     <use style="fill:#abc9ea;stroke:#737373;stroke-width:2.5;" x="0" xlink:href="#m46124f8274" y="473.846562"/>
    </g>
   </g>
   <g id="PolyCollection_4">
    <defs>
     <path d="M 512.732844 -61.427018 
L 506.996109 -61.427018 
L 506.996109 -65.320475 
L 506.996109 -69.213933 
L 506.996109 -73.10739 
L 506.996109 -77.000847 
L 506.996109 -80.894305 
L 506.996109 -84.787762 
L 506.996109 -88.681219 
L 506.996109 -92.574676 
L 506.996109 -96.468134 
L 506.996109 -100.361591 
L 506.996109 -104.255048 
L 506.996109 -108.148506 
L 506.996109 -112.041963 
L 506.996109 -115.93542 
L 506.996109 -119.828877 
L 506.996109 -123.722335 
L 506.996109 -127.615792 
L 506.996109 -131.509249 
L 506.996109 -135.402707 
L 506.996109 -139.296164 
L 506.996109 -143.189621 
L 506.996109 -147.083078 
L 506.996109 -150.976536 
L 506.996109 -154.869993 
L 506.996109 -158.76345 
L 506.996109 -162.656908 
L 506.996109 -166.550365 
L 506.996109 -170.443822 
L 506.996109 -174.337279 
L 506.996109 -178.230737 
L 506.996109 -182.124194 
L 506.996109 -186.017651 
L 506.996109 -189.911109 
L 506.996109 -193.804566 
L 506.996109 -197.698023 
L 506.996109 -201.591481 
L 506.996109 -205.484938 
L 506.996109 -209.378395 
L 506.996109 -213.271852 
L 506.996109 -217.16531 
L 506.996109 -221.058767 
L 506.996109 -224.952224 
L 506.996109 -228.845682 
L 506.996109 -232.739139 
L 506.996109 -236.632596 
L 506.996109 -240.526053 
L 506.996109 -244.419511 
L 506.996109 -248.312968 
L 506.996109 -252.206425 
L 506.996109 -256.099883 
L 506.996109 -259.99334 
L 506.996109 -263.886797 
L 506.996109 -267.780254 
L 506.996109 -271.673712 
L 506.996109 -275.567169 
L 506.996109 -279.460626 
L 506.996109 -283.354084 
L 506.996109 -287.247541 
L 506.996109 -291.140998 
L 506.996109 -295.034455 
L 506.996109 -298.927913 
L 506.996109 -302.82137 
L 506.996109 -306.714827 
L 506.996109 -310.608285 
L 506.996109 -314.501742 
L 506.996109 -318.395199 
L 506.996109 -322.288656 
L 506.996109 -326.182114 
L 506.996109 -330.075571 
L 506.996109 -333.969028 
L 506.996109 -337.862486 
L 506.996109 -341.755943 
L 506.996109 -345.6494 
L 506.996109 -349.542858 
L 506.996109 -353.436315 
L 506.996109 -357.329772 
L 506.996109 -361.223229 
L 506.996109 -365.116687 
L 506.996109 -369.010144 
L 506.996109 -372.903601 
L 506.996109 -376.797059 
L 506.996109 -380.690516 
L 506.996109 -384.583973 
L 506.996109 -388.47743 
L 506.996109 -392.370888 
L 506.996109 -396.264345 
L 506.996109 -400.157802 
L 506.996109 -404.05126 
L 506.996109 -407.944717 
L 506.996109 -411.838174 
L 506.996109 -415.731631 
L 506.996109 -419.625089 
L 506.996109 -423.518546 
L 506.996109 -427.412003 
L 506.996109 -431.305461 
L 506.996109 -435.198918 
L 506.996109 -439.092375 
L 506.996109 -442.985832 
L 506.996109 -446.87929 
L 507.02792 -446.87929 
L 507.02792 -446.87929 
L 507.096126 -442.985832 
L 507.190717 -439.092375 
L 507.23044 -435.198918 
L 507.170723 -431.305461 
L 507.076631 -427.412003 
L 507.019088 -423.518546 
L 507.000167 -419.625089 
L 506.996553 -415.731631 
L 506.996139 -411.838174 
L 506.996111 -407.944717 
L 506.996109 -404.05126 
L 506.996109 -400.157802 
L 506.996109 -396.264345 
L 506.996109 -392.370888 
L 506.996109 -388.47743 
L 506.996109 -384.583973 
L 506.996109 -380.690516 
L 506.996109 -376.797059 
L 506.996109 -372.903601 
L 506.996109 -369.010144 
L 506.996109 -365.116687 
L 506.996109 -361.223229 
L 506.996109 -357.329772 
L 506.996109 -353.436315 
L 506.996109 -349.542858 
L 506.996109 -345.6494 
L 506.996109 -341.755943 
L 506.996109 -337.862486 
L 506.996109 -333.969028 
L 506.996109 -330.075571 
L 506.996109 -326.182114 
L 506.996109 -322.288656 
L 506.996109 -318.395199 
L 506.996109 -314.501742 
L 506.996109 -310.608285 
L 506.996109 -306.714827 
L 506.996109 -302.82137 
L 506.996109 -298.927913 
L 506.996109 -295.034455 
L 506.996109 -291.140998 
L 506.996109 -287.247541 
L 506.996109 -283.354084 
L 506.996109 -279.460626 
L 506.996109 -275.567169 
L 506.996109 -271.673712 
L 506.996109 -267.780254 
L 506.996109 -263.886797 
L 506.99611 -259.99334 
L 506.996119 -256.099883 
L 506.99628 -252.206425 
L 506.997982 -248.312968 
L 507.0088 -244.419511 
L 507.049345 -240.526053 
L 507.134304 -236.632596 
L 507.218115 -232.739139 
L 507.216817 -228.845682 
L 507.131895 -224.952224 
L 507.047807 -221.058767 
L 507.00829 -217.16531 
L 506.997887 -213.271852 
L 506.996308 -209.378395 
L 506.996722 -205.484938 
L 507.002163 -201.591481 
L 507.035464 -197.698023 
L 507.165181 -193.804566 
L 507.490262 -189.911109 
L 508.024081 -186.017651 
L 508.610655 -182.124194 
L 509.012033 -178.230737 
L 509.064704 -174.337279 
L 508.84697 -170.443822 
L 508.62039 -166.550365 
L 508.562523 -162.656908 
L 508.774817 -158.76345 
L 509.277265 -154.869993 
L 509.920711 -150.976536 
L 510.636876 -147.083078 
L 511.558528 -143.189621 
L 512.749327 -139.296164 
L 514.156807 -135.402707 
L 515.729466 -131.509249 
L 517.171148 -127.615792 
L 518.153567 -123.722335 
L 519.053708 -119.828877 
L 520.85474 -115.93542 
L 524.459597 -112.041963 
L 530.352288 -108.148506 
L 538.755525 -104.255048 
L 549.345628 -100.361591 
L 560.77775 -96.468134 
L 571.704826 -92.574676 
L 583.012379 -88.681219 
L 597.731368 -84.787762 
L 614.024705 -80.894305 
L 618.596109 -77.000847 
L 598.240468 -73.10739 
L 560.721764 -69.213933 
L 528.595602 -65.320475 
L 512.732844 -61.427018 
z
" id="m35f69bd5db" style="stroke:#737373;stroke-width:2.5;"/>
    </defs>
    <g clip-path="url(#pf613fb069d)">
     <use style="fill:#efb792;stroke:#737373;stroke-width:2.5;" x="0" xlink:href="#m35f69bd5db" y="473.846562"/>
    </g>
   </g>
   <g id="patch_3">
    <path clip-path="url(#pf613fb069d)" d="M 227.996109 427.9806 
L 227.996109 427.9806 
L 227.996109 427.9806 
L 227.996109 427.9806 
z
" style="fill:#abc9ea;stroke:#737373;stroke-linejoin:miter;stroke-width:1.25;"/>
   </g>
   <g id="patch_4">
    <path clip-path="url(#pf613fb069d)" d="M 227.996109 427.9806 
L 227.996109 427.9806 
L 227.996109 427.9806 
L 227.996109 427.9806 
z
" style="fill:#efb792;stroke:#737373;stroke-linejoin:miter;stroke-width:1.25;"/>
   </g>
   <g id="line2d_1">
    <path clip-path="url(#pf613fb069d)" d="M 227.996109 420.918575 
L 227.996109 392.627933 
" style="fill:none;stroke:#737373;stroke-linecap:round;stroke-width:2.5;"/>
   </g>
   <g id="line2d_2">
    <path clip-path="url(#pf613fb069d)" d="M 227.996109 416.664343 
L 227.996109 406.794525 
" style="fill:none;stroke:#737373;stroke-linecap:round;stroke-width:7.5;"/>
   </g>
   <g id="line2d_3">
    <path clip-path="url(#pf613fb069d)" d="M 506.996109 401.178939 
L 506.996109 351.659681 
" style="fill:none;stroke:#737373;stroke-linecap:round;stroke-width:2.5;"/>
   </g>
   <g id="line2d_4">
    <path clip-path="url(#pf613fb069d)" d="M 506.996109 396.924708 
L 506.996109 378.546426 
" style="fill:none;stroke:#737373;stroke-linecap:round;stroke-width:7.5;"/>
   </g>
   <g id="patch_5">
    <path d="M 88.496109 442.08 
L 88.496109 7.2 
" style="fill:none;stroke:#808080;stroke-linecap:square;stroke-linejoin:miter;stroke-width:2.5;"/>
   </g>
   <g id="patch_6">
    <path d="M 646.496109 442.08 
L 646.496109 7.2 
" style="fill:none;stroke:#808080;stroke-linecap:square;stroke-linejoin:miter;stroke-width:2.5;"/>
   </g>
   <g id="patch_7">
    <path d="M 88.496109 442.08 
L 646.496109 442.08 
" style="fill:none;stroke:#808080;stroke-linecap:square;stroke-linejoin:miter;stroke-width:2.5;"/>
   </g>
   <g id="patch_8">
    <path d="M 88.496109 7.2 
L 646.496109 7.2 
" style="fill:none;stroke:#808080;stroke-linecap:square;stroke-linejoin:miter;stroke-width:2.5;"/>
   </g>
   <g id="PathCollection_1">
    <defs>
     <path d="M 0 2.5 
C 0.663008 2.5 1.29895 2.236584 1.767767 1.767767 
C 2.236584 1.29895 2.5 0.663008 2.5 0 
C 2.5 -0.663008 2.236584 -1.29895 1.767767 -1.767767 
C 1.29895 -2.236584 0.663008 -2.5 0 -2.5 
C -0.663008 -2.5 -1.29895 -2.236584 -1.767767 -1.767767 
C -2.236584 -1.29895 -2.5 -0.663008 -2.5 0 
C -2.5 0.663008 -2.236584 1.29895 -1.767767 1.767767 
C -1.29895 2.236584 -0.663008 2.5 0 2.5 
z
" id="m4f201e8cda" style="stroke:#737373;"/>
    </defs>
    <g clip-path="url(#pf613fb069d)">
     <use style="fill:#ffffff;stroke:#737373;" x="227.996109" xlink:href="#m4f201e8cda" y="412.452654"/>
    </g>
   </g>
   <g id="PathCollection_2">
    <g clip-path="url(#pf613fb069d)">
     <use style="fill:#ffffff;stroke:#737373;" x="506.996109" xlink:href="#m4f201e8cda" y="389.862683"/>
    </g>
   </g>
   <g id="legend_1">
    <g id="patch_9">
     <path d="M 674.396109 58.783125 
L 759.448453 58.783125 
L 759.448453 7.2 
L 674.396109 7.2 
z
" style="fill:none;stroke:#808080;stroke-linejoin:miter;stroke-width:2.5;"/>
    </g>
    <g id="patch_10">
     <path d="M 680.996109 25.610391 
L 713.996109 25.610391 
L 713.996109 14.060391 
L 680.996109 14.060391 
z
" style="fill:#abc9ea;stroke:#808080;stroke-linejoin:miter;stroke-width:2.5;"/>
    </g>
    <g id="text_9">
     <!-- KO -->
     <defs>
      <path d="M 7.46875 0 
L 7.46875 71.578125 
L 21.921875 71.578125 
L 21.921875 39.796875 
L 51.125 71.578125 
L 70.5625 71.578125 
L 43.609375 43.703125 
L 72.015625 0 
L 53.328125 0 
L 33.640625 33.59375 
L 21.921875 21.625 
L 21.921875 0 
z
" id="Arial-BoldMT-75"/>
      <path d="M 4.34375 35.359375 
Q 4.34375 46.296875 7.625 53.71875 
Q 10.0625 59.1875 14.28125 63.53125 
Q 18.5 67.875 23.53125 69.96875 
Q 30.21875 72.796875 38.96875 72.796875 
Q 54.78125 72.796875 64.28125 62.984375 
Q 73.78125 53.171875 73.78125 35.6875 
Q 73.78125 18.359375 64.359375 8.5625 
Q 54.9375 -1.21875 39.15625 -1.21875 
Q 23.1875 -1.21875 13.765625 8.515625 
Q 4.34375 18.265625 4.34375 35.359375 
z
M 19.234375 35.84375 
Q 19.234375 23.6875 24.84375 17.40625 
Q 30.46875 11.140625 39.109375 11.140625 
Q 47.75 11.140625 53.296875 17.359375 
Q 58.84375 23.578125 58.84375 36.03125 
Q 58.84375 48.34375 53.4375 54.390625 
Q 48.046875 60.453125 39.109375 60.453125 
Q 30.171875 60.453125 24.703125 54.3125 
Q 19.234375 48.1875 19.234375 35.84375 
z
" id="Arial-BoldMT-79"/>
     </defs>
     <g style="fill:#262626;" transform="translate(727.196109 25.610391)scale(0.165 -0.165)">
      <use xlink:href="#Arial-BoldMT-75"/>
      <use x="72.216797" xlink:href="#Arial-BoldMT-79"/>
     </g>
    </g>
    <g id="patch_11">
     <path d="M 680.996109 48.926953 
L 713.996109 48.926953 
L 713.996109 37.376953 
L 680.996109 37.376953 
z
" style="fill:#efb792;stroke:#808080;stroke-linejoin:miter;stroke-width:2.5;"/>
    </g>
    <g id="text_10">
     <!-- WT -->
     <defs>
      <path d="M 17.4375 0 
L 0.34375 71.578125 
L 15.140625 71.578125 
L 25.921875 22.40625 
L 39.015625 71.578125 
L 56.203125 71.578125 
L 68.75 21.578125 
L 79.734375 71.578125 
L 94.28125 71.578125 
L 76.90625 0 
L 61.578125 0 
L 47.3125 53.515625 
L 33.109375 0 
z
" id="Arial-BoldMT-87"/>
      <path d="M 23.390625 0 
L 23.390625 59.46875 
L 2.15625 59.46875 
L 2.15625 71.578125 
L 59.03125 71.578125 
L 59.03125 59.46875 
L 37.84375 59.46875 
L 37.84375 0 
z
" id="Arial-BoldMT-84"/>
     </defs>
     <g style="fill:#262626;" transform="translate(727.196109 48.926953)scale(0.165 -0.165)">
      <use xlink:href="#Arial-BoldMT-87"/>
      <use x="94.384766" xlink:href="#Arial-BoldMT-84"/>
     </g>
    </g>
   </g>
  </g>
 </g>
 <defs>
  <clipPath id="pf613fb069d">
   <rect height="434.88" width="558" x="88.496109" y="7.2"/>
  </clipPath>
 </defs>
</svg>
